<?xml version="1.0" encoding="UTF-8"?>
<svg width="654px" height="650px" viewBox="0 0 654 650" version="1.1" xmlns="http://www.w3.org/2000/svg" xmlns:xlink="http://www.w3.org/1999/xlink">
    <title>icon_application</title>
    <defs>
        <linearGradient x1="50.0000478%" y1="100%" x2="50.0000478%" y2="38.0540751%" id="linearGradient-1">
            <stop stop-color="#87CCFF" offset="0%"></stop>
            <stop stop-color="#DDF0FF" offset="100%"></stop>
        </linearGradient>
        <linearGradient x1="50%" y1="0%" x2="50%" y2="100%" id="linearGradient-2">
            <stop stop-color="#3C8EFF" offset="0%"></stop>
            <stop stop-color="#002FE1" offset="100%"></stop>
        </linearGradient>
        <linearGradient x1="50%" y1="0%" x2="50%" y2="100%" id="linearGradient-3">
            <stop stop-color="#3C8EFF" offset="0%"></stop>
            <stop stop-color="#002FE1" offset="100%"></stop>
        </linearGradient>
        <linearGradient x1="50.0000478%" y1="100%" x2="50.0000478%" y2="38.0540751%" id="linearGradient-4">
            <stop stop-color="#87CCFF" offset="0%"></stop>
            <stop stop-color="#DDF0FF" offset="100%"></stop>
        </linearGradient>
        <linearGradient x1="50%" y1="0%" x2="50%" y2="100%" id="linearGradient-5">
            <stop stop-color="#3C8EFF" offset="0%"></stop>
            <stop stop-color="#002FE1" offset="100%"></stop>
        </linearGradient>
    </defs>
    <g id="Page-1" stroke="none" stroke-width="1" fill="none" fill-rule="evenodd">
        <g id="Artboard-Copy" transform="translate(-4135.000000, -1700.000000)">
            <g id="icon_application" transform="translate(4135.000000, 1700.000000)">
                <polygon id="Combined-Shape" fill="url(#linearGradient-1)" fill-rule="nonzero" points="483.679844 177.082464 296.85859 383.859758 242.761967 334.986394 429.588203 128.2091"></polygon>
                <path d="M483.380801,36.7721475 L572.340692,117.25421 C575.615198,120.219705 575.869383,125.283476 572.908871,128.562966 L562.271581,140.334468 L588.007581,163.589468 L593.906574,157.061629 C600.124568,150.17953 610.688156,149.560912 617.670783,155.603541 L617.944535,155.845527 L644.703773,180.028024 C651.681411,186.327833 652.22467,197.088347 645.924861,204.061001 L645.924861,204.061001 L586.520248,269.805295 C580.220438,276.777948 569.459924,277.321206 562.482287,271.021397 L562.482287,271.021397 L535.723049,246.838901 C528.750395,240.539091 528.202153,229.778578 534.506946,222.805924 L534.506946,222.805924 L545.513581,210.622468 L519.775581,187.366468 L510.055311,198.125025 C507.099784,201.394546 502.050965,201.658699 498.766491,198.71314 L422.241748,130.048205 C419.635102,127.710697 418.857594,123.942773 420.312929,120.762965 C447.505778,61.258671 361.356879,40.7743211 323.418469,34.7436496 C316.37604,33.6222427 314.198019,24.5662667 319.949587,20.3547645 C363.654515,-11.5928465 436.271783,-5.79642323 483.380801,36.7721475 Z" id="Combined-Shape" fill="url(#linearGradient-2)"></path>
                <path d="M0.294057887,104.619702 C0.737635934,98.4993176 7.9295866,95.4291572 12.7042834,99.2917769 L75.5528592,150.138817 C87.9331812,160.156711 106.094974,158.23786 116.112867,145.857537 L143.420349,112.10571 C153.438242,99.7204038 151.524375,81.5586109 139.13907,71.5407169 L76.2855102,20.6886946 C71.5058296,16.82109 73.0309411,9.15565651 78.9370136,7.43616765 C113.481301,-2.60664622 152.361692,4.46568781 181.782401,30.1533602 C207.051416,52.2126624 218.619342,85.082318 217.388287,117.179449 C216.78522,132.953893 222.471994,148.319647 233.636214,159.483867 L639.420706,565.268358 C657.881541,583.734177 657.881541,613.663257 639.420706,632.124092 C620.954887,650.58991 591.030791,650.594893 572.569957,632.134059 C484.851089,544.415191 249.7097,309.273801 175.537416,235.101518 C162.982653,222.546755 145.164759,216.531034 127.650889,219.431738 C97.7666654,224.380877 65.5748374,218.056147 40.6497208,197.890775 C11.6476698,174.425978 -2.2278602,139.208847 0.294057887,104.619702 Z" id="Path" fill="url(#linearGradient-3)"></path>
                <path d="M375.616179,355.99905 L558.689443,539.072315 C562.542096,542.924967 562.542096,549.164968 558.689443,553.017622 C556.76561,554.941455 554.243692,555.903372 551.721774,555.903372 C549.194873,555.903372 546.672955,554.936472 544.749121,553.012637 L361.675857,369.944356 C357.828189,366.091704 357.828189,359.851703 361.675857,355.99905 C365.528509,352.151382 371.768511,352.151382 375.616179,355.99905 Z M218.933336,199.311224 L268.379863,248.762735 C272.232515,252.610403 272.232515,258.850404 268.379863,262.703057 C266.45603,264.626891 263.934111,265.593792 261.40721,265.593792 C258.885293,265.593792 256.363375,264.626891 254.439541,262.703057 L204.988029,213.256529 C201.14036,209.403877 201.14036,203.163876 204.988029,199.311224 C208.840682,195.463554 215.080682,195.463554 218.933336,199.311224 Z" id="Combined-Shape" fill="url(#linearGradient-4)" fill-rule="nonzero"></path>
                <path d="M227.615942,327.573335 C231.53837,323.232248 238.231918,322.893334 242.568022,326.810778 L242.568022,326.810778 L304.848418,383.085423 C309.184521,387.007852 309.523435,393.7014 305.60599,398.037502 L305.60599,398.037502 L293.793847,411.105621 C289.876402,415.446707 283.182854,415.785622 278.846752,411.863193 L278.846752,411.863193 L274.719781,408.134344 L249.480434,452.798814 C239.243243,469.988723 227.33142,486.122016 213.919404,500.969432 L96.0521602,631.416359 C76.2655753,653.316171 42.4688902,655.030676 20.569078,635.244092 C-1.33073542,615.452522 -3.04524056,581.660821 16.7413456,559.756026 L134.613574,429.309097 C148.025589,414.461683 162.873005,400.97989 178.941507,389.063083 L220.826781,359.438344 L216.566356,355.588548 C212.301428,351.739831 211.904288,345.211563 215.606527,340.871817 L215.808784,340.641452 Z" id="Combined-Shape" fill="url(#linearGradient-5)"></path>
            </g>
        </g>
    </g>
</svg>