<?xml version="1.0" encoding="UTF-8"?>
<svg width="720px" height="675px" viewBox="0 0 720 675" version="1.1" xmlns="http://www.w3.org/2000/svg" xmlns:xlink="http://www.w3.org/1999/xlink">
    <title>icon_integration2</title>
    <defs>
        <linearGradient x1="50.0000478%" y1="100%" x2="50.0000478%" y2="38.0540751%" id="linearGradient-1">
            <stop stop-color="#87CCFF" offset="0%"></stop>
            <stop stop-color="#DDF0FF" offset="100%"></stop>
        </linearGradient>
        <linearGradient x1="50%" y1="0%" x2="50%" y2="100%" id="linearGradient-2">
            <stop stop-color="#3C8EFF" offset="0%"></stop>
            <stop stop-color="#002FE1" offset="100%"></stop>
        </linearGradient>
        <linearGradient x1="50.0000478%" y1="100%" x2="50.0000478%" y2="38.0540751%" id="linearGradient-3">
            <stop stop-color="#87CCFF" offset="0%"></stop>
            <stop stop-color="#DDF0FF" offset="100%"></stop>
        </linearGradient>
        <linearGradient x1="50.0000478%" y1="100%" x2="50.0000478%" y2="38.0540751%" id="linearGradient-4">
            <stop stop-color="#87CCFF" offset="0%"></stop>
            <stop stop-color="#DDF0FF" offset="100%"></stop>
        </linearGradient>
        <linearGradient x1="50.0000478%" y1="100%" x2="50.0000478%" y2="38.0540751%" id="linearGradient-5">
            <stop stop-color="#87CCFF" offset="0%"></stop>
            <stop stop-color="#DDF0FF" offset="100%"></stop>
        </linearGradient>
    </defs>
    <g id="Page-1" stroke="none" stroke-width="1" fill="none" fill-rule="evenodd">
        <g id="Artboard-Copy" transform="translate(-3034.000000, -1687.000000)">
            <g id="icon_integration2" transform="translate(3034.000000, 1687.000000)">
                <path d="M486.5625,632.8125 C474.944063,632.8125 465.46875,623.356875 465.46875,611.71875 L465.46875,527.34375 C465.46875,515.684531 456.034219,506.25 444.375,506.25 L275.625,506.25 C263.965781,506.25 254.53125,515.684531 254.53125,527.34375 L254.53125,611.71875 C254.53125,623.356875 245.055937,632.8125 233.4375,632.8125 C221.778281,632.8125 212.34375,642.247031 212.34375,653.90625 C212.34375,665.565469 221.778281,675 233.4375,675 L486.5625,675 C498.221719,675 507.65625,665.565469 507.65625,653.90625 C507.65625,642.247031 498.221719,632.8125 486.5625,632.8125 Z" id="Shape" fill="url(#linearGradient-1)" fill-rule="nonzero"></path>
                <rect id="Rectangle" fill="url(#linearGradient-2)" x="0" y="0" width="720" height="548.4375" rx="63.28125"></rect>
                <rect id="Rectangle" fill="url(#linearGradient-3)" fill-rule="nonzero" x="195.46875" y="258.75" width="91.40625" height="203.90625" rx="14.0625"></rect>
                <rect id="Rectangle-Copy" fill="url(#linearGradient-4)" fill-rule="nonzero" x="315" y="274.21875" width="91.40625" height="188.4375" rx="14.0625"></rect>
                <rect id="Rectangle-Copy-3" fill="url(#linearGradient-5)" fill-rule="nonzero" x="434.53125" y="213.75" width="91.40625" height="248.90625" rx="14.0625"></rect>
            </g>
        </g>
    </g>
</svg>