<?xml version="1.0" encoding="UTF-8"?>
<svg width="845px" height="900px" viewBox="0 0 845 900" version="1.1" xmlns="http://www.w3.org/2000/svg" xmlns:xlink="http://www.w3.org/1999/xlink">
    <title>icon_gateway</title>
    <defs>
        <linearGradient x1="50%" y1="0%" x2="50%" y2="100%" id="linearGradient-1">
            <stop stop-color="#3C8EFF" offset="0%"></stop>
            <stop stop-color="#002FE1" offset="100%"></stop>
        </linearGradient>
        <linearGradient x1="50.0000478%" y1="100%" x2="50.0000478%" y2="38.0540751%" id="linearGradient-2">
            <stop stop-color="#87CCFF" offset="0%"></stop>
            <stop stop-color="#DDF0FF" offset="100%"></stop>
        </linearGradient>
        <linearGradient x1="50.0000478%" y1="100%" x2="50.0000478%" y2="38.0540751%" id="linearGradient-3">
            <stop stop-color="#87CCFF" offset="0%"></stop>
            <stop stop-color="#DDF0FF" offset="100%"></stop>
        </linearGradient>
        <linearGradient x1="50%" y1="0%" x2="50%" y2="100%" id="linearGradient-4">
            <stop stop-color="#3C8EFF" offset="0%"></stop>
            <stop stop-color="#002FE1" offset="100%"></stop>
        </linearGradient>
    </defs>
    <g id="Page-1" stroke="none" stroke-width="1" fill="none" fill-rule="evenodd">
        <g id="Artboard-Copy" transform="translate(-1797.000000, -1562.000000)">
            <g id="icon_gateway" transform="translate(1797.000000, 1562.000000)">
                <path d="M136.170515,261.530683 C140.373617,226.657838 172.081032,195.164138 207.081963,191.344192 L268.239533,185.104164 C349.183336,179.489629 480.529796,177.919964 561.452768,184.416876 L640.453989,191.879132 C675.39957,195.473776 706.897182,226.732415 710.65322,261.749985 L717.182447,326.8905 C722.702962,407.79855 724.160595,539.125545 717.555762,620.019569 L710.346444,695.083111 C706.691487,730.016422 675.315938,761.06428 640.29712,764.306143 L561.452768,771.120992 C480.459373,775.911772 349.037303,776.912418 268.151563,770.484223 L207.081963,764.781445 C172.121754,761.221429 140.297918,730.054947 136.161653,695.116178 L128.384919,624.784206 C122.288705,543.917256 120.795769,412.670138 128.394482,331.847551 L136.170515,261.530683 Z" id="Rectangle-14" fill="url(#linearGradient-1)" transform="translate(422.590473, 477.595261) rotate(45.000000) translate(-422.590473, -477.595261) "></path>
                <path d="M512.934497,785.266102 C516.761779,781.438825 522.967026,781.438825 526.794308,785.266102 L526.794308,785.266102 L591.733267,850.205066 C595.560544,854.032343 595.560544,860.23759 591.733267,864.064872 C587.905985,867.892149 581.700739,867.892149 577.873462,864.064872 L577.873462,864.064872 L512.934497,799.125913 C509.10722,795.298631 509.10722,789.093384 512.934497,785.266102 Z M483.53341,809.767009 C487.36069,805.939732 493.565937,805.939732 497.393219,809.767009 L497.393219,809.767009 L527.676894,840.05069 C531.504171,843.877967 531.504171,850.083213 527.676894,853.910495 C523.849612,857.737772 517.644366,857.737772 513.817089,853.910495 L513.817089,853.910495 L483.53341,823.62682 C479.706131,819.799538 479.706131,813.594291 483.53341,809.767009 Z M129.992199,120.871143 C138.091491,120.871143 144.657264,127.473251 144.657264,135.571785 L144.657264,248.279446 C144.657264,259.102669 146.418201,276.447226 148.607865,287.104479 L152.352026,305.327581 C156.16493,323.885254 159.255898,354.303361 159.255898,373.200865 L159.255898,412.401586 C159.255898,423.243533 168.046456,432.032668 178.848735,432.032668 L225.453705,432.032668 L225.453705,510.475273 L203.357532,510.435572 L161.71888,510.435572 C126.529919,510.435572 98.0036298,481.922262 98.0036298,446.694819 L98.0036298,373.223887 C98.0036298,354.283465 101.598965,324.034259 106.05166,305.587379 L110.558209,286.917389 C113.096541,276.401445 115.154265,259.12097 115.154265,248.279416 L115.154265,135.571781 C115.154265,127.452843 121.701937,120.871143 129.819331,120.871143 L129.992199,120.871143 Z" id="Combined-Shape" fill="url(#linearGradient-2)" fill-rule="nonzero"></path>
                <path d="M136.170515,261.530683 C140.373617,226.657838 172.081032,195.164138 207.081963,191.344192 L268.239533,185.104164 C349.183336,179.489629 480.529796,177.919964 561.452768,184.416876 L640.453989,191.879132 C675.39957,195.473776 706.897182,226.732415 710.65322,261.749985 L717.182447,326.8905 C722.702962,407.79855 724.160595,539.125545 717.555762,620.019569 L710.346444,695.083111 C706.691487,730.016422 675.315938,761.06428 640.29712,764.306143 L561.452768,771.120992 C480.459373,775.911772 349.037303,776.912418 268.151563,770.484223 L207.081963,764.781445 C172.121754,761.221429 140.297918,730.054947 136.161653,695.116178 L128.384919,624.784206 C122.288705,543.917256 120.795769,412.670138 128.394482,331.847551 L136.170515,261.530683 Z" id="Rectangle-14" fill="url(#linearGradient-1)" transform="translate(422.590473, 477.595261) rotate(45.000000) translate(-422.590473, -477.595261) "></path>
                <path d="M586.651206,542.460328 L586.831845,542.626503 L674.942606,627.714075 L668.134702,634.763866 L580.023941,549.676294 C578.137089,547.854182 578.017186,544.870573 579.725825,542.916343 L579.891369,542.736217 L580.066709,542.563308 C581.911402,540.831378 584.753466,540.797898 586.651206,542.460328 Z M606.251932,522.859602 L606.432571,523.025777 L694.543332,608.113349 L687.735428,615.16314 L599.624667,530.075568 C597.737815,528.253456 597.617912,525.269847 599.326551,523.315617 L599.492095,523.135491 L599.667435,522.962582 C601.512128,521.230652 604.354192,521.197172 606.251932,522.859602 Z M710.526316,454.083485 C726.764089,454.083485 739.927405,467.2468 739.927405,483.484574 C739.927405,499.722347 726.764089,512.885662 710.526316,512.885662 C694.288543,512.885662 681.125227,499.722347 681.125227,483.484574 C681.125227,467.2468 694.288543,454.083485 710.526316,454.083485 Z" id="Combined-Shape" fill="url(#linearGradient-3)" fill-rule="nonzero"></path>
                <path d="M132.3049,44.9183303 C160.721003,44.9183303 183.756806,67.954133 183.756806,96.3702359 C183.756806,100.429679 180.465977,103.720508 176.406534,103.720508 C172.34709,103.720508 169.056261,100.429679 169.056261,96.3702359 C169.056261,76.0730197 152.602116,59.6188748 132.3049,59.6188748 C112.007684,59.6188748 95.553539,76.0730197 95.553539,96.3702359 C95.553539,100.429679 92.2627099,103.720508 88.2032668,103.720508 C84.1438236,103.720508 80.8529946,100.429679 80.8529946,96.3702359 C80.8529946,67.954133 103.888797,44.9183303 132.3049,44.9183303 Z M132.3049,0.816696915 C185.077662,0.816696915 227.858439,43.5974735 227.858439,96.3702359 C227.858439,100.429679 224.56761,103.720508 220.508167,103.720508 C216.448724,103.720508 213.157895,100.429679 213.157895,96.3702359 C213.157895,51.7163599 176.958776,15.5172414 132.3049,15.5172414 C87.6510242,15.5172414 51.4519056,51.7163599 51.4519056,96.3702359 C51.4519056,100.429679 48.1610766,103.720508 44.1016334,103.720508 C40.0421902,103.720508 36.7513612,100.429679 36.7513612,96.3702359 C36.7513612,43.5974735 79.5321379,0.816696915 132.3049,0.816696915 Z" id="Combined-Shape" fill="url(#linearGradient-4)"></path>
            </g>
        </g>
    </g>
</svg>