<?xml version="1.0" encoding="UTF-8"?>
<svg width="814px" height="950px" viewBox="0 0 814 950" version="1.1" xmlns="http://www.w3.org/2000/svg" xmlns:xlink="http://www.w3.org/1999/xlink">
    <title>icon_network_server</title>
    <defs>
        <linearGradient x1="50%" y1="0%" x2="50%" y2="100%" id="linearGradient-1">
            <stop stop-color="#3C8EFF" offset="0%"></stop>
            <stop stop-color="#002FE1" offset="100%"></stop>
        </linearGradient>
        <linearGradient x1="50.0000478%" y1="100%" x2="50.0000478%" y2="38.0540751%" id="linearGradient-2">
            <stop stop-color="#87CCFF" offset="0%"></stop>
            <stop stop-color="#DDF0FF" offset="100%"></stop>
        </linearGradient>
        <linearGradient x1="50%" y1="0%" x2="50%" y2="100%" id="linearGradient-3">
            <stop stop-color="#3C8EFF" offset="0%"></stop>
            <stop stop-color="#002FE1" offset="100%"></stop>
        </linearGradient>
        <linearGradient x1="50.0000478%" y1="100%" x2="50.0000478%" y2="38.0540751%" id="linearGradient-4">
            <stop stop-color="#87CCFF" offset="0%"></stop>
            <stop stop-color="#DDF0FF" offset="100%"></stop>
        </linearGradient>
        <linearGradient x1="50%" y1="0%" x2="50%" y2="100%" id="linearGradient-5">
            <stop stop-color="#3C8EFF" offset="0%"></stop>
            <stop stop-color="#002FE1" offset="100%"></stop>
        </linearGradient>
        <linearGradient x1="50.0000478%" y1="100%" x2="50.0000478%" y2="38.0540751%" id="linearGradient-6">
            <stop stop-color="#87CCFF" offset="0%"></stop>
            <stop stop-color="#DDF0FF" offset="100%"></stop>
        </linearGradient>
        <linearGradient x1="50.0000478%" y1="100%" x2="50.0000478%" y2="38.0540751%" id="linearGradient-7">
            <stop stop-color="#87CCFF" offset="0%"></stop>
            <stop stop-color="#DDF0FF" offset="100%"></stop>
        </linearGradient>
        <linearGradient x1="50.0000478%" y1="100%" x2="50.0000478%" y2="38.0540751%" id="linearGradient-8">
            <stop stop-color="#87CCFF" offset="0%"></stop>
            <stop stop-color="#DDF0FF" offset="100%"></stop>
        </linearGradient>
        <linearGradient x1="50%" y1="0%" x2="50%" y2="100%" id="linearGradient-9">
            <stop stop-color="#3C8EFF" offset="0%"></stop>
            <stop stop-color="#002FE1" offset="100%"></stop>
        </linearGradient>
    </defs>
    <g id="Page-1" stroke="none" stroke-width="1" fill="none" fill-rule="evenodd">
        <g id="Artboard-Copy" transform="translate(-5176.000000, -1550.000000)">
            <g id="icon_network_server" transform="translate(5176.000000, 1550.000000)">
                <g id="pin-copy" transform="translate(97.018642, 248.804518) rotate(-16.000000) translate(-97.018642, -248.804518) translate(24.018642, 152.804518)">
                    <path d="M72.9872845,191.638409 C71.1465078,191.638409 69.4232593,190.736361 68.3741138,189.223839 C54.8123278,169.670733 43.0823354,154.680642 33.6572441,142.636243 C11.9545686,114.902198 1.06380687e-14,99.6250233 1.06380687e-14,72.9872845 C1.06380687e-14,32.7420958 32.7420958,-1.06380687e-14 72.9872845,-1.06380687e-14 C113.232473,-1.06380687e-14 145.974569,32.7420958 145.974569,72.9872845 C145.974569,99.5976999 133.937656,114.990905 112.085637,142.936052 C102.701344,154.937033 91.0226297,169.872477 77.6004552,189.223839 C76.5513098,190.736361 74.8280613,191.638409 72.9872845,191.638409 Z" id="Path" fill="url(#linearGradient-1)"></path>
                    <path d="M72.9872845,112.28813 C51.3167983,112.28813 33.686439,94.6577707 33.686439,72.9872845 C33.686439,51.3167983 51.3167983,33.686439 72.9872845,33.686439 C94.6577707,33.686439 112.28813,51.3167983 112.28813,72.9872845 C112.28813,94.6577707 94.6577707,112.28813 72.9872845,112.28813 Z" id="Path" fill="url(#linearGradient-2)" fill-rule="nonzero"></path>
                </g>
                <g id="signs" transform="translate(72.862520, 155.706207)">
                    <path d="M317.161566,626.837257 C146.330897,626.837257 7.84519735,488.351558 7.84519735,317.520888 C7.84519735,146.690219 146.330897,8.20451937 317.161566,8.20451937 C487.992236,8.20451937 626.477935,146.690219 626.477935,317.520888 C626.280308,488.269213 487.909891,626.63963 317.161566,626.837257 Z" id="Path" fill="url(#linearGradient-3)"></path>
                    <path d="M316.263261,0 C141.595332,0 0,141.595332 0,316.263261 C0,490.93119 141.595332,632.526522 316.263261,632.526522 C490.93119,632.526522 632.526522,490.93119 632.526522,316.263261 L632.526522,316.263261 C632.328895,141.677677 490.848846,0.197627109 316.263261,0 L316.263261,0 Z M561.799972,490.235004 C537.800256,473.373818 511.605681,459.873791 483.946869,450.110712 C495.052913,408.893483 500.887405,366.433598 501.314099,323.749136 L617.19545,323.749136 C615.768642,383.531337 596.474547,441.51543 561.799972,490.235004 Z M15.2711857,323.809024 L131.152536,323.809024 C131.598694,366.496479 137.454146,408.956364 148.579654,450.170599 C120.920841,459.932181 94.7262665,473.432208 70.7265502,490.294891 C36.0310152,441.582803 16.7159596,383.597213 15.2711857,323.809024 L15.2711857,323.809024 Z M70.7265502,142.231631 C94.7262665,159.092817 120.920841,172.592845 148.579654,182.355923 C137.475106,223.573153 131.639118,266.033038 131.212423,308.717499 L15.2711857,308.717499 C16.7159596,248.92931 36.0310152,190.943719 70.7265502,142.231631 L70.7265502,142.231631 Z M323.809024,210.442927 C373.417919,209.95934 422.679471,202.129114 469.993197,187.20677 C480.435993,226.880412 485.927631,267.694902 486.342349,308.717499 L323.809024,308.717499 L323.809024,210.442927 Z M323.809024,195.41129 L323.809024,15.4508467 C385.133314,20.1819199 438.133312,82.7039507 465.980768,172.534455 C419.986053,187.163352 372.071959,194.873804 323.809024,195.41129 Z M308.777386,195.41129 C260.494987,194.879793 212.559933,187.169341 166.545754,172.534455 C194.393211,82.7039507 247.393208,20.1819199 308.717499,15.4508467 L308.777386,195.41129 Z M308.777386,210.442927 L308.777386,308.717499 L146.184174,308.717499 C146.598891,267.694902 152.090529,226.880412 162.533325,187.20677 C209.847052,202.129114 259.108603,209.95934 308.717499,210.442927 L308.777386,210.442927 Z M146.184174,323.809024 L308.717499,323.809024 L308.717499,422.023708 C259.1101,422.507295 209.847052,430.339018 162.533325,445.259865 C152.095021,405.605686 146.603383,364.812157 146.184174,323.809024 Z M308.717499,437.115233 L308.717499,617.135563 C247.393208,612.344602 194.393211,549.822572 166.545754,459.992068 C212.54047,445.36317 260.454563,437.652718 308.717499,437.115233 Z M323.749136,437.115233 C372.031535,437.64673 419.966589,445.357181 465.980768,459.992068 C438.133312,549.822572 385.133314,612.344602 323.809024,617.075676 L323.749136,437.115233 Z M323.749136,422.083595 L323.749136,323.809024 L486.342349,323.809024 C485.927631,364.83162 480.435993,405.64611 469.993197,445.319752 C422.682465,430.377945 373.419417,422.526759 323.809024,422.023708 L323.749136,422.083595 Z M501.373986,308.717499 C500.927828,266.030043 495.072377,223.570158 483.946869,182.355923 C511.605681,172.592845 537.800256,159.092817 561.799972,142.231631 C596.474547,190.951205 615.768642,248.935298 617.19545,308.717499 L501.373986,308.717499 Z M552.816922,130.194344 C530.275454,146.00601 505.697828,158.697563 479.754778,167.923156 C459.453085,102.825984 426.155911,51.3231613 385.851958,23.296044 C451.961221,39.1002241 510.795709,76.7676516 552.816922,130.194344 Z M246.614677,23.296044 C206.310724,51.3231613 173.073438,102.885871 152.711857,167.923156 C126.768807,158.697563 102.191181,146.00601 79.6497136,130.194344 C121.670926,76.7676516 180.505415,39.1002241 246.614677,23.296044 L246.614677,23.296044 Z M79.6497136,502.392065 C102.191181,486.5804 126.768807,473.888847 152.711857,464.663254 C173.013551,529.760426 206.310724,581.263248 246.614677,609.290365 C180.518889,593.459236 121.706858,555.769351 79.7096006,502.332178 L79.6497136,502.392065 Z M385.851958,609.290365 C426.155911,581.263248 459.393198,529.700539 479.754778,464.663254 C505.696331,473.891841 530.27246,486.583394 552.816922,502.392065 C510.801698,555.784323 451.991164,593.43079 385.911845,609.230478 L385.851958,609.290365 Z" id="Shape" fill="url(#linearGradient-2)" fill-rule="nonzero"></path>
                </g>
                <g id="Group-5-Copy" transform="translate(429.190186, 589.886976)">
                    <path d="M259.011287,336.86439 C252.826456,336.86439 247.782474,331.830888 247.782474,325.635577 L247.782474,280.720325 C247.782474,274.513786 242.7602,269.491512 236.553661,269.491512 L146.723157,269.491512 C140.516617,269.491512 135.494344,274.513786 135.494344,280.720325 L135.494344,325.635577 C135.494344,331.830888 130.450361,336.86439 124.265531,336.86439 C118.058991,336.86439 113.036718,341.886664 113.036718,348.093203 C113.036718,354.299742 118.058991,359.322016 124.265531,359.322016 L259.011287,359.322016 C265.217826,359.322016 270.2401,354.299742 270.2401,348.093203 C270.2401,341.886664 265.217826,336.86439 259.011287,336.86439 Z" id="Shape" fill="url(#linearGradient-4)" fill-rule="nonzero"></path>
                    <rect id="Rectangle" fill="url(#linearGradient-5)" x="0" y="0" width="383.276817" height="291.949138" rx="33.686439"></rect>
                    <rect id="Rectangle" fill="url(#linearGradient-6)" fill-rule="nonzero" x="104.053667" y="145.475511" width="48.6581897" height="100.809788" rx="7.48587534"></rect>
                    <rect id="Rectangle-Copy" fill="url(#linearGradient-7)" fill-rule="nonzero" x="167.683608" y="131.501877" width="48.6581897" height="114.783422" rx="7.48587534"></rect>
                    <rect id="Rectangle-Copy-3" fill="url(#linearGradient-8)" fill-rule="nonzero" x="231.313548" y="138.488694" width="48.6581897" height="107.796605" rx="7.48587534"></rect>
                </g>
                <g id="pin" transform="translate(591.118287, 155.975304) rotate(15.000000) translate(-591.118287, -155.975304) translate(503.118287, 40.975304)">
                    <path d="M87.5847414,229.96609 C85.3758093,229.96609 83.3079111,228.883633 82.0489366,227.068607 C65.7747934,203.60488 51.6988025,185.61677 40.3886929,171.163492 C14.3454823,137.882637 1.27656824e-14,119.550028 1.27656824e-14,87.5847414 C1.27656824e-14,39.290515 39.290515,-1.27656824e-14 87.5847414,-1.27656824e-14 C135.878968,-1.27656824e-14 175.169483,39.290515 175.169483,87.5847414 C175.169483,119.51724 160.725187,137.989086 134.502765,171.523263 C123.241613,185.92444 109.227156,203.846973 93.1205462,227.068607 C91.8615717,228.883633 89.7936735,229.96609 87.5847414,229.96609 Z" id="Path" fill="url(#linearGradient-9)"></path>
                    <path d="M87.5847414,134.745756 C61.580158,134.745756 40.4237268,113.589325 40.4237268,87.5847414 C40.4237268,61.580158 61.580158,40.4237268 87.5847414,40.4237268 C113.589325,40.4237268 134.745756,61.580158 134.745756,87.5847414 C134.745756,113.589325 113.589325,134.745756 87.5847414,134.745756 Z" id="Path" fill="url(#linearGradient-2)" fill-rule="nonzero"></path>
                </g>
                <path d="M463.621279,22.9566844 C449.916886,22.9566844 436.294347,23.6297033 422.786618,24.9665999 C420.316005,25.2111232 418.512136,27.4047963 418.757563,29.8663058 C419.002991,32.3278154 421.204777,34.1250379 423.67539,33.8805146 C436.88789,32.5728376 450.213808,31.9144731 463.621279,31.9144731 C466.104052,31.9144731 468.116738,29.9092038 468.116738,27.4355787 C468.116738,24.9619537 466.104052,22.9566844 463.621279,22.9566844 Z M369.004291,33.9391126 C355.706167,37.0838123 342.601958,40.8903456 329.73185,45.3407005 C327.386328,46.1517586 326.144831,48.7036663 326.958888,51.0405457 C327.772946,53.3774252 330.334292,54.6143478 332.679814,53.8032896 C345.264239,49.451721 358.077545,45.7296897 371.080615,42.6547635 C373.496277,42.0835152 374.989756,39.6693621 374.416395,37.2626015 C373.843034,34.855841 371.419953,33.3678643 369.004291,33.9391126 Z M279.554761,66.5551451 C267.38107,72.6931914 255.526673,79.4367939 244.034546,86.7574081 C241.942776,88.0898891 241.331246,90.8595446 242.668655,92.9436069 C244.006064,95.0276691 246.785963,95.6369461 248.877733,94.3044651 C260.116683,87.1451274 271.709633,80.5502538 283.614534,74.547733 C285.829789,73.4307885 286.716797,70.7361243 285.595721,68.5290321 C284.474646,66.32194 281.770016,65.4382006 279.554761,66.5551451 Z M200.133142,119.022777 C191.434909,126.354283 183.045745,134.044495 174.988997,142.071556 C173.233411,143.820673 173.233411,146.656552 174.988997,148.405669 C176.744583,150.154786 179.590951,150.154786 181.346536,148.405669 C189.226899,140.554343 197.43238,133.032511 205.940102,125.861582 C207.83557,124.263943 208.072218,121.437882 206.468671,119.549398 C204.865123,117.660915 202.02861,117.425138 200.133142,119.022777 Z" id="Path" fill="#1956ED" fill-rule="nonzero" transform="translate(320.894523, 86.337096) rotate(9.000000) translate(-320.894523, -86.337096) "></path>
            </g>
        </g>
    </g>
</svg>