<?xml version="1.0" encoding="UTF-8"?>
<svg width="936px" height="650px" viewBox="0 0 936 650" version="1.1" xmlns="http://www.w3.org/2000/svg" xmlns:xlink="http://www.w3.org/1999/xlink">
    <title>icon_device</title>
    <defs>
        <linearGradient x1="50%" y1="0%" x2="50%" y2="100%" id="linearGradient-1">
            <stop stop-color="#3C8EFF" offset="0%"></stop>
            <stop stop-color="#002FE1" offset="100%"></stop>
        </linearGradient>
        <linearGradient x1="50.0000478%" y1="100%" x2="50.0000478%" y2="38.0540751%" id="linearGradient-2">
            <stop stop-color="#87CCFF" offset="0%"></stop>
            <stop stop-color="#DDF0FF" offset="100%"></stop>
        </linearGradient>
    </defs>
    <g id="Page-1" stroke="none" stroke-width="1" fill="none" fill-rule="evenodd">
        <g id="Artboard-Copy" transform="translate(-453.000000, -1687.000000)">
            <g id="icon_device" transform="translate(453.000000, 1687.000000)">
                <g id="Group" transform="translate(467.996745, 324.786957) rotate(-11.000000) translate(-467.996745, -324.786957) translate(39.996745, 77.286957)">
                    <path d="M56.0860733,486.072188 C56.0643434,490.694084 59.8320875,494.440866 64.4412294,494.440866 L783.840601,494.440866 C788.4768,494.440866 792.310139,490.682328 792.402001,486.076273 L793.241984,443.958549 C793.288245,441.638934 794.678612,438.409638 796.274967,436.81799 L849.391147,383.858376 C852.674983,380.584224 855.337055,374.225872 855.337055,369.58205 L855.337055,124.248783 C855.337055,119.638338 852.665584,113.23724 849.439599,110.020764 L797.929377,58.6623784 C796.298957,57.0367627 794.940954,53.8764777 794.89527,51.5567306 L794.051119,8.69313562 C793.960298,4.08137945 790.104737,0.342812432 785.499862,0.342812432 L66.7665517,0.342812432 C62.1346466,0.342812432 58.3619766,4.10594422 58.3402297,8.71149327 L56.0860733,486.072188 Z" id="Path-34" fill="url(#linearGradient-1)"></path>
                    <path d="M743.187618,359.196292 C756.071358,359.196292 766.570913,369.584927 766.570913,382.477855 L766.570913,424.462991 C766.570913,437.345133 756.097338,447.744552 743.187618,447.744552 L308.510277,447.744552 C295.626539,447.744552 285.126985,437.355916 285.126985,424.462991 L285.126985,382.477855 C285.126985,369.595713 295.600561,359.196292 308.510277,359.196292 L743.187618,359.196292 Z M156.648133,387.158901 C168.230624,387.158901 177.620089,396.548366 177.620089,408.130857 C177.620089,419.713349 168.230624,429.102814 156.648133,429.102814 L119.130427,429.102814 C107.547935,429.102814 98.1584704,419.713349 98.1584704,408.130857 C98.1584704,396.548366 107.547935,387.158901 119.130427,387.158901 L156.648133,387.158901 Z M743.187618,377.838031 L308.510277,377.838031 C305.902438,377.838031 303.823837,379.915351 303.823837,382.477855 L303.823837,424.462991 C303.823837,427.029679 305.922028,429.102814 308.510277,429.102814 L743.187618,429.102814 C745.795459,429.102814 747.874059,427.025494 747.874059,424.462991 L747.874059,382.477855 C747.874059,379.911165 745.775868,377.838031 743.187618,377.838031 Z M338.880433,396.47977 C342.752678,396.47977 345.891753,399.609592 345.891753,403.470423 C345.891753,407.331253 342.752678,410.461075 338.880433,410.461075 C335.008189,410.461075 331.869114,407.331253 331.869114,403.470423 C331.869114,399.609592 335.008189,396.47977 338.880433,396.47977 Z M385.622562,396.47977 C389.494807,396.47977 392.633881,399.609592 392.633881,403.470423 C392.633881,407.331253 389.494807,410.461075 385.622562,410.461075 C381.750317,410.461075 378.611243,407.331253 378.611243,403.470423 C378.611243,399.609592 381.750317,396.47977 385.622562,396.47977 Z M432.364693,396.47977 C436.236937,396.47977 439.376012,399.609592 439.376012,403.470423 C439.376012,407.331253 436.236937,410.461075 432.364693,410.461075 C428.492448,410.461075 425.353373,407.331253 425.353373,403.470423 C425.353373,399.609592 428.492448,396.47977 432.364693,396.47977 Z M479.106821,396.47977 C482.979066,396.47977 486.11814,399.609592 486.11814,403.470423 C486.11814,407.331253 482.979066,410.461075 479.106821,410.461075 C475.234576,410.461075 472.095502,407.331253 472.095502,403.470423 C472.095502,399.609592 475.234576,396.47977 479.106821,396.47977 Z M525.848949,396.47977 C529.721194,396.47977 532.860268,399.609592 532.860268,403.470423 C532.860268,407.331253 529.721194,410.461075 525.848949,410.461075 C521.976704,410.461075 518.83763,407.331253 518.83763,403.470423 C518.83763,399.609592 521.976704,396.47977 525.848949,396.47977 Z M572.591077,396.47977 C576.463322,396.47977 579.602396,399.609592 579.602396,403.470423 C579.602396,407.331253 576.463322,410.461075 572.591077,410.461075 C568.718832,410.461075 565.579758,407.331253 565.579758,403.470423 C565.579758,399.609592 568.718832,396.47977 572.591077,396.47977 Z M619.333205,396.47977 C623.20545,396.47977 626.344525,399.609592 626.344525,403.470423 C626.344525,407.331253 623.20545,410.461075 619.333205,410.461075 C615.460961,410.461075 612.321886,407.331253 612.321886,403.470423 C612.321886,399.609592 615.460961,396.47977 619.333205,396.47977 Z M666.075333,396.47977 C669.947578,396.47977 673.086653,399.609592 673.086653,403.470423 C673.086653,407.331253 669.947578,410.461075 666.075333,410.461075 C662.203089,410.461075 659.064014,407.331253 659.064014,403.470423 C659.064014,399.609592 662.203089,396.47977 666.075333,396.47977 Z M712.817462,396.47977 C716.689706,396.47977 719.828781,399.609592 719.828781,403.470423 C719.828781,407.331253 716.689706,410.461075 712.817462,410.461075 C708.945217,410.461075 705.806142,407.331253 705.806142,403.470423 C705.806142,399.609592 708.945217,396.47977 712.817462,396.47977 Z M112.172777,224.043683 C125.084861,224.043683 135.552173,235.506683 135.552173,249.651741 L135.552173,300.96519 C135.552173,315.10813 125.084621,326.573248 112.172777,326.573248 L23.3793967,326.573248 C10.4673124,326.573248 -3.67748498e-10,315.110248 -3.67748498e-10,300.96519 L-3.67748498e-10,249.651741 C-3.67748498e-10,235.508801 10.4675518,224.043683 23.3793967,224.043683 L112.172777,224.043683 Z M254.806603,233.364552 C266.389095,233.364552 275.778559,242.754017 275.778559,254.336509 C275.778559,265.919001 266.389095,275.308465 254.806603,275.308465 L217.288897,275.308465 C205.706406,275.308465 196.316941,265.919001 196.316941,254.336509 C196.316941,242.754017 205.706406,233.364552 217.288897,233.364552 L254.806603,233.364552 Z M112.172777,88.8910737 C125.084861,88.8910737 135.552173,100.354074 135.552173,114.499131 L135.552173,165.812581 C135.552173,179.955521 125.084621,191.420639 112.172777,191.420639 L23.3793967,191.420639 C10.4673124,191.420639 -3.75024456e-10,179.957639 -3.75024456e-10,165.812581 L-3.75024456e-10,114.499131 C-3.75024456e-10,100.356192 10.4675518,88.8910737 23.3793967,88.8910737 L112.172777,88.8910737 Z M757.194119,74.9097692 C762.37278,74.9097692 766.570913,79.0958295 766.570913,84.1877402 L766.570913,158.840494 C766.570913,163.964576 762.38967,168.118465 757.194119,168.118465 L425.381741,168.118465 C420.20308,168.118465 416.004946,163.932405 416.004946,158.840494 L416.004946,84.1877402 C416.004946,79.0636584 420.186185,74.9097692 425.381741,74.9097692 L757.194119,74.9097692 Z M231.373537,88.8910734 C250.734761,88.8910734 266.430134,104.540181 266.430134,123.844334 C266.430134,143.148487 250.734761,158.797595 231.373537,158.797595 C212.012314,158.797595 196.316941,143.148487 196.316941,123.844334 C196.316941,104.540181 212.012314,88.8910734 231.373537,88.8910734 Z M324.857795,88.8910734 C344.219019,88.8910734 359.914392,104.540181 359.914392,123.844334 C359.914392,143.148487 344.219019,158.797595 324.857795,158.797595 C305.496571,158.797595 289.801198,143.148487 289.801198,123.844334 C289.801198,104.540181 305.496571,88.8910734 324.857795,88.8910734 Z" id="Combined-Shape" fill="url(#linearGradient-2)" fill-rule="nonzero"></path>
                </g>
            </g>
        </g>
    </g>
</svg>