<?xml version="1.0" encoding="UTF-8"?>
<svg width="874px" height="844px" viewBox="0 0 874 844" version="1.1" xmlns="http://www.w3.org/2000/svg" xmlns:xlink="http://www.w3.org/1999/xlink">
    <title>logo_TTI</title>
    <defs>
        <linearGradient x1="36.8370843%" y1="33.18%" x2="71.8997835%" y2="66.82%" id="linearGradient-1">
            <stop stop-color="#006CFF" offset="0%"></stop>
            <stop stop-color="#0040E5" offset="100%"></stop>
        </linearGradient>
    </defs>
    <g id="Page-1" stroke="none" stroke-width="1" fill="none" fill-rule="evenodd">
        <g id="Artboard-Copy-25" transform="translate(-10828.000000, -9575.000000)">
            <g id="logo_TTI" transform="translate(10828.000000, 9575.000000)">
                <path d="M301.152988,736.821903 C304.217994,736.821903 306.716167,739.248797 306.830704,742.28578 L306.834807,742.503721 L306.834807,800.929757 C306.834807,814.00719 310.953429,820.403761 320.468866,820.403761 C329.464534,820.403761 333.730521,815.948392 333.817523,801.525858 L333.818882,801.071903 L333.818882,742.503721 C333.818882,739.438716 336.245776,736.940542 339.28276,736.826006 L339.5007,736.821903 L354.979118,736.821903 C358.044123,736.821903 360.542297,739.248797 360.656833,742.28578 L360.660936,742.503721 L360.660936,801.214049 C360.660936,812.159292 358.956679,820.403761 355.406142,826.089602 C348.447091,837.319137 336.659311,844 320.752909,844 C311.947579,844 304.420442,842.294248 298.31352,838.740597 C286.081212,831.563645 280.11269,821.878981 279.994543,801.962853 L279.992753,801.356195 L279.992753,742.503721 C279.992753,739.438716 282.419647,736.940542 285.45663,736.826006 L285.674571,736.821903 L301.152988,736.821903 Z M421.483718,734.831858 C428.442769,734.831858 434.549691,736.395465 440.088528,739.238385 C450.489812,744.641255 455.886724,752.243093 456.73188,764.535483 L456.764883,765.057678 L456.76779,765.124866 L456.768759,765.192109 C456.768759,766.427093 455.809321,767.437988 454.595156,767.520062 L454.4354,767.525442 L432.574077,767.525442 C431.349254,767.525461 430.278421,766.72025 429.929559,765.560343 L429.884694,765.392277 L429.803086,765.055007 C428.385183,759.391464 425.407828,757.290929 420.773611,757.290929 C415.80286,757.290929 411.542216,760.84458 411.542216,765.535398 C411.542216,771.789823 417.223074,774.632743 428.726812,779.607854 C451.876308,789.558075 457.699188,797.94469 457.699188,811.732854 C457.699188,832.059735 443.781085,844 421.057654,844 C398.420855,844 383.439793,832.297346 383.142436,810.133355 L383.137927,809.458518 L383.143174,809.302803 C383.219715,808.170804 384.124549,807.26597 385.256548,807.189428 L385.412263,807.184181 L407.983892,807.184181 C408.943311,807.184175 409.751738,807.879365 409.908396,808.810424 L409.928385,808.967706 L409.962544,809.330324 C410.722253,816.781207 414.808388,821.540929 420.915632,821.540929 C426.454469,821.540929 430.999155,817.134403 430.999155,811.448562 C430.999155,805.140101 424.409825,801.485769 417.094381,798.428616 L416.384365,798.134558 L416.384365,798.134558 L415.692651,797.85258 C415.577163,797.805822 415.461588,797.759178 415.345949,797.712641 L414.651525,797.434629 C414.419914,797.342341 414.188226,797.250416 413.956641,797.158789 L413.262373,796.884743 C413.031172,796.793652 412.800254,796.702796 412.569798,796.612114 L411.879992,796.340524 C411.19193,796.069327 410.509637,795.799122 409.837959,795.528208 C392.653364,788.563053 384.842184,779.465708 384.842184,765.81969 C384.842184,747.909292 402.168801,734.831858 421.483718,734.831858 Z M837.532889,734.831858 C844.49194,734.831858 850.598863,736.395465 856.137699,739.238385 C866.538984,744.641255 871.935895,752.243093 872.781051,764.535483 L872.814054,765.057678 L872.816961,765.124866 L872.81793,765.192109 C872.81793,766.427093 871.858493,767.437988 870.644327,767.520062 L870.484571,767.525442 L848.623248,767.525442 C847.398425,767.525461 846.327592,766.72025 845.97873,765.560343 L845.933865,765.392277 L845.852257,765.055007 C844.434354,759.391464 841.457,757.290929 836.822782,757.290929 C831.852031,757.290929 827.591388,760.84458 827.591388,765.535398 C827.591388,771.789823 833.272246,774.632743 844.775983,779.607854 C867.925479,789.558075 873.748359,797.94469 873.748359,811.732854 C873.748359,832.059735 859.830257,844 837.106825,844 C814.470026,844 799.488964,832.297346 799.191607,810.133355 L799.187098,809.458518 L799.192345,809.302803 C799.268886,808.170804 800.173721,807.26597 801.305719,807.189428 L801.461434,807.184181 L824.033063,807.184181 C824.992483,807.184175 825.800909,807.879365 825.957568,808.810424 L825.977557,808.967706 L826.011715,809.330324 C826.771425,816.781207 830.857559,821.540929 836.964803,821.540929 C842.50364,821.540929 847.048326,817.134403 847.048326,811.448562 C847.048326,805.3436 840.877258,801.724294 833.849035,798.726403 L833.143552,798.428616 C832.90757,798.329998 832.670833,798.232002 832.433536,798.134558 L831.741823,797.85258 C831.16438,797.618791 830.584775,797.387856 830.005812,797.158789 L829.311544,796.884743 C828.155542,796.429286 827.006594,795.979731 825.88713,795.528208 C808.702535,788.563053 800.891355,779.465708 800.891355,765.81969 C800.891355,747.909292 818.217972,734.831858 837.532889,734.831858 Z M21.3473336,736.831858 C24.4853151,736.831858 27.0291518,739.375695 27.0291518,742.513677 L27.0291518,742.513677 L27.0291518,836.338093 C27.0291518,839.476075 24.4853151,842.019912 21.3473336,842.019912 L21.3473336,842.019912 L5.868916,842.019912 C2.73093447,842.019912 0.187097823,839.476075 0.187097823,836.338093 L0.187097823,836.338093 L0.187097823,742.513677 C0.187097823,739.375695 2.73093447,736.831858 5.868916,736.831858 L5.868916,736.831858 Z M771.360983,736.821903 C774.425988,736.821903 776.924162,739.248797 777.038699,742.28578 L777.042801,742.503721 L777.042801,754.736323 C777.042801,757.801329 774.615907,760.299502 771.578924,760.414039 L771.360983,760.418142 L744.377868,760.418142 L744.377868,776.764934 L770.366833,776.764934 C773.431838,776.764934 775.930012,779.191828 776.044548,782.228811 L776.048651,782.446752 L776.048651,794.679354 C776.048651,797.74436 773.621757,800.242533 770.584774,800.35707 L770.366833,800.361173 L744.377868,800.361173 L744.377868,818.413717 L771.360983,818.413717 C774.425988,818.413717 776.924162,820.840611 777.038699,823.877595 L777.042801,824.095535 L777.042801,836.328138 C777.042801,839.393143 774.615907,841.891316 771.578924,842.005853 L771.360983,842.009956 L724.353804,842.009956 C721.288799,842.009956 718.790625,839.583061 718.676089,836.546078 L718.671986,836.328138 L718.671986,742.503721 C718.671986,739.438716 721.09888,736.940542 724.135863,736.826006 L724.353804,736.821903 L771.360983,736.821903 Z M72.7139488,736.821903 C74.6878123,736.821903 76.5202422,737.846326 77.5540812,739.527788 L77.5540812,739.527788 L116.792558,803.346239 L115.755083,742.600747 C115.754531,742.568408 115.754255,742.536065 115.754255,742.503721 C115.754255,739.365739 118.298091,736.821903 121.436073,736.821903 L121.436073,736.821903 L135.68045,736.821903 C138.818432,736.821903 141.362268,739.365739 141.362268,742.503721 L141.362268,742.503721 L141.362268,836.328138 C141.362268,839.466119 138.818432,842.009956 135.68045,842.009956 L135.68045,842.009956 L121.212507,842.009956 C119.257489,842.009956 117.439782,841.004856 116.40033,839.349068 L116.40033,839.349068 L77.7366591,777.759956 L78.3832754,836.265345 L78.3832754,836.265345 L78.3836224,836.328138 C78.3836224,839.466119 75.8397858,842.009956 72.7018042,842.009956 L72.7018042,842.009956 L58.4227022,842.009956 C55.2847206,842.009956 52.740884,839.466119 52.740884,836.328138 L52.740884,836.328138 L52.740884,742.503721 C52.740884,739.365739 55.2847206,736.821903 58.4227022,736.821903 L58.4227022,736.821903 Z M205.585213,736.821903 C218.651186,736.821903 229.018752,739.096239 236.403867,743.218473 C251.31612,751.747235 260.689535,767.951881 260.689535,789.415929 C260.689535,824.099558 240.238447,842.009956 207.431492,842.009956 L207.431492,842.009956 L175.477626,842.009956 C172.339644,842.009956 169.795808,839.466119 169.795808,836.328138 L169.795808,836.328138 L169.795808,742.503721 C169.795808,739.365739 172.339644,736.821903 175.477626,736.821903 L175.477626,736.821903 Z M537.541029,736.821903 C540.67901,736.821903 543.222847,739.365739 543.222847,742.503721 L543.222847,742.503721 L543.222847,754.736323 C543.222847,757.874305 540.67901,760.418142 537.541029,760.418142 L537.541029,760.418142 L522.629737,760.418142 L522.629737,836.328138 C522.629737,839.466119 520.0859,842.009956 516.947919,842.009956 L516.947919,842.009956 L501.469501,842.009956 C498.331519,842.009956 495.787683,839.466119 495.787683,836.328138 L495.787683,836.328138 L495.787683,760.418142 L480.734369,760.418142 C477.596388,760.418142 475.052551,757.874305 475.052551,754.736323 L475.052551,754.736323 L475.052551,742.503721 C475.052551,739.365739 477.596388,736.821903 480.734369,736.821903 L480.734369,736.821903 Z M598.080728,736.821903 C609.01638,736.821903 617.395645,738.243363 622.934482,740.659845 C634.296198,745.777102 642.249399,758.143805 642.249399,773.069137 C642.249399,789.700221 632.307897,803.346239 616.117452,806.189159 C627.292032,820.211369 635.672967,830.728026 641.260257,837.739131 L641.260257,837.739131 L641.37771,837.898456 C641.673973,838.333715 641.83372,838.849331 641.83372,839.378882 C641.83372,840.831984 640.655748,842.009956 639.202646,842.009956 L639.202646,842.009956 L616.909744,842.009956 C615.075549,842.009956 613.354167,841.124511 612.287501,839.632367 L612.287501,839.632367 L589.701462,808.037058 L589.41742,808.037058 L589.41742,836.328138 C589.41742,839.466119 586.873583,842.009956 583.735601,842.009956 L583.735601,842.009956 L569.393355,842.009956 C566.255374,842.009956 563.711537,839.466119 563.711537,836.328138 L563.711537,836.328138 L563.711537,742.503721 C563.711537,739.365739 566.255374,736.821903 569.393355,736.821903 L569.393355,736.821903 Z M686.278435,736.821903 C689.416417,736.821903 691.960253,739.365739 691.960253,742.503721 L691.960253,742.503721 L691.960253,836.328138 C691.960253,839.466119 689.416417,842.009956 686.278435,842.009956 L686.278435,842.009956 L670.800018,842.009956 C667.662036,842.009956 665.1182,839.466119 665.1182,836.328138 L665.1182,836.328138 L665.1182,742.503721 C665.1182,739.365739 667.662036,736.821903 670.800018,736.821903 L670.800018,736.821903 Z M208.851706,760.418142 L196.637862,760.418142 L196.637862,818.413717 L208.709685,818.413717 C224.190023,818.413717 233.847481,808.747788 233.847481,789.558075 C233.847481,770.794801 224.332044,760.418142 208.851706,760.418142 L208.851706,760.418142 Z M599.628762,760.418142 L589.403217,760.418142 L589.403217,789.700221 L599.344719,789.700221 C609.996328,789.700221 616.529314,784.725111 616.529314,774.632743 C616.529314,765.535398 609.712285,760.418142 599.628762,760.418142 L599.628762,760.418142 Z M730.132272,587 C752.162834,587 773.458179,600.858731 781.156622,619.804349 L781.385733,620.380007 L781.454915,620.579142 C781.537132,620.847625 781.5791,621.127223 781.5791,621.408792 C781.5791,622.915699 780.402755,624.147855 778.918268,624.237083 L778.745663,624.242257 L755.671264,624.242257 C753.793497,624.242257 752.036998,623.314509 750.978405,621.763577 C750.725487,621.393031 750.50051,621.078995 750.303475,620.82147 C745.295402,614.275895 738.09407,610.596239 729.422164,610.596239 C712.521612,610.596239 700.733832,624.242257 700.733832,641.157633 C700.733832,658.641593 711.811505,672.714049 729.564186,672.714049 C741.913289,672.714049 751.21187,666.746434 754.582731,656.182501 L754.701982,655.798673 L728.99706,655.798673 C725.932055,655.798673 723.433881,653.371778 723.319345,650.334795 L723.315242,650.116854 L723.315242,640.016442 C723.315242,636.951437 725.742137,634.453263 728.77912,634.338727 L728.99706,634.334624 L780.122862,634.334624 C783.187867,634.334624 785.686041,636.761518 785.800577,639.798502 L785.80468,640.016442 L785.80468,640.304757 C785.80468,668.591814 765.069548,696.310288 729.706207,696.310288 C698.60351,696.310288 673.891778,672.003319 673.891778,641.157633 C673.891778,609.316925 699.59766,587 730.132272,587 Z M837.78453,587 C844.743581,587 850.850504,588.563606 856.38934,591.406527 C866.790625,596.809396 872.187536,604.411235 873.032692,616.703624 L873.065696,617.22582 L873.068602,617.293007 L873.069571,617.36025 C873.069571,618.595234 872.110134,619.606129 870.895968,619.688204 L870.736212,619.693584 L848.874889,619.693584 C847.650066,619.693603 846.579233,618.888392 846.230371,617.728484 L846.185507,617.560419 L846.103899,617.223149 C844.685995,611.559605 841.708641,609.459071 837.074423,609.459071 C832.103672,609.459071 827.843029,613.012721 827.843029,617.70354 C827.843029,623.957965 833.523887,626.800885 845.027624,631.775996 C868.177121,641.726217 874,650.112832 874,663.900996 C874,684.227876 860.081898,696.168142 837.358466,696.168142 C814.721667,696.168142 799.740606,684.465487 799.443248,662.301496 L799.438739,661.626659 L799.443986,661.470944 C799.520527,660.338946 800.425362,659.434111 801.55736,659.35757 L801.713075,659.352323 L824.284704,659.352323 C825.244124,659.352316 826.052551,660.047507 826.209209,660.978566 L826.229198,661.135848 L826.263356,661.498466 C827.023066,668.949348 831.109201,673.709071 837.216445,673.709071 C842.755281,673.709071 847.299968,669.302544 847.299968,663.616704 C847.299968,657.308242 840.710638,653.653911 833.395194,650.596758 L832.685177,650.3027 L832.685177,650.3027 L831.993464,650.020721 C831.877975,649.973964 831.7624,649.92732 831.646761,649.880783 L830.952338,649.602771 C830.720727,649.510483 830.489039,649.418557 830.257453,649.326931 L829.563185,649.052885 C829.331985,648.961793 829.101067,648.870938 828.87061,648.780256 L828.180804,648.508665 C827.492742,648.237468 826.810449,647.967263 826.138772,647.69635 C808.954176,640.731195 801.142996,631.63385 801.142996,617.987832 C801.142996,600.077434 818.469613,587 837.78453,587 Z M62.4884776,588.990044 C65.5534828,588.990044 68.0516564,591.416939 68.1661929,594.453922 L68.1702957,594.671862 L68.1702957,606.904465 C68.1702957,609.96947 65.7434013,612.467644 62.706418,612.58218 L62.4884776,612.586283 L47.5771856,612.586283 L47.5771856,688.496279 C47.5771856,691.561284 45.1502911,694.059458 42.1133078,694.173994 L41.8953674,694.178097 L26.4169498,694.178097 C23.3519446,694.178097 20.8537709,691.751203 20.7392345,688.71422 L20.7351316,688.496279 L20.7351316,612.586283 L5.68181818,612.586283 C2.61681296,612.586283 0.118639317,610.159389 0.00410284926,607.122405 L0,606.904465 L0,594.671862 C-2.1104011e-15,591.606857 2.42689446,589.108684 5.46387776,588.994147 L5.68181818,588.990044 L62.4884776,588.990044 Z M105.80502,588.990044 C108.870025,588.990044 111.368199,591.416939 111.482735,594.453922 L111.486838,594.671862 L111.486838,628.506637 L145.856029,628.506637 L145.856029,594.671862 C145.856029,591.606857 148.282923,589.108684 151.319906,588.994147 L151.537847,588.990044 L167.016264,588.990044 C170.08127,588.990044 172.579443,591.416939 172.69398,594.453922 L172.698083,594.671862 L172.698083,688.496279 C172.698083,691.561284 170.271188,694.059458 167.234205,694.173994 L167.016264,694.178097 L151.537847,694.178097 C148.472842,694.178097 145.974668,691.751203 145.860131,688.71422 L145.856029,688.496279 L145.856029,652.102876 L111.486838,652.102876 L111.486838,688.496279 C111.486838,691.561284 109.059943,694.059458 106.02296,694.173994 L105.80502,694.178097 L90.3266021,694.178097 C87.2615968,694.178097 84.7634232,691.751203 84.6488867,688.71422 L84.6447839,688.496279 L84.6447839,594.671862 C84.6447839,591.606857 87.0716783,589.108684 90.1086616,588.994147 L90.3266021,588.990044 L105.80502,588.990044 Z M250.098812,588.990044 C253.163818,588.990044 255.661991,591.416939 255.776528,594.453922 L255.78063,594.671862 L255.78063,606.904465 C255.78063,609.96947 253.353736,612.467644 250.316753,612.58218 L250.098812,612.586283 L223.115697,612.586283 L223.115697,628.933075 L249.104662,628.933075 C252.169667,628.933075 254.667841,631.35997 254.782377,634.396953 L254.78648,634.614893 L254.78648,646.847496 C254.78648,649.912501 252.359586,652.410675 249.322603,652.525211 L249.104662,652.529314 L223.115697,652.529314 L223.115697,670.581858 L250.098812,670.581858 C253.163818,670.581858 255.661991,673.008753 255.776528,676.045736 L255.78063,676.263677 L255.78063,688.496279 C255.78063,691.561284 253.353736,694.059458 250.316753,694.173994 L250.098812,694.178097 L203.091633,694.178097 C200.026628,694.178097 197.528454,691.751203 197.413918,688.71422 L197.409815,688.496279 L197.409815,594.671862 C197.409815,591.606857 199.836709,589.108684 202.873693,588.994147 L203.091633,588.990044 L250.098812,588.990044 Z M378.486203,588.990044 C381.551208,588.990044 384.049381,591.416939 384.163918,594.453922 L384.168021,594.671862 L384.168021,606.904465 C384.168021,609.96947 381.741126,612.467644 378.704143,612.58218 L378.486203,612.586283 L363.574911,612.586283 L363.574911,688.496279 C363.574911,691.561284 361.148016,694.059458 358.111033,694.173994 L357.893092,694.178097 L342.414675,694.178097 C339.34967,694.178097 336.851496,691.751203 336.73696,688.71422 L336.732857,688.496279 L336.732857,612.586283 L321.679543,612.586283 C318.614538,612.586283 316.116364,610.159389 316.001828,607.122405 L315.997725,606.904465 L315.997725,594.671862 C315.997725,591.606857 318.42462,589.108684 321.461603,588.994147 L321.679543,588.990044 L378.486203,588.990044 Z M421.802745,588.990044 C424.86775,588.990044 427.365924,591.416939 427.48046,594.453922 L427.484563,594.671862 L427.484563,628.506637 L461.853754,628.506637 L461.853754,594.671862 C461.853754,591.606857 464.280648,589.108684 467.317631,588.994147 L467.535572,588.990044 L483.013989,588.990044 C486.078995,588.990044 488.577168,591.416939 488.691705,594.453922 L488.695808,594.671862 L488.695808,688.496279 C488.695808,691.561284 486.268913,694.059458 483.23193,694.173994 L483.013989,694.178097 L467.535572,694.178097 C464.470567,694.178097 461.972393,691.751203 461.857857,688.71422 L461.853754,688.496279 L461.853754,652.102876 L427.484563,652.102876 L427.484563,688.496279 C427.484563,691.561284 425.057668,694.059458 422.020685,694.173994 L421.802745,694.178097 L406.324327,694.178097 C403.259322,694.178097 400.761148,691.751203 400.646612,688.71422 L400.642509,688.496279 L400.642509,594.671862 C400.642509,591.606857 403.069403,589.108684 406.106387,588.994147 L406.324327,588.990044 L421.802745,588.990044 Z M534.567776,588.990044 C537.632781,588.990044 540.130954,591.416939 540.245491,594.453922 L540.249594,594.671862 L540.249594,688.496279 C540.249594,691.561284 537.822699,694.059458 534.785716,694.173994 L534.567776,694.178097 L519.089358,694.178097 C516.024353,694.178097 513.526179,691.751203 513.411643,688.71422 L513.40754,688.496279 L513.40754,594.671862 C513.40754,591.606857 515.834434,589.108684 518.871418,588.994147 L519.089358,588.990044 L534.567776,588.990044 Z M584.934391,588.990044 C586.82601,588.990044 588.587736,589.930878 589.641182,591.489196 L589.774523,591.69593 L629.013,655.514381 L627.975525,594.768888 C627.974973,594.736549 627.974697,594.704206 627.974697,594.671862 C627.974697,591.606857 630.401591,589.108684 633.438574,588.994147 L633.656515,588.990044 L647.900892,588.990044 C650.965897,588.990044 653.464071,591.416939 653.578608,594.453922 L653.58271,594.671862 L653.58271,688.496279 C653.58271,691.561284 651.155816,694.059458 648.118833,694.173994 L647.900892,694.178097 L633.432949,694.178097 C631.562931,694.178097 629.818545,693.258498 628.760714,691.729462 L628.620772,691.517209 L589.957101,629.928097 L590.603717,688.433486 C590.603949,688.454416 590.604064,688.475348 590.604064,688.496279 C590.604064,691.561284 588.17717,694.059458 585.140187,694.173994 L584.922246,694.178097 L570.643144,694.178097 C567.578139,694.178097 565.079965,691.751203 564.965429,688.71422 L564.961326,688.496279 L564.961326,594.671862 C564.961326,591.606857 567.38822,589.108684 570.425204,588.994147 L570.643144,588.990044 L584.934391,588.990044 Z" id="wording" fill="#000000" fill-rule="nonzero"></path>
                <g id="columns" fill="url(#linearGradient-1)">
                    <path d="M806.993333,209.76 C844.000093,209.76 874,239.759907 874,276.766667 L874,439.913333 C874,476.920093 844.000093,506.92 806.993333,506.92 C769.986573,506.92 739.986667,476.920093 739.986667,439.913333 L739.986667,276.766667 C739.986667,239.759907 769.986573,209.76 806.993333,209.76 Z M238.893333,93.2266667 C280.727062,93.2266667 314.64,127.139604 314.64,168.973333 L314.64,431.173333 C314.64,473.007062 280.727062,506.92 238.893333,506.92 C197.059604,506.92 163.146667,473.007062 163.146667,431.173333 L163.146667,168.973333 C163.146667,127.139604 197.059604,93.2266667 238.893333,93.2266667 Z M67.0066667,209.76 C104.013427,209.76 134.013333,239.759907 134.013333,276.766667 L134.013333,439.913333 C134.013333,476.920093 104.013427,506.92 67.0066667,506.92 C29.9999065,506.92 4.53202103e-15,476.920093 0,439.913333 L0,276.766667 C-4.53202103e-15,239.759907 29.9999065,209.76 67.0066667,209.76 Z M635.106667,122.36 C676.940396,122.36 710.853333,156.272938 710.853333,198.106667 L710.853333,431.173333 C710.853333,473.007062 676.940396,506.92 635.106667,506.92 C593.272938,506.92 559.36,473.007062 559.36,431.173333 L559.36,198.106667 C559.36,156.272938 593.272938,122.36 635.106667,122.36 Z M437,-9.09494702e-13 C488.487666,-9.18952833e-13 530.226667,41.7390004 530.226667,93.2266667 L530.226667,413.693333 C530.226667,465.181 488.487666,506.92 437,506.92 C385.512334,506.92 343.773333,465.181 343.773333,413.693333 L343.773333,93.2266667 C343.773333,41.7390004 385.512334,-8.71614861e-13 437,-9.09494702e-13 Z"></path>
                </g>
            </g>
        </g>
    </g>
</svg>