<svg width="45" height="22" viewBox="0 0 45 22" fill="none" xmlns="http://www.w3.org/2000/svg">
<rect width="45" height="22" rx="6" fill="#E9EFFF"/>
<path d="M13.7216 10.2898H12.3011C12.2822 10.1439 12.2434 10.0123 12.1847 9.89489C12.1259 9.77746 12.0483 9.67708 11.9517 9.59375C11.8551 9.51042 11.7405 9.44697 11.608 9.40341C11.4773 9.35795 11.3324 9.33523 11.1733 9.33523C10.8911 9.33523 10.6477 9.40436 10.4432 9.54261C10.2405 9.68087 10.0843 9.88068 9.97443 10.142C9.86648 10.4034 9.8125 10.7197 9.8125 11.0909C9.8125 11.4773 9.86742 11.8011 9.97727 12.0625C10.089 12.322 10.2453 12.518 10.446 12.6506C10.6487 12.7812 10.8883 12.8466 11.1648 12.8466C11.3201 12.8466 11.4612 12.8267 11.5881 12.7869C11.7169 12.7472 11.8295 12.6894 11.9261 12.6136C12.0246 12.536 12.1051 12.4422 12.1676 12.3324C12.232 12.2206 12.2765 12.0947 12.3011 11.9545L13.7216 11.9631C13.697 12.2206 13.6222 12.4744 13.4972 12.7244C13.3741 12.9744 13.2045 13.2027 12.9886 13.4091C12.7727 13.6136 12.5095 13.7765 12.1989 13.8977C11.8902 14.0189 11.536 14.0795 11.1364 14.0795C10.6098 14.0795 10.1383 13.964 9.72159 13.733C9.30682 13.5 8.97917 13.161 8.73864 12.7159C8.49811 12.2708 8.37784 11.7292 8.37784 11.0909C8.37784 10.4508 8.5 9.90814 8.74432 9.46307C8.98864 9.01799 9.31913 8.67992 9.7358 8.44886C10.1525 8.2178 10.6193 8.10227 11.1364 8.10227C11.4886 8.10227 11.8144 8.15152 12.1136 8.25C12.4129 8.34659 12.6761 8.48864 12.9034 8.67614C13.1307 8.86174 13.3153 9.08996 13.4574 9.3608C13.5994 9.63163 13.6875 9.94129 13.7216 10.2898ZM14.5263 14V8.18182H15.9325V12.858H18.353V14H14.5263ZM24.3459 11.0909C24.3459 11.7311 24.2228 12.2737 23.9766 12.7188C23.7304 13.1638 23.397 13.5019 22.9766 13.733C22.558 13.964 22.0883 14.0795 21.5675 14.0795C21.0447 14.0795 20.5741 13.9631 20.1555 13.7301C19.737 13.4972 19.4046 13.1591 19.1584 12.7159C18.9141 12.2708 18.7919 11.7292 18.7919 11.0909C18.7919 10.4508 18.9141 9.90814 19.1584 9.46307C19.4046 9.01799 19.737 8.67992 20.1555 8.44886C20.5741 8.2178 21.0447 8.10227 21.5675 8.10227C22.0883 8.10227 22.558 8.2178 22.9766 8.44886C23.397 8.67992 23.7304 9.01799 23.9766 9.46307C24.2228 9.90814 24.3459 10.4508 24.3459 11.0909ZM22.9084 11.0909C22.9084 10.7121 22.8544 10.392 22.7464 10.1307C22.6404 9.86932 22.487 9.6714 22.2862 9.53693C22.0874 9.40246 21.8478 9.33523 21.5675 9.33523C21.2891 9.33523 21.0495 9.40246 20.8487 9.53693C20.648 9.6714 20.4936 9.86932 20.3857 10.1307C20.2796 10.392 20.2266 10.7121 20.2266 11.0909C20.2266 11.4697 20.2796 11.7898 20.3857 12.0511C20.4936 12.3125 20.648 12.5104 20.8487 12.6449C21.0495 12.7794 21.2891 12.8466 21.5675 12.8466C21.8478 12.8466 22.0874 12.7794 22.2862 12.6449C22.487 12.5104 22.6404 12.3125 22.7464 12.0511C22.8544 11.7898 22.9084 11.4697 22.9084 11.0909ZM28.6868 8.18182H30.0902V11.9347C30.0902 12.3684 29.987 12.7462 29.7805 13.0682C29.5741 13.3883 29.2862 13.6364 28.9169 13.8125C28.5476 13.9867 28.1186 14.0739 27.63 14.0739C27.1357 14.0739 26.7038 13.9867 26.3345 13.8125C25.9652 13.6364 25.6783 13.3883 25.4737 13.0682C25.2692 12.7462 25.1669 12.3684 25.1669 11.9347V8.18182H26.5732V11.8125C26.5732 12.0133 26.6167 12.1922 26.7038 12.3494C26.7929 12.5066 26.9169 12.6297 27.076 12.7188C27.2351 12.8078 27.4197 12.8523 27.63 12.8523C27.8402 12.8523 28.0239 12.8078 28.1811 12.7188C28.3402 12.6297 28.4643 12.5066 28.5533 12.3494C28.6423 12.1922 28.6868 12.0133 28.6868 11.8125V8.18182ZM33.1222 14H30.9716V8.18182H33.1193C33.7121 8.18182 34.2225 8.2983 34.6506 8.53125C35.0805 8.76231 35.4119 9.09564 35.6449 9.53125C35.8778 9.96496 35.9943 10.4839 35.9943 11.0881C35.9943 11.6941 35.8778 12.215 35.6449 12.6506C35.4138 13.0862 35.0833 13.4205 34.6534 13.6534C34.2235 13.8845 33.7131 14 33.1222 14ZM32.3778 12.8011H33.0682C33.3939 12.8011 33.6695 12.7462 33.8949 12.6364C34.1222 12.5246 34.2936 12.3438 34.4091 12.0938C34.5265 11.8419 34.5852 11.5066 34.5852 11.0881C34.5852 10.6695 34.5265 10.3362 34.4091 10.0881C34.2917 9.83807 34.1184 9.65814 33.8892 9.5483C33.6619 9.43655 33.3816 9.38068 33.0483 9.38068H32.3778V12.8011Z" fill="#1455FF"/>
</svg>
