<svg width="36" height="22" viewBox="0 0 36 22" fill="none" xmlns="http://www.w3.org/2000/svg">
<rect width="36" height="22" rx="6" fill="#FEF4E5"/>
<path d="M9.69886 14H8.1875L10.1506 8.18182H12.0227L13.9858 14H12.4744L11.108 9.64773H11.0625L9.69886 14ZM9.49716 11.7102H12.6562V12.7784H9.49716V11.7102ZM15.3743 14L13.6811 8.18182H15.2351L16.1129 11.9943H16.1612L17.1641 8.18182H18.4311L19.4339 12.0028H19.4822L20.3629 8.18182H21.9141L20.2237 14H18.8686L17.8203 10.4716H17.7749L16.7266 14H15.3743ZM25.5696 9.92614C25.5507 9.7178 25.4664 9.55587 25.3168 9.44034C25.169 9.32292 24.9579 9.2642 24.6832 9.2642C24.5014 9.2642 24.3499 9.28788 24.2287 9.33523C24.1075 9.38258 24.0166 9.44792 23.956 9.53125C23.8954 9.61269 23.8641 9.70644 23.8622 9.8125C23.8584 9.89962 23.8755 9.97633 23.9134 10.0426C23.9531 10.1089 24.0099 10.1676 24.0838 10.2188C24.1596 10.268 24.2505 10.3116 24.3565 10.3494C24.4626 10.3873 24.5819 10.4205 24.7145 10.4489L25.2145 10.5625C25.5024 10.625 25.7562 10.7083 25.9759 10.8125C26.1974 10.9167 26.383 11.0407 26.5327 11.1847C26.6842 11.3286 26.7988 11.4943 26.8764 11.6818C26.9541 11.8693 26.9938 12.0795 26.9957 12.3125C26.9938 12.6799 26.901 12.9953 26.7173 13.2585C26.5336 13.5218 26.2694 13.7235 25.9247 13.8636C25.5819 14.0038 25.1681 14.0739 24.6832 14.0739C24.1965 14.0739 23.7723 14.0009 23.4105 13.8551C23.0488 13.7093 22.7675 13.4877 22.5668 13.1903C22.366 12.893 22.2628 12.517 22.2571 12.0625H23.6037C23.6151 12.25 23.6652 12.4062 23.7543 12.5312C23.8433 12.6562 23.9654 12.7509 24.1207 12.8153C24.2779 12.8797 24.4598 12.9119 24.6662 12.9119C24.8556 12.9119 25.0166 12.8864 25.1491 12.8352C25.2836 12.7841 25.3868 12.7131 25.4588 12.6222C25.5308 12.5312 25.5677 12.4271 25.5696 12.3097C25.5677 12.1998 25.5336 12.1061 25.4673 12.0284C25.401 11.9489 25.2988 11.8807 25.1605 11.8239C25.0241 11.7652 24.8499 11.7112 24.6378 11.6619L24.0298 11.5199C23.526 11.4044 23.1293 11.2178 22.8395 10.9602C22.5497 10.7008 22.4058 10.3504 22.4077 9.90909C22.4058 9.54924 22.5024 9.2339 22.6974 8.96307C22.8925 8.69223 23.1624 8.48106 23.5071 8.32955C23.8518 8.17803 24.2448 8.10227 24.6861 8.10227C25.1368 8.10227 25.5279 8.17898 25.8594 8.33239C26.1927 8.4839 26.4512 8.69697 26.6349 8.97159C26.8187 9.24621 26.9124 9.56439 26.9162 9.92614H25.5696Z" fill="#ED8E00"/>
</svg>
