<svg width="57" height="22" viewBox="0 0 57 22" fill="none" xmlns="http://www.w3.org/2000/svg">
<rect width="57" height="22" rx="6" fill="url(#paint0_linear_9_1213)" fill-opacity="0.1"/>
<path d="M11.5852 9.92614C11.5663 9.7178 11.482 9.55587 11.3324 9.44034C11.1847 9.32292 10.9735 9.2642 10.6989 9.2642C10.517 9.2642 10.3655 9.28788 10.2443 9.33523C10.1231 9.38258 10.0322 9.44792 9.97159 9.53125C9.91098 9.61269 9.87973 9.70644 9.87784 9.8125C9.87405 9.89962 9.8911 9.97633 9.92898 10.0426C9.96875 10.1089 10.0256 10.1676 10.0994 10.2188C10.1752 10.268 10.2661 10.3116 10.3722 10.3494C10.4782 10.3873 10.5975 10.4205 10.7301 10.4489L11.2301 10.5625C11.518 10.625 11.7718 10.7083 11.9915 10.8125C12.2131 10.9167 12.3987 11.0407 12.5483 11.1847C12.6998 11.3286 12.8144 11.4943 12.892 11.6818C12.9697 11.8693 13.0095 12.0795 13.0114 12.3125C13.0095 12.6799 12.9167 12.9953 12.733 13.2585C12.5492 13.5218 12.285 13.7235 11.9403 13.8636C11.5975 14.0038 11.1837 14.0739 10.6989 14.0739C10.2121 14.0739 9.78788 14.0009 9.42614 13.8551C9.06439 13.7093 8.78314 13.4877 8.58239 13.1903C8.38163 12.893 8.27841 12.517 8.27273 12.0625H9.61932C9.63068 12.25 9.68087 12.4062 9.76989 12.5312C9.8589 12.6562 9.98106 12.7509 10.1364 12.8153C10.2936 12.8797 10.4754 12.9119 10.6818 12.9119C10.8712 12.9119 11.0322 12.8864 11.1648 12.8352C11.2992 12.7841 11.4025 12.7131 11.4744 12.6222C11.5464 12.5312 11.5833 12.4271 11.5852 12.3097C11.5833 12.1998 11.5492 12.1061 11.483 12.0284C11.4167 11.9489 11.3144 11.8807 11.1761 11.8239C11.0398 11.7652 10.8655 11.7112 10.6534 11.6619L10.0455 11.5199C9.54167 11.4044 9.14489 11.2178 8.85511 10.9602C8.56534 10.7008 8.4214 10.3504 8.4233 9.90909C8.4214 9.54924 8.51799 9.2339 8.71307 8.96307C8.90814 8.69223 9.17803 8.48106 9.52273 8.32955C9.86742 8.17803 10.2604 8.10227 10.7017 8.10227C11.1525 8.10227 11.5436 8.17898 11.875 8.33239C12.2083 8.4839 12.4669 8.69697 12.6506 8.97159C12.8343 9.24621 12.928 9.56439 12.9318 9.92614H11.5852ZM14.8004 14H13.2891L15.2521 8.18182H17.1243L19.0874 14H17.576L16.2095 9.64773H16.1641L14.8004 14ZM14.5987 11.7102H17.7578V12.7784H14.5987V11.7102ZM24.6655 8.18182V14H23.4723L21.157 10.642H21.12V14H19.7138V8.18182H20.924L23.2138 11.5341H23.2621V8.18182H24.6655ZM27.7003 14H25.5497V8.18182H27.6974C28.2902 8.18182 28.8007 8.2983 29.2287 8.53125C29.6586 8.76231 29.9901 9.09564 30.223 9.53125C30.456 9.96496 30.5724 10.4839 30.5724 11.0881C30.5724 11.6941 30.456 12.215 30.223 12.6506C29.992 13.0862 29.6615 13.4205 29.2315 13.6534C28.8016 13.8845 28.2912 14 27.7003 14ZM26.956 12.8011H27.6463C27.9721 12.8011 28.2476 12.7462 28.473 12.6364C28.7003 12.5246 28.8717 12.3438 28.9872 12.0938C29.1046 11.8419 29.1634 11.5066 29.1634 11.0881C29.1634 10.6695 29.1046 10.3362 28.9872 10.0881C28.8698 9.83807 28.6965 9.65814 28.4673 9.5483C28.2401 9.43655 27.9598 9.38068 27.6264 9.38068H26.956V12.8011ZM31.3935 14V8.18182H33.8196C34.2552 8.18182 34.6198 8.24337 34.9134 8.36648C35.2088 8.48958 35.4304 8.66193 35.5781 8.88352C35.7277 9.10511 35.8026 9.36174 35.8026 9.65341C35.8026 9.875 35.7562 10.0729 35.6634 10.2472C35.5705 10.4195 35.4427 10.5625 35.2798 10.6761C35.117 10.7898 34.9285 10.8693 34.7145 10.9148V10.9716C34.9493 10.983 35.1662 11.0464 35.3651 11.1619C35.5658 11.2775 35.7268 11.4384 35.848 11.6449C35.9692 11.8494 36.0298 12.0919 36.0298 12.3722C36.0298 12.6847 35.9503 12.964 35.7912 13.2102C35.6321 13.4545 35.402 13.6477 35.1009 13.7898C34.7997 13.9299 34.4342 14 34.0043 14H31.3935ZM32.7997 12.8665H33.669C33.974 12.8665 34.1984 12.8087 34.3423 12.6932C34.4882 12.5777 34.5611 12.4167 34.5611 12.2102C34.5611 12.0606 34.526 11.9318 34.456 11.8239C34.3859 11.714 34.2865 11.6297 34.1577 11.571C34.0289 11.5104 33.8745 11.4801 33.6946 11.4801H32.7997V12.8665ZM32.7997 10.5739H33.5781C33.7315 10.5739 33.8679 10.5483 33.9872 10.4972C34.1065 10.446 34.1993 10.3722 34.2656 10.2756C34.3338 10.179 34.3679 10.0625 34.3679 9.92614C34.3679 9.73106 34.2988 9.57765 34.1605 9.46591C34.0223 9.35417 33.8357 9.2983 33.6009 9.2983H32.7997V10.5739ZM42.1974 11.0909C42.1974 11.7311 42.0743 12.2737 41.8281 12.7188C41.5819 13.1638 41.2486 13.5019 40.8281 13.733C40.4096 13.964 39.9399 14.0795 39.419 14.0795C38.8963 14.0795 38.4257 13.9631 38.0071 13.7301C37.5885 13.4972 37.2562 13.1591 37.0099 12.7159C36.7656 12.2708 36.6435 11.7292 36.6435 11.0909C36.6435 10.4508 36.7656 9.90814 37.0099 9.46307C37.2562 9.01799 37.5885 8.67992 38.0071 8.44886C38.4257 8.2178 38.8963 8.10227 39.419 8.10227C39.9399 8.10227 40.4096 8.2178 40.8281 8.44886C41.2486 8.67992 41.5819 9.01799 41.8281 9.46307C42.0743 9.90814 42.1974 10.4508 42.1974 11.0909ZM40.7599 11.0909C40.7599 10.7121 40.706 10.392 40.598 10.1307C40.492 9.86932 40.3385 9.6714 40.1378 9.53693C39.9389 9.40246 39.6993 9.33523 39.419 9.33523C39.1406 9.33523 38.901 9.40246 38.7003 9.53693C38.4995 9.6714 38.3452 9.86932 38.2372 10.1307C38.1312 10.392 38.0781 10.7121 38.0781 11.0909C38.0781 11.4697 38.1312 11.7898 38.2372 12.0511C38.3452 12.3125 38.4995 12.5104 38.7003 12.6449C38.901 12.7794 39.1406 12.8466 39.419 12.8466C39.6993 12.8466 39.9389 12.7794 40.1378 12.6449C40.3385 12.5104 40.492 12.3125 40.598 12.0511C40.706 11.7898 40.7599 11.4697 40.7599 11.0909ZM44.1136 8.18182L45.1761 10.0199H45.2216L46.2955 8.18182H47.8693L46.1136 11.0909L47.9261 14H46.3125L45.2216 12.142H45.1761L44.0852 14H42.483L44.2869 11.0909L42.5284 8.18182H44.1136Z" fill="black"/>
<path d="M11.5852 9.92614C11.5663 9.7178 11.482 9.55587 11.3324 9.44034C11.1847 9.32292 10.9735 9.2642 10.6989 9.2642C10.517 9.2642 10.3655 9.28788 10.2443 9.33523C10.1231 9.38258 10.0322 9.44792 9.97159 9.53125C9.91098 9.61269 9.87973 9.70644 9.87784 9.8125C9.87405 9.89962 9.8911 9.97633 9.92898 10.0426C9.96875 10.1089 10.0256 10.1676 10.0994 10.2188C10.1752 10.268 10.2661 10.3116 10.3722 10.3494C10.4782 10.3873 10.5975 10.4205 10.7301 10.4489L11.2301 10.5625C11.518 10.625 11.7718 10.7083 11.9915 10.8125C12.2131 10.9167 12.3987 11.0407 12.5483 11.1847C12.6998 11.3286 12.8144 11.4943 12.892 11.6818C12.9697 11.8693 13.0095 12.0795 13.0114 12.3125C13.0095 12.6799 12.9167 12.9953 12.733 13.2585C12.5492 13.5218 12.285 13.7235 11.9403 13.8636C11.5975 14.0038 11.1837 14.0739 10.6989 14.0739C10.2121 14.0739 9.78788 14.0009 9.42614 13.8551C9.06439 13.7093 8.78314 13.4877 8.58239 13.1903C8.38163 12.893 8.27841 12.517 8.27273 12.0625H9.61932C9.63068 12.25 9.68087 12.4062 9.76989 12.5312C9.8589 12.6562 9.98106 12.7509 10.1364 12.8153C10.2936 12.8797 10.4754 12.9119 10.6818 12.9119C10.8712 12.9119 11.0322 12.8864 11.1648 12.8352C11.2992 12.7841 11.4025 12.7131 11.4744 12.6222C11.5464 12.5312 11.5833 12.4271 11.5852 12.3097C11.5833 12.1998 11.5492 12.1061 11.483 12.0284C11.4167 11.9489 11.3144 11.8807 11.1761 11.8239C11.0398 11.7652 10.8655 11.7112 10.6534 11.6619L10.0455 11.5199C9.54167 11.4044 9.14489 11.2178 8.85511 10.9602C8.56534 10.7008 8.4214 10.3504 8.4233 9.90909C8.4214 9.54924 8.51799 9.2339 8.71307 8.96307C8.90814 8.69223 9.17803 8.48106 9.52273 8.32955C9.86742 8.17803 10.2604 8.10227 10.7017 8.10227C11.1525 8.10227 11.5436 8.17898 11.875 8.33239C12.2083 8.4839 12.4669 8.69697 12.6506 8.97159C12.8343 9.24621 12.928 9.56439 12.9318 9.92614H11.5852ZM14.8004 14H13.2891L15.2521 8.18182H17.1243L19.0874 14H17.576L16.2095 9.64773H16.1641L14.8004 14ZM14.5987 11.7102H17.7578V12.7784H14.5987V11.7102ZM24.6655 8.18182V14H23.4723L21.157 10.642H21.12V14H19.7138V8.18182H20.924L23.2138 11.5341H23.2621V8.18182H24.6655ZM27.7003 14H25.5497V8.18182H27.6974C28.2902 8.18182 28.8007 8.2983 29.2287 8.53125C29.6586 8.76231 29.9901 9.09564 30.223 9.53125C30.456 9.96496 30.5724 10.4839 30.5724 11.0881C30.5724 11.6941 30.456 12.215 30.223 12.6506C29.992 13.0862 29.6615 13.4205 29.2315 13.6534C28.8016 13.8845 28.2912 14 27.7003 14ZM26.956 12.8011H27.6463C27.9721 12.8011 28.2476 12.7462 28.473 12.6364C28.7003 12.5246 28.8717 12.3438 28.9872 12.0938C29.1046 11.8419 29.1634 11.5066 29.1634 11.0881C29.1634 10.6695 29.1046 10.3362 28.9872 10.0881C28.8698 9.83807 28.6965 9.65814 28.4673 9.5483C28.2401 9.43655 27.9598 9.38068 27.6264 9.38068H26.956V12.8011ZM31.3935 14V8.18182H33.8196C34.2552 8.18182 34.6198 8.24337 34.9134 8.36648C35.2088 8.48958 35.4304 8.66193 35.5781 8.88352C35.7277 9.10511 35.8026 9.36174 35.8026 9.65341C35.8026 9.875 35.7562 10.0729 35.6634 10.2472C35.5705 10.4195 35.4427 10.5625 35.2798 10.6761C35.117 10.7898 34.9285 10.8693 34.7145 10.9148V10.9716C34.9493 10.983 35.1662 11.0464 35.3651 11.1619C35.5658 11.2775 35.7268 11.4384 35.848 11.6449C35.9692 11.8494 36.0298 12.0919 36.0298 12.3722C36.0298 12.6847 35.9503 12.964 35.7912 13.2102C35.6321 13.4545 35.402 13.6477 35.1009 13.7898C34.7997 13.9299 34.4342 14 34.0043 14H31.3935ZM32.7997 12.8665H33.669C33.974 12.8665 34.1984 12.8087 34.3423 12.6932C34.4882 12.5777 34.5611 12.4167 34.5611 12.2102C34.5611 12.0606 34.526 11.9318 34.456 11.8239C34.3859 11.714 34.2865 11.6297 34.1577 11.571C34.0289 11.5104 33.8745 11.4801 33.6946 11.4801H32.7997V12.8665ZM32.7997 10.5739H33.5781C33.7315 10.5739 33.8679 10.5483 33.9872 10.4972C34.1065 10.446 34.1993 10.3722 34.2656 10.2756C34.3338 10.179 34.3679 10.0625 34.3679 9.92614C34.3679 9.73106 34.2988 9.57765 34.1605 9.46591C34.0223 9.35417 33.8357 9.2983 33.6009 9.2983H32.7997V10.5739ZM42.1974 11.0909C42.1974 11.7311 42.0743 12.2737 41.8281 12.7188C41.5819 13.1638 41.2486 13.5019 40.8281 13.733C40.4096 13.964 39.9399 14.0795 39.419 14.0795C38.8963 14.0795 38.4257 13.9631 38.0071 13.7301C37.5885 13.4972 37.2562 13.1591 37.0099 12.7159C36.7656 12.2708 36.6435 11.7292 36.6435 11.0909C36.6435 10.4508 36.7656 9.90814 37.0099 9.46307C37.2562 9.01799 37.5885 8.67992 38.0071 8.44886C38.4257 8.2178 38.8963 8.10227 39.419 8.10227C39.9399 8.10227 40.4096 8.2178 40.8281 8.44886C41.2486 8.67992 41.5819 9.01799 41.8281 9.46307C42.0743 9.90814 42.1974 10.4508 42.1974 11.0909ZM40.7599 11.0909C40.7599 10.7121 40.706 10.392 40.598 10.1307C40.492 9.86932 40.3385 9.6714 40.1378 9.53693C39.9389 9.40246 39.6993 9.33523 39.419 9.33523C39.1406 9.33523 38.901 9.40246 38.7003 9.53693C38.4995 9.6714 38.3452 9.86932 38.2372 10.1307C38.1312 10.392 38.0781 10.7121 38.0781 11.0909C38.0781 11.4697 38.1312 11.7898 38.2372 12.0511C38.3452 12.3125 38.4995 12.5104 38.7003 12.6449C38.901 12.7794 39.1406 12.8466 39.419 12.8466C39.6993 12.8466 39.9389 12.7794 40.1378 12.6449C40.3385 12.5104 40.492 12.3125 40.598 12.0511C40.706 11.7898 40.7599 11.4697 40.7599 11.0909ZM44.1136 8.18182L45.1761 10.0199H45.2216L46.2955 8.18182H47.8693L46.1136 11.0909L47.9261 14H46.3125L45.2216 12.142H45.1761L44.0852 14H42.483L44.2869 11.0909L42.5284 8.18182H44.1136Z" fill="url(#paint1_linear_9_1213)"/>
<defs>
<linearGradient id="paint0_linear_9_1213" x1="0.0316013" y1="11.2833" x2="57.1104" y2="11.2833" gradientUnits="userSpaceOnUse">
<stop stop-color="#F304FF"/>
<stop offset="1" stop-color="#1E5BFF"/>
</linearGradient>
<linearGradient id="paint1_linear_9_1213" x1="8.02273" y1="11.0773" x2="49.0794" y2="11.0773" gradientUnits="userSpaceOnUse">
<stop stop-color="#F304FF"/>
<stop offset="1" stop-color="#1E5BFF"/>
</linearGradient>
</defs>
</svg>
