<svg width="66" height="22" viewBox="0 0 66 22" fill="none" xmlns="http://www.w3.org/2000/svg">
<rect width="66" height="22" rx="6" fill="black"/>
<path d="M8.44034 14V8.18182H12.4972V9.32386H9.84659V10.517H12.2898V11.6619H9.84659V12.858H12.4972V14H8.44034ZM18.3295 8.18182V14H17.1364L14.821 10.642H14.7841V14H13.3778V8.18182H14.5881L16.8778 11.5341H16.9261V8.18182H18.3295ZM19.0234 9.32386V8.18182H23.9411V9.32386H22.1768V14H20.7905V9.32386H19.0234ZM24.6278 14V8.18182H28.6847V9.32386H26.0341V10.517H28.4773V11.6619H26.0341V12.858H28.6847V14H24.6278ZM29.5653 14V8.18182H31.9688C32.4044 8.18182 32.7803 8.26042 33.0966 8.41761C33.4148 8.57292 33.66 8.7964 33.8324 9.08807C34.0047 9.37784 34.0909 9.72159 34.0909 10.1193C34.0909 10.5227 34.0028 10.8655 33.8267 11.1477C33.6506 11.428 33.4006 11.642 33.0767 11.7898C32.7528 11.9356 32.3693 12.0085 31.9261 12.0085H30.4062V10.9006H31.6648C31.8769 10.9006 32.054 10.8731 32.196 10.8182C32.34 10.7614 32.4489 10.6761 32.5227 10.5625C32.5966 10.447 32.6335 10.2992 32.6335 10.1193C32.6335 9.93939 32.5966 9.79072 32.5227 9.6733C32.4489 9.55398 32.34 9.46496 32.196 9.40625C32.0521 9.34564 31.875 9.31534 31.6648 9.31534H30.9716V14H29.5653ZM32.8409 11.3409L34.2898 14H32.7557L31.3352 11.3409H32.8409ZM34.8622 14V8.18182H37.2656C37.7012 8.18182 38.0772 8.26705 38.3935 8.4375C38.7116 8.60606 38.9569 8.84186 39.1293 9.14489C39.3016 9.44602 39.3878 9.7964 39.3878 10.196C39.3878 10.5975 39.2997 10.9489 39.1236 11.25C38.9493 11.5492 38.7003 11.7812 38.3764 11.946C38.0526 12.1108 37.6681 12.1932 37.223 12.1932H35.7401V11.0852H36.9616C37.1738 11.0852 37.3509 11.0483 37.4929 10.9744C37.6368 10.9006 37.7457 10.7973 37.8196 10.6648C37.8935 10.5303 37.9304 10.3741 37.9304 10.196C37.9304 10.0161 37.8935 9.8608 37.8196 9.73011C37.7457 9.59754 37.6368 9.49527 37.4929 9.4233C37.349 9.35133 37.1719 9.31534 36.9616 9.31534H36.2685V14H34.8622ZM40.081 14V8.18182H42.4844C42.92 8.18182 43.2959 8.26042 43.6122 8.41761C43.9304 8.57292 44.1757 8.7964 44.348 9.08807C44.5204 9.37784 44.6065 9.72159 44.6065 10.1193C44.6065 10.5227 44.5185 10.8655 44.3423 11.1477C44.1662 11.428 43.9162 11.642 43.5923 11.7898C43.2685 11.9356 42.8849 12.0085 42.4418 12.0085H40.9219V10.9006H42.1804C42.3925 10.9006 42.5696 10.8731 42.7116 10.8182C42.8556 10.7614 42.9645 10.6761 43.0384 10.5625C43.1122 10.447 43.1491 10.2992 43.1491 10.1193C43.1491 9.93939 43.1122 9.79072 43.0384 9.6733C42.9645 9.55398 42.8556 9.46496 42.7116 9.40625C42.5677 9.34564 42.3906 9.31534 42.1804 9.31534H41.4872V14H40.081ZM43.3565 11.3409L44.8054 14H43.2713L41.8509 11.3409H43.3565ZM46.7841 8.18182V14H45.3778V8.18182H46.7841ZM50.8118 9.92614C50.7929 9.7178 50.7086 9.55587 50.5589 9.44034C50.4112 9.32292 50.2 9.2642 49.9254 9.2642C49.7436 9.2642 49.5921 9.28788 49.4709 9.33523C49.3497 9.38258 49.2588 9.44792 49.1982 9.53125C49.1375 9.61269 49.1063 9.70644 49.1044 9.8125C49.1006 9.89962 49.1177 9.97633 49.1555 10.0426C49.1953 10.1089 49.2521 10.1676 49.326 10.2188C49.4018 10.268 49.4927 10.3116 49.5987 10.3494C49.7048 10.3873 49.8241 10.4205 49.9567 10.4489L50.4567 10.5625C50.7446 10.625 50.9983 10.7083 51.218 10.8125C51.4396 10.9167 51.6252 11.0407 51.7749 11.1847C51.9264 11.3286 52.041 11.4943 52.1186 11.6818C52.1963 11.8693 52.236 12.0795 52.2379 12.3125C52.236 12.6799 52.1432 12.9953 51.9595 13.2585C51.7758 13.5218 51.5116 13.7235 51.1669 13.8636C50.8241 14.0038 50.4103 14.0739 49.9254 14.0739C49.4387 14.0739 49.0144 14.0009 48.6527 13.8551C48.291 13.7093 48.0097 13.4877 47.8089 13.1903C47.6082 12.893 47.505 12.517 47.4993 12.0625H48.8459C48.8572 12.25 48.9074 12.4062 48.9964 12.5312C49.0855 12.6562 49.2076 12.7509 49.3629 12.8153C49.5201 12.8797 49.7019 12.9119 49.9084 12.9119C50.0978 12.9119 50.2588 12.8864 50.3913 12.8352C50.5258 12.7841 50.629 12.7131 50.701 12.6222C50.773 12.5312 50.8099 12.4271 50.8118 12.3097C50.8099 12.1998 50.7758 12.1061 50.7095 12.0284C50.6432 11.9489 50.541 11.8807 50.4027 11.8239C50.2663 11.7652 50.0921 11.7112 49.88 11.6619L49.272 11.5199C48.7682 11.4044 48.3714 11.2178 48.0817 10.9602C47.7919 10.7008 47.648 10.3504 47.6499 9.90909C47.648 9.54924 47.7446 9.2339 47.9396 8.96307C48.1347 8.69223 48.4046 8.48106 48.7493 8.32955C49.094 8.17803 49.487 8.10227 49.9283 8.10227C50.379 8.10227 50.7701 8.17898 51.1016 8.33239C51.4349 8.4839 51.6934 8.69697 51.8771 8.97159C52.0608 9.24621 52.1546 9.56439 52.1584 9.92614H50.8118ZM52.9482 14V8.18182H57.005V9.32386H54.3544V10.517H56.7976V11.6619H54.3544V12.858H57.005V14H52.9482Z" fill="white"/>
</svg>
