<svg width="74" height="22" viewBox="0 0 74 22" fill="none" xmlns="http://www.w3.org/2000/svg">
<rect width="74" height="22" rx="6" fill="#EFF9FF"/>
<path d="M13.9318 11.0909C13.9318 11.7311 13.8087 12.2737 13.5625 12.7188C13.3163 13.1638 12.983 13.5019 12.5625 13.733C12.1439 13.964 11.6742 14.0795 11.1534 14.0795C10.6307 14.0795 10.16 13.9631 9.74148 13.7301C9.32292 13.4972 8.99053 13.1591 8.74432 12.7159C8.5 12.2708 8.37784 11.7292 8.37784 11.0909C8.37784 10.4508 8.5 9.90814 8.74432 9.46307C8.99053 9.01799 9.32292 8.67992 9.74148 8.44886C10.16 8.2178 10.6307 8.10227 11.1534 8.10227C11.6742 8.10227 12.1439 8.2178 12.5625 8.44886C12.983 8.67992 13.3163 9.01799 13.5625 9.46307C13.8087 9.90814 13.9318 10.4508 13.9318 11.0909ZM12.4943 11.0909C12.4943 10.7121 12.4403 10.392 12.3324 10.1307C12.2263 9.86932 12.0729 9.6714 11.8722 9.53693C11.6733 9.40246 11.4337 9.33523 11.1534 9.33523C10.875 9.33523 10.6354 9.40246 10.4347 9.53693C10.2339 9.6714 10.0795 9.86932 9.97159 10.1307C9.86553 10.392 9.8125 10.7121 9.8125 11.0909C9.8125 11.4697 9.86553 11.7898 9.97159 12.0511C10.0795 12.3125 10.2339 12.5104 10.4347 12.6449C10.6354 12.7794 10.875 12.8466 11.1534 12.8466C11.4337 12.8466 11.6733 12.7794 11.8722 12.6449C12.0729 12.5104 12.2263 12.3125 12.3324 12.0511C12.4403 11.7898 12.4943 11.4697 12.4943 11.0909ZM14.7528 14V8.18182H17.1562C17.5919 8.18182 17.9678 8.26705 18.2841 8.4375C18.6023 8.60606 18.8475 8.84186 19.0199 9.14489C19.1922 9.44602 19.2784 9.7964 19.2784 10.196C19.2784 10.5975 19.1903 10.9489 19.0142 11.25C18.84 11.5492 18.5909 11.7812 18.267 11.946C17.9432 12.1108 17.5587 12.1932 17.1136 12.1932H15.6307V11.0852H16.8523C17.0644 11.0852 17.2415 11.0483 17.3835 10.9744C17.5275 10.9006 17.6364 10.7973 17.7102 10.6648C17.7841 10.5303 17.821 10.3741 17.821 10.196C17.821 10.0161 17.7841 9.8608 17.7102 9.73011C17.6364 9.59754 17.5275 9.49527 17.3835 9.4233C17.2396 9.35133 17.0625 9.31534 16.8523 9.31534H16.1591V14H14.7528ZM19.9716 14V8.18182H24.0284V9.32386H21.3778V10.517H23.821V11.6619H21.3778V12.858H24.0284V14H19.9716ZM29.8608 8.18182V14H28.6676L26.3523 10.642H26.3153V14H24.9091V8.18182H26.1193L28.4091 11.5341H28.4574V8.18182H29.8608ZM35.6087 9.92614C35.5897 9.7178 35.5054 9.55587 35.3558 9.44034C35.2081 9.32292 34.9969 9.2642 34.7223 9.2642C34.5405 9.2642 34.389 9.28788 34.2678 9.33523C34.1465 9.38258 34.0556 9.44792 33.995 9.53125C33.9344 9.61269 33.9032 9.70644 33.9013 9.8125C33.8975 9.89962 33.9145 9.97633 33.9524 10.0426C33.9922 10.1089 34.049 10.1676 34.1229 10.2188C34.1986 10.268 34.2895 10.3116 34.3956 10.3494C34.5017 10.3873 34.621 10.4205 34.7536 10.4489L35.2536 10.5625C35.5414 10.625 35.7952 10.7083 36.0149 10.8125C36.2365 10.9167 36.4221 11.0407 36.5717 11.1847C36.7232 11.3286 36.8378 11.4943 36.9155 11.6818C36.9931 11.8693 37.0329 12.0795 37.0348 12.3125C37.0329 12.6799 36.9401 12.9953 36.7564 13.2585C36.5727 13.5218 36.3085 13.7235 35.9638 13.8636C35.621 14.0038 35.2071 14.0739 34.7223 14.0739C34.2356 14.0739 33.8113 14.0009 33.4496 13.8551C33.0878 13.7093 32.8066 13.4877 32.6058 13.1903C32.4051 12.893 32.3018 12.517 32.2962 12.0625H33.6428C33.6541 12.25 33.7043 12.4062 33.7933 12.5312C33.8823 12.6562 34.0045 12.7509 34.1598 12.8153C34.317 12.8797 34.4988 12.9119 34.7053 12.9119C34.8946 12.9119 35.0556 12.8864 35.1882 12.8352C35.3227 12.7841 35.4259 12.7131 35.4979 12.6222C35.5698 12.5312 35.6068 12.4271 35.6087 12.3097C35.6068 12.1998 35.5727 12.1061 35.5064 12.0284C35.4401 11.9489 35.3378 11.8807 35.1996 11.8239C35.0632 11.7652 34.889 11.7112 34.6768 11.6619L34.0689 11.5199C33.5651 11.4044 33.1683 11.2178 32.8786 10.9602C32.5888 10.7008 32.4448 10.3504 32.4467 9.90909C32.4448 9.54924 32.5414 9.2339 32.7365 8.96307C32.9316 8.69223 33.2015 8.48106 33.5462 8.32955C33.8909 8.17803 34.2839 8.10227 34.7251 8.10227C35.1759 8.10227 35.567 8.17898 35.8984 8.33239C36.2318 8.4839 36.4903 8.69697 36.674 8.97159C36.8577 9.24621 36.9515 9.56439 36.9553 9.92614H35.6087ZM43.2365 11.0909C43.2365 11.7311 43.1134 12.2737 42.8672 12.7188C42.621 13.1638 42.2876 13.5019 41.8672 13.733C41.4486 13.964 40.9789 14.0795 40.4581 14.0795C39.9354 14.0795 39.4647 13.9631 39.0462 13.7301C38.6276 13.4972 38.2952 13.1591 38.049 12.7159C37.8047 12.2708 37.6825 11.7292 37.6825 11.0909C37.6825 10.4508 37.8047 9.90814 38.049 9.46307C38.2952 9.01799 38.6276 8.67992 39.0462 8.44886C39.4647 8.2178 39.9354 8.10227 40.4581 8.10227C40.9789 8.10227 41.4486 8.2178 41.8672 8.44886C42.2876 8.67992 42.621 9.01799 42.8672 9.46307C43.1134 9.90814 43.2365 10.4508 43.2365 11.0909ZM41.799 11.0909C41.799 10.7121 41.745 10.392 41.6371 10.1307C41.531 9.86932 41.3776 9.6714 41.1768 9.53693C40.978 9.40246 40.7384 9.33523 40.4581 9.33523C40.1797 9.33523 39.9401 9.40246 39.7393 9.53693C39.5386 9.6714 39.3842 9.86932 39.2763 10.1307C39.1702 10.392 39.1172 10.7121 39.1172 11.0909C39.1172 11.4697 39.1702 11.7898 39.2763 12.0511C39.3842 12.3125 39.5386 12.5104 39.7393 12.6449C39.9401 12.7794 40.1797 12.8466 40.4581 12.8466C40.7384 12.8466 40.978 12.7794 41.1768 12.6449C41.3776 12.5104 41.531 12.3125 41.6371 12.0511C41.745 11.7898 41.799 11.4697 41.799 11.0909ZM47.5774 8.18182H48.9808V11.9347C48.9808 12.3684 48.8776 12.7462 48.6712 13.0682C48.4647 13.3883 48.1768 13.6364 47.8075 13.8125C47.4382 13.9867 47.0092 14.0739 46.5206 14.0739C46.0263 14.0739 45.5945 13.9867 45.2251 13.8125C44.8558 13.6364 44.5689 13.3883 44.3643 13.0682C44.1598 12.7462 44.0575 12.3684 44.0575 11.9347V8.18182H45.4638V11.8125C45.4638 12.0133 45.5073 12.1922 45.5945 12.3494C45.6835 12.5066 45.8075 12.6297 45.9666 12.7188C46.1257 12.8078 46.3104 12.8523 46.5206 12.8523C46.7308 12.8523 46.9145 12.8078 47.0717 12.7188C47.2308 12.6297 47.3549 12.5066 47.4439 12.3494C47.5329 12.1922 47.5774 12.0133 47.5774 11.8125V8.18182ZM49.8622 14V8.18182H52.2656C52.7012 8.18182 53.0772 8.26042 53.3935 8.41761C53.7116 8.57292 53.9569 8.7964 54.1293 9.08807C54.3016 9.37784 54.3878 9.72159 54.3878 10.1193C54.3878 10.5227 54.2997 10.8655 54.1236 11.1477C53.9474 11.428 53.6974 11.642 53.3736 11.7898C53.0497 11.9356 52.6662 12.0085 52.223 12.0085H50.7031V10.9006H51.9616C52.1738 10.9006 52.3509 10.8731 52.4929 10.8182C52.6368 10.7614 52.7457 10.6761 52.8196 10.5625C52.8935 10.447 52.9304 10.2992 52.9304 10.1193C52.9304 9.93939 52.8935 9.79072 52.8196 9.6733C52.7457 9.55398 52.6368 9.46496 52.4929 9.40625C52.349 9.34564 52.1719 9.31534 51.9616 9.31534H51.2685V14H49.8622ZM53.1378 11.3409L54.5866 14H53.0526L51.6321 11.3409H53.1378ZM60.4403 10.2898H59.0199C59.0009 10.1439 58.9621 10.0123 58.9034 9.89489C58.8447 9.77746 58.767 9.67708 58.6705 9.59375C58.5739 9.51042 58.4593 9.44697 58.3267 9.40341C58.196 9.35795 58.0511 9.33523 57.892 9.33523C57.6098 9.33523 57.3665 9.40436 57.1619 9.54261C56.9593 9.68087 56.803 9.88068 56.6932 10.142C56.5852 10.4034 56.5312 10.7197 56.5312 11.0909C56.5312 11.4773 56.5862 11.8011 56.696 12.0625C56.8078 12.322 56.964 12.518 57.1648 12.6506C57.3674 12.7812 57.607 12.8466 57.8835 12.8466C58.0388 12.8466 58.1799 12.8267 58.3068 12.7869C58.4356 12.7472 58.5483 12.6894 58.6449 12.6136C58.7434 12.536 58.8239 12.4422 58.8864 12.3324C58.9508 12.2206 58.9953 12.0947 59.0199 11.9545L60.4403 11.9631C60.4157 12.2206 60.3409 12.4744 60.2159 12.7244C60.0928 12.9744 59.9233 13.2027 59.7074 13.4091C59.4915 13.6136 59.2282 13.7765 58.9176 13.8977C58.6089 14.0189 58.2547 14.0795 57.8551 14.0795C57.3286 14.0795 56.857 13.964 56.4403 13.733C56.0256 13.5 55.6979 13.161 55.4574 12.7159C55.2169 12.2708 55.0966 11.7292 55.0966 11.0909C55.0966 10.4508 55.2188 9.90814 55.4631 9.46307C55.7074 9.01799 56.0379 8.67992 56.4545 8.44886C56.8712 8.2178 57.3381 8.10227 57.8551 8.10227C58.2074 8.10227 58.5331 8.15152 58.8324 8.25C59.1316 8.34659 59.3949 8.48864 59.6222 8.67614C59.8494 8.86174 60.0341 9.08996 60.1761 9.3608C60.3182 9.63163 60.4062 9.94129 60.4403 10.2898ZM61.245 14V8.18182H65.3018V9.32386H62.6513V10.517H65.0945V11.6619H62.6513V12.858H65.3018V14H61.245Z" fill="#2CADFF"/>
</svg>
