<?xml version="1.0" encoding="utf-8"?>
<!-- Generator: Adobe Illustrator 24.1.0, SVG Export Plug-In . SVG Version: 6.00 Build 0)  -->
<svg version="1.1" id="Ebene_1" xmlns="http://www.w3.org/2000/svg" xmlns:xlink="http://www.w3.org/1999/xlink" x="0px" y="0px"
	 viewBox="0 0 1571.5 585.5" style="enable-background:new 0 0 1571.5 585.5;" xml:space="preserve">
<style type="text/css">
	.st0{clip-path:url(#SVGID_2_);fill:#575756;}
	.st1{fill:#FFFFFF;}
	.st2{clip-path:url(#SVGID_4_);fill:#575756;}
	.st3{clip-path:url(#SVGID_4_);fill:#FFFFFF;}
	.st4{clip-path:url(#SVGID_4_);fill:none;stroke:#9D9D9C;stroke-width:2.101;stroke-miterlimit:10;}
	.st5{clip-path:url(#SVGID_4_);fill:#AEC1E3;}
	.st6{clip-path:url(#SVGID_4_);fill:#5E82C8;}
	.st7{clip-path:url(#SVGID_4_);fill:#F4951B;}
	.st8{fill:#F4951B;}
	.st9{fill:none;stroke:#AEC1E3;stroke-width:0.85;}
	.st10{fill:#5E82C8;}
	.st11{fill:#AEC1E3;}
	.st12{fill:#C6C6C6;}
	.st13{clip-path:url(#SVGID_6_);fill:#575756;}
	.st14{clip-path:url(#SVGID_6_);fill:none;stroke:#C6C6C6;stroke-width:2.4;}
	.st15{clip-path:url(#SVGID_8_);fill:#575756;}
	.st16{clip-path:url(#SVGID_8_);fill:#FFFFFF;}
	.st17{clip-path:url(#SVGID_8_);fill:none;stroke:#8EA8D8;stroke-width:2.4;}
	.st18{clip-path:url(#SVGID_10_);fill:#C6C6C6;}
	.st19{clip-path:url(#SVGID_10_);fill:#575756;}
	.st20{fill:#CFDAEE;}
	.st21{fill:none;stroke:#9D9D9C;stroke-width:1.53;}
	.st22{clip-path:url(#SVGID_12_);fill:#FFFFFF;}
	.st23{clip-path:url(#SVGID_12_);fill:none;stroke:#8EA8D8;stroke-width:1.6;}
	.st24{clip-path:url(#SVGID_12_);fill:#8EA8D8;}
	.st25{clip-path:url(#SVGID_12_);fill:#AEC1E3;}
	.st26{clip-path:url(#SVGID_12_);fill:none;stroke:#AEC1E3;stroke-width:1.6;}
	.st27{fill:none;stroke:#FFFFFF;stroke-width:1.6;}
	.st28{clip-path:url(#SVGID_14_);fill:#575756;}
	.st29{clip-path:url(#SVGID_14_);fill:#C6C6C6;}
	.st30{fill:none;stroke:#9D9D9C;stroke-width:0.748;}
	.st31{fill:none;stroke:#9D9D9C;}
	.st32{clip-path:url(#SVGID_16_);fill:#FFFFFF;}
	.st33{clip-path:url(#SVGID_16_);fill:#C6C6C6;}
	.st34{clip-path:url(#SVGID_16_);fill:#5E82C8;}
	.st35{clip-path:url(#SVGID_18_);fill:#F4951B;}
	.st36{clip-path:url(#SVGID_18_);fill:#FFFFFF;}
	.st37{clip-path:url(#SVGID_18_);fill:#FB9700;}
	.st38{clip-path:url(#SVGID_18_);fill:#C6C6C6;}
	.st39{clip-path:url(#SVGID_18_);fill:#575756;}
	.st40{clip-path:url(#SVGID_18_);fill:#5E82C7;}
	.st41{clip-path:url(#SVGID_20_);fill:#575756;}
	.st42{clip-path:url(#SVGID_22_);fill:#575756;}
	.st43{clip-path:url(#SVGID_24_);fill:#575756;}
	.st44{clip-path:url(#SVGID_24_);fill:#FFFFFF;}
	.st45{clip-path:url(#SVGID_24_);fill:#0772AE;}
</style>
<g>
	<defs>
		<rect id="SVGID_1_" x="20.3" y="12.3" width="1528.7" height="555.4"/>
	</defs>
	<clipPath id="SVGID_2_">
		<use xlink:href="#SVGID_1_"  style="overflow:visible;"/>
	</clipPath>
	<path class="st0" d="M22.4,12.3c-1.2,0-2.1,1-2.1,2.1v551.1c0,1.2,1,2.1,2.1,2.1h1524.4c1.2,0,2.1-1,2.1-2.1V14.4
		c0-1.2-1-2.1-2.1-2.1H22.4z"/>
</g>
<rect x="1011.4" y="30.4" class="st1" width="509.6" height="520.1"/>
<rect x="48.3" y="30.4" class="st1" width="509.6" height="520.1"/>
<g>
	<defs>
		<rect id="SVGID_3_" x="20.3" y="12.3" width="1528.7" height="555.4"/>
	</defs>
	<clipPath id="SVGID_4_">
		<use xlink:href="#SVGID_3_"  style="overflow:visible;"/>
	</clipPath>
	<path class="st2" d="M270,531.1c-0.3-0.3-0.5-0.7-0.5-1.2v-6.7h3.9v-2.8h-3.9v-3h-2.4l-1.1,2.9l-2.1,1.3v1.6h1.8v6.7
		c0,1.5,0.3,2.7,1,3.5c0.7,0.8,1.8,1.2,3.3,1.2c1.4,0,2.5-0.2,3.5-0.6v-2.8c-0.9,0.3-1.7,0.4-2.4,0.4
		C270.7,531.5,270.3,531.4,270,531.1 M261.3,520.4h-3.8v13.9h3.8V520.4z M259.4,518.6c0.7,0,1.2-0.2,1.5-0.5
		c0.3-0.3,0.5-0.8,0.5-1.4c0-1.2-0.7-1.9-2.1-1.9s-2.1,0.6-2.1,1.9C257.4,518,258.1,518.6,259.4,518.6 M245,527.3
		c0-1.4,0.2-2.5,0.7-3.2c0.5-0.7,1.2-1,2.1-1c0.7,0,1.2,0.3,1.6,0.8c0.3,0.5,0.5,1.3,0.5,2.3v8.1h3.8v-9.1c0-1.8-0.4-3.1-1.2-3.9
		c-0.8-0.8-2-1.2-3.6-1.2c-0.9,0-1.7,0.2-2.5,0.5c-0.7,0.4-1.3,0.9-1.6,1.5h-0.3c-0.7-1.4-2.1-2-4.2-2c-0.9,0-1.7,0.2-2.4,0.5
		c-0.7,0.4-1.2,0.9-1.6,1.5h-0.2l-0.5-1.8h-2.9v13.9h3.8v-6.5c0-1.6,0.2-2.8,0.7-3.5c0.4-0.7,1.1-1.1,2.1-1.1c0.7,0,1.2,0.3,1.6,0.8
		c0.3,0.5,0.5,1.3,0.5,2.3v8.1h3.8V527.3z M229.2,528.4c-0.2-0.5-0.6-0.9-1.1-1.3c-0.5-0.4-1.3-0.8-2.4-1.2c-1.2-0.5-2-0.9-2.4-1.1
		c-0.4-0.2-0.5-0.5-0.5-0.9c0-0.6,0.6-0.9,1.7-0.9c0.6,0,1.2,0.1,1.9,0.3c0.6,0.2,1.3,0.4,2,0.7l1.1-2.7c-1.6-0.7-3.2-1.1-4.9-1.1
		c-1.8,0-3.1,0.3-4.1,1c-1,0.7-1.4,1.6-1.4,2.9c0,0.7,0.1,1.3,0.3,1.8c0.2,0.5,0.6,0.9,1.1,1.3c0.5,0.4,1.3,0.8,2.4,1.2
		c0.7,0.3,1.3,0.6,1.8,0.8c0.4,0.2,0.8,0.4,0.9,0.6c0.2,0.2,0.3,0.4,0.3,0.7c0,0.8-0.7,1.2-2.1,1.2c-0.7,0-1.4-0.1-2.3-0.3
		c-0.9-0.2-1.7-0.5-2.4-0.8v3.1c0.6,0.3,1.3,0.5,2,0.6c0.7,0.1,1.6,0.2,2.6,0.2c2,0,3.5-0.4,4.4-1.1s1.5-1.8,1.5-3.3
		C229.6,529.5,229.4,528.9,229.2,528.4 M216,525.2c0-1.7-0.4-2.9-1.3-3.8c-0.8-0.9-2.1-1.3-3.7-1.3c-0.9,0-1.8,0.2-2.5,0.5
		c-0.7,0.3-1.3,0.9-1.7,1.5h-0.2l-0.5-1.8h-2.9v13.9h3.8v-6.5c0-1.6,0.2-2.8,0.7-3.5c0.5-0.7,1.2-1.1,2.3-1.1c0.8,0,1.3,0.3,1.7,0.8
		c0.4,0.5,0.5,1.3,0.5,2.3v8.1h3.8V525.2z M195.4,529c0,0.8-0.3,1.5-0.8,2c-0.5,0.5-1.2,0.8-2.1,0.8c-1.2,0-1.8-0.5-1.8-1.6
		c0-0.7,0.3-1.3,0.8-1.7c0.5-0.4,1.4-0.6,2.5-0.6l1.5,0V529z M199.2,534.3V525c0-1.7-0.5-2.9-1.5-3.7c-1-0.8-2.4-1.2-4.3-1.2
		c-1.9,0-3.7,0.4-5.3,1.3l1.3,2.6c1.5-0.7,2.8-1,3.9-1c1.4,0,2.2,0.7,2.2,2.1v0.6l-2.4,0.1c-2.1,0.1-3.6,0.5-4.7,1.2
		c-1,0.7-1.5,1.8-1.5,3.3c0,1.4,0.4,2.5,1.2,3.3c0.8,0.8,1.8,1.1,3.2,1.1c1.1,0,2-0.2,2.6-0.5c0.7-0.3,1.3-0.9,2-1.7h0.1l0.7,1.9
		H199.2z M181.5,520.8c-0.7,0.5-1.3,1.1-1.7,1.9h-0.2l-0.6-2.3h-2.9v13.9h3.8v-7.1c0-1.1,0.3-2,1-2.6c0.7-0.6,1.6-0.9,2.8-0.9
		c0.4,0,0.8,0,1.1,0.1l0.3-3.6c-0.3-0.1-0.8-0.1-1.3-0.1C183.1,520.1,182.3,520.3,181.5,520.8 M169.8,531.1
		c-0.3-0.3-0.5-0.7-0.5-1.2v-6.7h3.9v-2.8h-3.9v-3h-2.4l-1.1,2.9l-2.1,1.3v1.6h1.8v6.7c0,1.5,0.3,2.7,1,3.5c0.7,0.8,1.8,1.2,3.3,1.2
		c1.4,0,2.5-0.2,3.5-0.6v-2.8c-0.9,0.3-1.7,0.4-2.4,0.4C170.5,531.5,170.1,531.4,169.8,531.1 M154.6,531.3h-3.5
		c-0.3,2-0.7,4-1.3,6.2h2.7c1-2.3,1.8-4.3,2.2-6L154.6,531.3z M144.7,531.1c-0.3-0.3-0.5-0.7-0.5-1.2v-6.7h3.9v-2.8h-3.9v-3h-2.4
		l-1.1,2.9l-2.1,1.3v1.6h1.8v6.7c0,1.5,0.3,2.7,1,3.5c0.7,0.8,1.8,1.2,3.3,1.2c1.4,0,2.5-0.2,3.5-0.6v-2.8c-0.9,0.3-1.7,0.4-2.4,0.4
		C145.4,531.5,145,531.4,144.7,531.1 M134.9,534.3c0.6-0.1,1.2-0.4,1.9-0.8v-3.2c-0.6,0.4-1.2,0.7-1.9,0.9c-0.6,0.2-1.3,0.3-2,0.3
		c-2,0-3-1.4-3-4.1c0-2.8,1-4.2,3-4.2c0.5,0,1,0.1,1.5,0.2c0.5,0.2,1.1,0.4,1.7,0.6l1.1-2.9c-1.3-0.6-2.7-0.9-4.3-0.9
		c-2.2,0-3.9,0.6-5.1,1.9c-1.2,1.2-1.8,3.1-1.8,5.4c0,4.8,2.2,7.1,6.5,7.1C133.5,534.5,134.3,534.5,134.9,534.3 M120.9,534.3
		c0.8-0.2,1.5-0.4,2.1-0.7v-2.9c-0.8,0.4-1.6,0.7-2.3,0.8c-0.7,0.2-1.5,0.3-2.4,0.3c-1.1,0-1.9-0.3-2.5-0.9c-0.6-0.6-0.9-1.4-1-2.5
		h9v-1.8c0-2-0.5-3.5-1.6-4.6c-1.1-1.1-2.6-1.7-4.6-1.7c-2.1,0-3.7,0.6-4.8,1.9c-1.2,1.3-1.7,3.1-1.7,5.4c0,2.3,0.6,4,1.9,5.2
		c1.3,1.2,3,1.9,5.2,1.9C119.3,534.5,120.2,534.4,120.9,534.3 M119.6,523.6c0.5,0.5,0.7,1.2,0.7,2.2H115c0.1-0.9,0.3-1.7,0.8-2.2
		c0.5-0.5,1.1-0.8,1.9-0.8C118.4,522.8,119.1,523.1,119.6,523.6 M107.9,514.9h-3.8v19.4h3.8V514.9z M100.1,514.9h-3.8v19.4h3.8
		V514.9z M92.4,523.5c-0.5-1.1-1.3-1.9-2.4-2.5c-1-0.6-2.2-0.9-3.5-0.9c-2.1,0-3.8,0.6-5,1.9s-1.8,3-1.8,5.3c0,1.5,0.3,2.7,0.8,3.8
		s1.3,1.9,2.4,2.5c1,0.6,2.2,0.9,3.5,0.9c2.1,0,3.8-0.6,5-1.9c1.2-1.3,1.8-3,1.8-5.3C93.2,525.8,92.9,524.6,92.4,523.5 M84.2,524.2
		c0.4-0.7,1.2-1,2.2-1c1,0,1.8,0.3,2.2,1c0.4,0.7,0.7,1.7,0.7,3.1c0,1.4-0.2,2.4-0.7,3.1c-0.4,0.7-1.2,1.1-2.2,1.1
		c-1,0-1.8-0.4-2.2-1.1c-0.5-0.7-0.7-1.7-0.7-3.1C83.6,525.9,83.8,524.9,84.2,524.2 M74.4,519.4c0.7,0.2,1.4,0.5,2.1,0.8l1.2-3.1
		c-1.8-0.9-3.6-1.3-5.3-1.3c-1.7,0-3.2,0.4-4.5,1.1c-1.3,0.8-2.3,1.8-3,3.3c-0.7,1.4-1,3.1-1,5c0,3,0.7,5.3,2.1,6.9
		c1.4,1.6,3.4,2.4,6.1,2.4c1.8,0,3.5-0.3,5-0.9v-3.2c-1.8,0.6-3.4,1-4.6,1c-3,0-4.6-2-4.6-6.1c0-1.9,0.4-3.5,1.2-4.6
		c0.8-1.1,1.9-1.6,3.4-1.6C73,519,73.7,519.2,74.4,519.4"/>
	<path class="st3" d="M788.9,528.4c-0.2-0.5-0.6-0.9-1.1-1.3c-0.5-0.4-1.3-0.8-2.4-1.2c-1.2-0.5-2-0.9-2.4-1.1
		c-0.4-0.2-0.5-0.5-0.5-0.9c0-0.6,0.6-0.9,1.7-0.9c0.6,0,1.2,0.1,1.9,0.3c0.6,0.2,1.3,0.4,2,0.7l1.1-2.7c-1.6-0.7-3.2-1.1-4.9-1.1
		c-1.8,0-3.1,0.3-4.1,1s-1.4,1.6-1.4,2.9c0,0.7,0.1,1.3,0.3,1.8c0.2,0.5,0.6,0.9,1.1,1.3c0.5,0.4,1.3,0.8,2.4,1.2
		c0.7,0.3,1.3,0.6,1.8,0.8c0.4,0.2,0.8,0.4,0.9,0.6c0.2,0.2,0.3,0.4,0.3,0.7c0,0.8-0.7,1.2-2.1,1.2c-0.7,0-1.4-0.1-2.3-0.3
		c-0.9-0.2-1.7-0.5-2.4-0.8v3.1c0.6,0.3,1.3,0.5,2,0.6c0.7,0.1,1.6,0.2,2.6,0.2c2,0,3.5-0.4,4.4-1.1c1-0.7,1.5-1.8,1.5-3.3
		C789.2,529.5,789.1,528.9,788.9,528.4 M776.2,528.4c-0.2-0.5-0.6-0.9-1.1-1.3c-0.5-0.4-1.3-0.8-2.4-1.2c-1.2-0.5-2-0.9-2.4-1.1
		c-0.4-0.2-0.5-0.5-0.5-0.9c0-0.6,0.6-0.9,1.7-0.9c0.6,0,1.2,0.1,1.9,0.3c0.6,0.2,1.3,0.4,2,0.7l1.1-2.7c-1.6-0.7-3.2-1.1-4.9-1.1
		c-1.8,0-3.1,0.3-4.1,1c-1,0.7-1.4,1.6-1.4,2.9c0,0.7,0.1,1.3,0.3,1.8c0.2,0.5,0.6,0.9,1.1,1.3c0.5,0.4,1.3,0.8,2.4,1.2
		c0.7,0.3,1.3,0.6,1.8,0.8c0.4,0.2,0.8,0.4,0.9,0.6c0.2,0.2,0.3,0.4,0.3,0.7c0,0.8-0.7,1.2-2.1,1.2c-0.7,0-1.4-0.1-2.3-0.3
		c-0.9-0.2-1.7-0.5-2.4-0.8v3.1c0.6,0.3,1.3,0.5,2,0.6c0.7,0.1,1.6,0.2,2.6,0.2c2,0,3.5-0.4,4.4-1.1c1-0.7,1.5-1.8,1.5-3.3
		C776.6,529.5,776.5,528.9,776.2,528.4 M760.9,534.3c0.8-0.2,1.5-0.4,2.1-0.7v-2.9c-0.8,0.4-1.6,0.7-2.3,0.8
		c-0.7,0.2-1.5,0.3-2.4,0.3c-1.1,0-1.9-0.3-2.5-0.9c-0.6-0.6-0.9-1.4-1-2.5h9v-1.8c0-2-0.5-3.5-1.6-4.6c-1.1-1.1-2.6-1.7-4.6-1.7
		c-2.1,0-3.7,0.6-4.8,1.9s-1.7,3.1-1.7,5.4c0,2.3,0.6,4,1.9,5.2c1.3,1.2,3,1.9,5.2,1.9C759.2,534.5,760.1,534.4,760.9,534.3
		 M759.5,523.6c0.5,0.5,0.7,1.2,0.7,2.2h-5.3c0.1-0.9,0.3-1.7,0.8-2.2c0.5-0.5,1.1-0.8,1.9-0.8C758.4,522.8,759,523.1,759.5,523.6
		 M746.7,534.3c0.6-0.2,1.2-0.4,1.9-0.8v-3.2c-0.6,0.4-1.2,0.7-1.9,0.9c-0.6,0.2-1.3,0.3-2,0.3c-2,0-3-1.4-3-4.1c0-2.8,1-4.2,3-4.2
		c0.5,0,1,0.1,1.5,0.2c0.5,0.2,1.1,0.4,1.7,0.6l1.1-2.9c-1.3-0.6-2.7-0.9-4.3-0.9c-2.2,0-3.9,0.6-5.1,1.9c-1.2,1.2-1.8,3.1-1.8,5.4
		c0,4.8,2.2,7.1,6.5,7.1C745.3,534.5,746.1,534.5,746.7,534.3 M734.8,523.5c-0.5-1.1-1.3-1.9-2.4-2.5c-1-0.6-2.2-0.9-3.5-0.9
		c-2.1,0-3.8,0.6-5,1.9c-1.2,1.3-1.8,3-1.8,5.3c0,1.5,0.3,2.7,0.8,3.8c0.5,1.1,1.3,1.9,2.4,2.5c1,0.6,2.2,0.9,3.5,0.9
		c2.1,0,3.8-0.6,5-1.9c1.2-1.3,1.8-3,1.8-5.3C735.6,525.8,735.3,524.6,734.8,523.5 M726.6,524.2c0.4-0.7,1.2-1,2.2-1
		c1,0,1.8,0.3,2.2,1c0.4,0.7,0.7,1.7,0.7,3.1c0,1.4-0.2,2.4-0.7,3.1c-0.4,0.7-1.2,1.1-2.2,1.1c-1,0-1.8-0.4-2.2-1.1
		c-0.5-0.7-0.7-1.7-0.7-3.1C726,525.9,726.2,524.9,726.6,524.2 M716.7,520.8c-0.7,0.5-1.3,1.1-1.7,1.9h-0.2l-0.6-2.3h-2.9v13.9h3.8
		v-7.1c0-1.1,0.3-2,1-2.6c0.7-0.6,1.6-0.9,2.8-0.9c0.4,0,0.8,0,1.1,0.1l0.3-3.6c-0.3-0.1-0.8-0.1-1.3-0.1
		C718.3,520.1,717.5,520.3,716.7,520.8 M703.7,524.2c0.4,0.7,0.6,1.7,0.6,3.1c0,2.8-0.9,4.2-2.6,4.2c-1,0-1.7-0.3-2.1-1
		c-0.4-0.6-0.7-1.7-0.7-3.2v-0.4c0-1.3,0.2-2.3,0.7-2.9c0.4-0.6,1.1-0.9,2.1-0.9C702.7,523.1,703.3,523.5,703.7,524.2 M705.7,533.7
		c0.8-0.6,1.4-1.4,1.9-2.5c0.4-1.1,0.7-2.4,0.7-3.9c0-2.3-0.5-4-1.4-5.3c-0.9-1.3-2.2-1.9-3.9-1.9c-1.7,0-3.1,0.7-3.9,2.1h-0.2
		l-0.5-1.8h-3.1v20h3.8v-5.6c0-0.2-0.1-0.9-0.2-2h0.2c0.9,1.2,2.2,1.8,3.8,1.8C704,534.5,704.9,534.2,705.7,533.7 M684.8,531.3h-3.5
		c-0.3,2-0.7,4-1.3,6.2h2.7c1-2.3,1.8-4.3,2.2-6L684.8,531.3z M675.3,534.3c0.8-0.2,1.5-0.4,2.1-0.7v-2.9c-0.8,0.4-1.6,0.7-2.3,0.8
		c-0.7,0.2-1.5,0.3-2.4,0.3c-1.1,0-1.9-0.3-2.5-0.9c-0.6-0.6-0.9-1.4-1-2.5h9v-1.8c0-2-0.5-3.5-1.6-4.6c-1.1-1.1-2.6-1.7-4.6-1.7
		c-2.1,0-3.7,0.6-4.8,1.9c-1.2,1.3-1.7,3.1-1.7,5.4c0,2.3,0.6,4,1.9,5.2c1.3,1.2,3,1.9,5.2,1.9C673.6,534.5,674.5,534.4,675.3,534.3
		 M673.9,523.6c0.5,0.5,0.7,1.2,0.7,2.2h-5.3c0.1-0.9,0.3-1.7,0.8-2.2c0.5-0.5,1.1-0.8,1.9-0.8C672.8,522.8,673.4,523.1,673.9,523.6
		 M656.6,522.4c1.4,0,2.1,0.8,2.1,2.5c0,0.8-0.2,1.4-0.5,1.8c-0.3,0.4-0.9,0.7-1.6,0.7c-0.7,0-1.2-0.2-1.6-0.7
		c-0.3-0.4-0.5-1-0.5-1.8C654.6,523.2,655.2,522.4,656.6,522.4 M653.9,534.9c0.5-0.3,1.1-0.5,1.7-0.5h2c1,0,1.7,0.1,2.1,0.3
		c0.5,0.2,0.7,0.6,0.7,1.1c0,0.6-0.4,1.2-1.2,1.5c-0.8,0.4-1.8,0.6-3.2,0.6c-0.9,0-1.6-0.1-2.1-0.4c-0.5-0.3-0.8-0.7-0.8-1.2
		C653.2,535.7,653.4,535.3,653.9,534.9 M659.1,520.4c-0.1,0-0.5-0.1-1-0.2c-0.5-0.1-1-0.1-1.4-0.1c-1.8,0-3.2,0.4-4.2,1.2
		c-1,0.8-1.5,2-1.5,3.5c0,0.9,0.2,1.8,0.6,2.5c0.4,0.7,1,1.2,1.7,1.5c-0.6,0.3-1,0.7-1.3,1c-0.3,0.4-0.5,0.8-0.5,1.3
		c0,0.4,0.1,0.8,0.4,1.2c0.3,0.4,0.6,0.6,1,0.8c-1,0.2-1.8,0.6-2.3,1.2c-0.5,0.6-0.8,1.3-0.8,2.1c0,1.2,0.5,2.2,1.5,2.8
		c1,0.7,2.5,1,4.4,1c2.5,0,4.5-0.4,5.8-1.3c1.4-0.9,2-2.2,2-3.8c0-1.3-0.4-2.2-1.2-2.9c-0.8-0.7-2-1-3.5-1h-2.4
		c-1.4,0-2.1-0.3-2.1-0.8c0-0.4,0.2-0.7,0.6-1l0.6,0.1l0.7,0c1.8,0,3.3-0.4,4.3-1.2c1-0.8,1.6-2,1.6-3.5c0-0.8-0.2-1.5-0.6-2.1
		l2.2-0.6v-1.9H659.1z M644.1,529c0,0.8-0.3,1.5-0.8,2c-0.5,0.5-1.2,0.8-2.1,0.8c-1.2,0-1.8-0.5-1.8-1.6c0-0.7,0.3-1.3,0.8-1.7
		c0.5-0.4,1.4-0.6,2.5-0.6l1.5,0V529z M647.9,534.3V525c0-1.7-0.5-2.9-1.5-3.7c-1-0.8-2.4-1.2-4.3-1.2c-1.9,0-3.7,0.4-5.3,1.3
		l1.3,2.6c1.5-0.7,2.8-1,3.9-1c1.4,0,2.2,0.7,2.2,2.1v0.6l-2.4,0.1c-2.1,0.1-3.6,0.5-4.7,1.2c-1,0.7-1.5,1.8-1.5,3.3
		c0,1.4,0.4,2.5,1.2,3.3s1.8,1.1,3.2,1.1c1.1,0,2-0.2,2.6-0.5c0.7-0.3,1.3-0.9,2-1.7h0.1l0.7,1.9H647.9z M632.5,525.2
		c0-1.7-0.4-2.9-1.3-3.8c-0.8-0.9-2.1-1.3-3.7-1.3c-0.9,0-1.8,0.2-2.5,0.5c-0.7,0.3-1.3,0.9-1.7,1.5h-0.2l-0.5-1.8h-2.9v13.9h3.8
		v-6.5c0-1.6,0.2-2.8,0.7-3.5c0.5-0.7,1.2-1.1,2.3-1.1c0.8,0,1.3,0.3,1.7,0.8c0.4,0.5,0.5,1.3,0.5,2.3v8.1h3.8V525.2z M612,529
		c0,0.8-0.3,1.5-0.8,2c-0.5,0.5-1.2,0.8-2.1,0.8c-1.2,0-1.8-0.5-1.8-1.6c0-0.7,0.3-1.3,0.8-1.7c0.5-0.4,1.4-0.6,2.5-0.6l1.5,0V529z
		 M615.8,534.3V525c0-1.7-0.5-2.9-1.5-3.7c-1-0.8-2.4-1.2-4.3-1.2c-1.9,0-3.7,0.4-5.3,1.3l1.3,2.6c1.5-0.7,2.8-1,3.9-1
		c1.4,0,2.2,0.7,2.2,2.1v0.6l-2.4,0.1c-2.1,0.1-3.6,0.5-4.7,1.2c-1,0.7-1.5,1.8-1.5,3.3c0,1.4,0.4,2.5,1.2,3.3
		c0.8,0.8,1.8,1.1,3.2,1.1c1.1,0,2-0.2,2.6-0.5s1.3-0.9,2-1.7h0.1l0.7,1.9H615.8z M591.8,534.3l4.7-14.2h0.1
		c-0.1,2.3-0.2,3.7-0.2,4.2c0,0.5,0,1,0,1.4v8.6h3.6v-18.2h-5.2l-4.6,13.9h-0.1l-4.3-13.9h-5.2v18.2h3.4v-8.5c0-1-0.1-2.9-0.2-5.8
		h0.1l4.4,14.3H591.8z"/>
	<path class="st2" d="M1487.1,346.5v-6.2c0-1.2-0.3-2.1-0.9-2.7c-0.6-0.6-1.4-0.8-2.6-0.8c-0.7,0-1.3,0.1-1.8,0.4
		c-0.5,0.3-0.9,0.6-1.2,1.1h-0.1l-0.2-1.3h-1.2v9.5h1.4v-5c0-1.2,0.2-2.1,0.7-2.7c0.5-0.5,1.2-0.8,2.2-0.8c0.8,0,1.3,0.2,1.7,0.6
		c0.4,0.4,0.5,1,0.5,1.7v6.2H1487.1z M1470.1,339c0.5-0.6,1.2-0.9,2.1-0.9c1,0,1.7,0.3,2.2,0.9c0.5,0.6,0.7,1.6,0.7,2.8
		c0,1.2-0.2,2.2-0.7,2.8s-1.2,1-2.2,1c-0.9,0-1.7-0.3-2.2-1c-0.5-0.6-0.7-1.6-0.7-2.8C1469.3,340.5,1469.6,339.6,1470.1,339
		 M1475.4,338.1c-0.8-0.9-1.8-1.3-3.2-1.3c-1.4,0-2.5,0.4-3.2,1.3c-0.8,0.9-1.2,2.1-1.2,3.6c0,1,0.2,1.9,0.5,2.6
		c0.4,0.7,0.9,1.3,1.5,1.7c0.7,0.4,1.4,0.6,2.3,0.6c1.4,0,2.5-0.4,3.2-1.3c0.8-0.9,1.2-2.1,1.2-3.6
		C1476.6,340.2,1476.2,339,1475.4,338.1 M1464,335.1c0.2,0.2,0.4,0.2,0.6,0.2c0.2,0,0.4-0.1,0.6-0.2c0.2-0.2,0.3-0.4,0.3-0.7
		c0-0.3-0.1-0.6-0.3-0.7c-0.2-0.2-0.4-0.2-0.6-0.2c-0.2,0-0.4,0.1-0.6,0.2c-0.2,0.2-0.2,0.4-0.2,0.7
		C1463.7,334.7,1463.8,335,1464,335.1 M1465.3,337h-1.4v9.5h1.4V337z M1459.5,345c-0.3-0.3-0.4-0.7-0.4-1.3v-5.6h2.8V337h-2.8v-2.2
		h-0.8l-0.6,2l-1.4,0.6v0.7h1.4v5.7c0,1.9,0.9,2.9,2.8,2.9c0.2,0,0.5,0,0.8-0.1c0.3,0,0.5-0.1,0.7-0.2v-1.1c-0.1,0-0.3,0.1-0.6,0.1
		c-0.2,0-0.5,0.1-0.7,0.1C1460.2,345.5,1459.8,345.3,1459.5,345 M1448.9,345.1c-0.3-0.3-0.5-0.7-0.5-1.2c0-0.7,0.3-1.2,0.8-1.5
		c0.5-0.3,1.3-0.5,2.5-0.5l1.4-0.1v0.9c0,0.9-0.3,1.6-0.8,2.1c-0.5,0.5-1.2,0.7-2.1,0.7C1449.7,345.5,1449.2,345.4,1448.9,345.1
		 M1454.6,346.5V340c0-1.1-0.3-1.9-0.8-2.4c-0.5-0.5-1.4-0.8-2.5-0.8c-0.6,0-1.1,0.1-1.7,0.2c-0.6,0.1-1.1,0.3-1.5,0.6l0.4,1.1
		c1-0.5,1.9-0.7,2.7-0.7c0.7,0,1.2,0.2,1.5,0.5c0.3,0.4,0.5,0.9,0.5,1.7v0.6l-1.6,0.1c-3.1,0.1-4.6,1.1-4.6,3c0,0.9,0.3,1.6,0.8,2.1
		c0.5,0.5,1.3,0.7,2.2,0.7c0.7,0,1.3-0.1,1.8-0.3c0.5-0.2,0.9-0.6,1.4-1.2h0.1l0.3,1.4H1454.6z M1443.1,337.3
		c-0.5,0.3-0.9,0.8-1.3,1.4h-0.1l-0.2-1.8h-1.2v9.5h1.4v-5.1c0-0.9,0.3-1.7,0.8-2.3c0.5-0.6,1.2-0.9,2-0.9c0.3,0,0.6,0,1,0.1
		l0.2-1.3c-0.3-0.1-0.7-0.1-1.1-0.1C1444.1,336.8,1443.6,337,1443.1,337.3 M1436,345c-0.3-0.3-0.4-0.7-0.4-1.3v-5.6h2.8V337h-2.8
		v-2.2h-0.8l-0.6,2l-1.4,0.6v0.7h1.4v5.7c0,1.9,0.9,2.9,2.8,2.9c0.2,0,0.5,0,0.8-0.1c0.3,0,0.5-0.1,0.7-0.2v-1.1
		c-0.1,0-0.3,0.1-0.6,0.1c-0.2,0-0.5,0.1-0.7,0.1C1436.7,345.5,1436.3,345.3,1436,345 M1431.1,342.3c-0.4-0.4-1.2-0.8-2.3-1.2
		c-0.8-0.3-1.4-0.5-1.7-0.7c-0.3-0.2-0.5-0.3-0.6-0.5c-0.1-0.2-0.2-0.4-0.2-0.7c0-0.4,0.2-0.7,0.5-0.9c0.3-0.2,0.9-0.3,1.6-0.3
		c0.8,0,1.6,0.2,2.6,0.6l0.5-1.2c-1-0.4-2-0.6-3-0.6c-1.1,0-2,0.2-2.6,0.7c-0.6,0.4-0.9,1.1-0.9,1.8c0,0.4,0.1,0.8,0.3,1.1
		c0.2,0.3,0.5,0.6,0.8,0.8c0.4,0.2,1,0.5,1.9,0.9c0.9,0.4,1.6,0.7,1.9,0.9c0.3,0.3,0.5,0.6,0.5,1c0,0.5-0.2,0.9-0.6,1.1
		c-0.4,0.2-1,0.4-1.7,0.4c-0.5,0-1-0.1-1.5-0.2c-0.5-0.1-1-0.3-1.5-0.5v1.3c0.7,0.4,1.7,0.6,3,0.6c1.2,0,2.1-0.2,2.8-0.7
		c0.7-0.5,1-1.2,1-2.1C1431.7,343.3,1431.5,342.8,1431.1,342.3 M1421.2,335.1c0.2,0.2,0.4,0.2,0.6,0.2c0.2,0,0.4-0.1,0.6-0.2
		c0.2-0.2,0.3-0.4,0.3-0.7c0-0.3-0.1-0.6-0.3-0.7c-0.2-0.2-0.4-0.2-0.6-0.2c-0.2,0-0.4,0.1-0.6,0.2c-0.2,0.2-0.2,0.4-0.2,0.7
		C1420.9,334.7,1421,335,1421.2,335.1 M1422.5,337h-1.4v9.5h1.4V337z M1418.1,346.5v-6.2c0-1.2-0.3-2.1-0.9-2.7
		c-0.6-0.6-1.4-0.8-2.6-0.8c-0.7,0-1.3,0.1-1.8,0.4c-0.5,0.3-0.9,0.6-1.2,1.1h-0.1l-0.2-1.3h-1.2v9.5h1.4v-5c0-1.2,0.2-2.1,0.7-2.7
		c0.5-0.5,1.2-0.8,2.2-0.8c0.8,0,1.3,0.2,1.7,0.6c0.4,0.4,0.5,1,0.5,1.7v6.2H1418.1z M1405.7,335.1c0.2,0.2,0.4,0.2,0.6,0.2
		c0.2,0,0.4-0.1,0.6-0.2c0.2-0.2,0.3-0.4,0.3-0.7c0-0.3-0.1-0.6-0.3-0.7c-0.2-0.2-0.4-0.2-0.6-0.2c-0.2,0-0.4,0.1-0.6,0.2
		c-0.2,0.2-0.2,0.4-0.2,0.7C1405.5,334.7,1405.6,335,1405.7,335.1 M1407,337h-1.4v9.5h1.4V337z M1402.6,346.5v-6.2
		c0-1.2-0.3-2.1-0.8-2.7c-0.5-0.6-1.3-0.8-2.4-0.8c-0.7,0-1.3,0.1-1.8,0.4c-0.5,0.3-1,0.7-1.2,1.2h-0.1c-0.5-1.1-1.4-1.6-2.9-1.6
		c-0.6,0-1.2,0.1-1.7,0.4c-0.5,0.3-0.9,0.6-1.2,1.1h-0.1l-0.2-1.3h-1.2v9.5h1.4v-5c0-1.2,0.2-2.1,0.6-2.7c0.4-0.5,1.1-0.8,2-0.8
		c0.7,0,1.2,0.2,1.5,0.6c0.3,0.4,0.5,1,0.5,1.7v6.2h1.4v-5.3c0-1.1,0.2-1.9,0.6-2.4c0.4-0.5,1.1-0.8,2-0.8c0.7,0,1.2,0.2,1.5,0.6
		c0.3,0.4,0.5,1,0.5,1.7v6.2H1402.6z M1379.7,344.5c-0.4-0.6-0.7-1.5-0.7-2.8c0-1.2,0.2-2.1,0.7-2.8c0.4-0.7,1.1-1,1.9-1
		c1,0,1.7,0.3,2.2,0.9c0.5,0.6,0.7,1.5,0.7,2.9v0.3c0,1.2-0.2,2.1-0.7,2.6c-0.4,0.5-1.2,0.8-2.1,0.8
		C1380.8,345.5,1380.2,345.2,1379.7,344.5 M1384.8,346.5h1.2V333h-1.4v3.9l0,0.7l0.1,0.7h-0.1c-0.7-0.9-1.7-1.4-3-1.4
		c-1.2,0-2.2,0.4-2.9,1.3c-0.7,0.9-1,2.1-1,3.7c0,1.6,0.3,2.8,1,3.6c0.7,0.9,1.7,1.3,2.9,1.3c1.3,0,2.3-0.5,3-1.5h0.1L1384.8,346.5z
		 M1368.8,341.1l1.5-3.9c0.2-0.7,0.4-1.3,0.5-1.8c0.2,0.7,0.4,1.3,0.6,1.8l1.5,3.9H1368.8z M1376.5,346.5l-5-12.8h-1.2l-5,12.8h1.5
		l1.6-4h5.1l1.6,4H1376.5z"/>
	<path class="st2" d="M1462.8,448.8l2.6-9.5h-1.5c-1.1,4.2-1.7,6.6-1.8,7c-0.1,0.4-0.2,0.8-0.2,1h-0.1c-0.1-0.7-0.3-1.5-0.7-2.5
		l-1.7-5.5h-1.6l-1.8,5.5c-0.1,0.3-0.2,0.7-0.4,1.2c-0.1,0.5-0.2,1-0.3,1.3h-0.1c0-0.4-0.2-1.3-0.6-2.5c-0.3-1.3-0.8-3.1-1.4-5.5
		h-1.5l2.6,9.5h1.7l1.8-5.6c0.2-0.6,0.4-1.3,0.6-2.4h0.1c0.3,1.2,0.5,2,0.6,2.3l1.8,5.6H1462.8z M1448.7,441.1
		c0.4,0.5,0.6,1.2,0.6,2.1h-5c0.1-0.9,0.4-1.6,0.8-2.1c0.5-0.5,1.1-0.7,1.8-0.7C1447.7,440.3,1448.3,440.6,1448.7,441.1 M1449,448.9
		c0.5-0.1,0.9-0.3,1.4-0.5v-1.3c-1,0.4-2,0.6-3,0.6c-1,0-1.7-0.3-2.3-0.9c-0.5-0.6-0.8-1.4-0.8-2.6h6.6v-0.9c0-1.3-0.3-2.3-1-3.1
		c-0.7-0.8-1.6-1.2-2.8-1.2c-1.3,0-2.3,0.5-3.1,1.4c-0.8,0.9-1.1,2.1-1.1,3.7c0,1.5,0.4,2.7,1.2,3.6c0.8,0.9,1.9,1.3,3.3,1.3
		C1448,449,1448.5,449,1449,448.9 M1438.9,437.4c0.2,0.2,0.4,0.2,0.6,0.2c0.2,0,0.4-0.1,0.6-0.2c0.2-0.2,0.3-0.4,0.3-0.7
		c0-0.3-0.1-0.6-0.3-0.7c-0.2-0.2-0.4-0.2-0.6-0.2c-0.2,0-0.4,0.1-0.6,0.2c-0.2,0.2-0.2,0.4-0.2,0.7
		C1438.6,437,1438.7,437.3,1438.9,437.4 M1440.2,439.3h-1.4v9.5h1.4V439.3z M1433.6,448.8l3.6-9.5h-1.6c-1.2,3.3-1.9,5.4-2.3,6.3
		c-0.3,1-0.5,1.6-0.6,1.9h-0.1c-0.1-0.4-0.4-1.3-0.8-2.6l-2.1-5.7h-1.6l3.6,9.5H1433.6z M1425.3,439.6c-0.5,0.3-0.9,0.8-1.3,1.4
		h-0.1l-0.2-1.8h-1.2v9.5h1.4v-5.1c0-0.9,0.3-1.7,0.8-2.3c0.5-0.6,1.2-0.9,2-0.9c0.3,0,0.6,0,1,0.1l0.2-1.3
		c-0.3-0.1-0.7-0.1-1.1-0.1C1426.3,439.1,1425.8,439.3,1425.3,439.6 M1417.9,441.1c0.4,0.5,0.6,1.2,0.6,2.1h-5
		c0.1-0.9,0.4-1.6,0.8-2.1c0.5-0.5,1.1-0.7,1.8-0.7C1416.9,440.3,1417.5,440.6,1417.9,441.1 M1418.2,448.9c0.5-0.1,0.9-0.3,1.4-0.5
		v-1.3c-1,0.4-2,0.6-3,0.6c-1,0-1.7-0.3-2.3-0.9c-0.5-0.6-0.8-1.4-0.8-2.6h6.6v-0.9c0-1.3-0.3-2.3-1-3.1c-0.7-0.8-1.6-1.2-2.8-1.2
		c-1.3,0-2.3,0.5-3.1,1.4c-0.8,0.9-1.1,2.1-1.1,3.7c0,1.5,0.4,2.7,1.2,3.6c0.8,0.9,1.9,1.3,3.3,1.3
		C1417.2,449,1417.8,449,1418.2,448.9 M1407.4,448.8l3.6-9.5h-1.6c-1.2,3.3-1.9,5.4-2.3,6.3c-0.3,1-0.5,1.6-0.6,1.9h-0.1
		c-0.1-0.4-0.4-1.3-0.8-2.6l-2.1-5.7h-1.6l3.6,9.5H1407.4z M1392,438.6c0.7-0.9,1.8-1.3,3.2-1.3c1.4,0,2.5,0.4,3.2,1.3
		c0.7,0.9,1.1,2.2,1.1,3.9c0,1.7-0.4,3-1.1,3.9c-0.7,0.9-1.8,1.3-3.2,1.3c-1.4,0-2.5-0.4-3.2-1.3c-0.7-0.9-1.1-2.2-1.1-3.9
		C1390.8,440.8,1391.2,439.5,1392,438.6 M1399.5,437.7c-1-1.2-2.5-1.7-4.3-1.7c-1.9,0-3.3,0.6-4.4,1.7c-1,1.1-1.5,2.7-1.5,4.8
		c0,2.1,0.5,3.7,1.5,4.9c1,1.1,2.5,1.7,4.3,1.7c1.8,0,3.3-0.6,4.3-1.8c1-1.2,1.5-2.8,1.5-4.8C1401,440.4,1400.5,438.8,1399.5,437.7"
		/>
	<path class="st2" d="M1503.3,524.3c-0.4-0.4-1.2-0.8-2.3-1.2c-0.8-0.3-1.4-0.5-1.7-0.7c-0.3-0.2-0.5-0.3-0.6-0.5
		c-0.1-0.2-0.2-0.4-0.2-0.7c0-0.4,0.2-0.7,0.5-0.9c0.3-0.2,0.9-0.3,1.6-0.3c0.8,0,1.6,0.2,2.6,0.6l0.5-1.2c-1-0.4-2-0.6-3-0.6
		c-1.1,0-2,0.2-2.6,0.7c-0.6,0.4-0.9,1.1-0.9,1.8c0,0.4,0.1,0.8,0.3,1.1c0.2,0.3,0.5,0.6,0.8,0.8c0.4,0.2,1,0.5,1.9,0.9
		c0.9,0.4,1.6,0.7,1.9,0.9c0.3,0.3,0.5,0.6,0.5,1c0,0.5-0.2,0.9-0.6,1.1c-0.4,0.2-1,0.4-1.7,0.4c-0.5,0-1-0.1-1.5-0.2
		c-0.5-0.1-1-0.3-1.5-0.5v1.3c0.7,0.4,1.7,0.6,3,0.6c1.2,0,2.1-0.2,2.8-0.7c0.7-0.5,1-1.2,1-2.1
		C1503.9,525.2,1503.7,524.7,1503.3,524.3 M1493.2,519.2c-0.5,0.3-0.9,0.8-1.3,1.4h-0.1l-0.2-1.8h-1.2v9.5h1.4v-5.1
		c0-0.9,0.3-1.7,0.8-2.3c0.5-0.6,1.2-0.9,2-0.9c0.3,0,0.6,0,1,0.1l0.2-1.3c-0.3-0.1-0.7-0.1-1.1-0.1
		C1494.2,518.7,1493.7,518.9,1493.2,519.2 M1485.8,520.7c0.4,0.5,0.6,1.2,0.6,2.1h-5c0.1-0.9,0.3-1.6,0.8-2.1
		c0.5-0.5,1.1-0.7,1.8-0.7C1484.9,519.9,1485.4,520.2,1485.8,520.7 M1486.1,528.5c0.5-0.1,0.9-0.3,1.4-0.5v-1.3c-1,0.4-2,0.6-3,0.6
		c-1,0-1.7-0.3-2.3-0.9c-0.5-0.6-0.8-1.4-0.8-2.6h6.6V523c0-1.3-0.3-2.3-1-3.1c-0.7-0.8-1.6-1.2-2.8-1.2c-1.3,0-2.3,0.5-3.1,1.4
		s-1.1,2.1-1.1,3.7c0,1.5,0.4,2.7,1.2,3.6c0.8,0.9,1.9,1.3,3.3,1.3C1485.1,528.6,1485.7,528.6,1486.1,528.5 M1472.2,520.3
		c0.4-0.4,0.9-0.5,1.6-0.5c1.4,0,2.1,0.7,2.1,2.2c0,1.4-0.7,2.1-2.1,2.1c-0.7,0-1.2-0.2-1.6-0.5c-0.4-0.3-0.6-0.8-0.6-1.5
		C1471.7,521.2,1471.9,520.7,1472.2,520.3 M1471.4,528.7c0.4-0.3,0.9-0.5,1.5-0.5h1.7c0.9,0,1.5,0.1,1.8,0.3
		c0.3,0.2,0.5,0.6,0.5,1.1c0,0.6-0.3,1.1-0.9,1.5c-0.6,0.4-1.5,0.5-2.7,0.5c-0.8,0-1.4-0.1-1.9-0.4c-0.4-0.3-0.7-0.7-0.7-1.2
		C1470.9,529.4,1471.1,529,1471.4,528.7 M1475.2,518.9c-0.4-0.1-0.9-0.2-1.4-0.2c-1.1,0-2,0.3-2.7,0.8c-0.6,0.6-0.9,1.4-0.9,2.4
		c0,0.6,0.2,1.2,0.5,1.7c0.3,0.5,0.7,0.8,1.2,1c-0.4,0.2-0.7,0.5-0.9,0.8c-0.2,0.3-0.3,0.6-0.3,0.9c0,0.3,0.1,0.6,0.2,0.8
		c0.2,0.2,0.4,0.4,0.6,0.5c-0.7,0.2-1.2,0.4-1.6,0.9c-0.4,0.4-0.6,0.9-0.6,1.5c0,0.8,0.3,1.5,1,2c0.7,0.5,1.6,0.7,2.9,0.7
		c1.6,0,2.9-0.3,3.7-0.8c0.8-0.6,1.3-1.4,1.3-2.4c0-0.8-0.3-1.5-0.8-1.9c-0.6-0.4-1.3-0.7-2.4-0.7h-1.7c-0.5,0-0.9-0.1-1.1-0.2
		c-0.2-0.1-0.3-0.3-0.3-0.6c0-0.5,0.3-0.9,0.9-1.2c0.2,0,0.5,0.1,0.8,0.1c1.1,0,2-0.3,2.6-0.8c0.6-0.6,1-1.3,1-2.2
		c0-0.4-0.1-0.8-0.2-1.1c-0.1-0.3-0.3-0.6-0.4-0.8l1.8-0.2v-0.9H1475.2z M1467.7,528.4v-6.2c0-1.2-0.3-2.1-0.9-2.7
		c-0.6-0.6-1.4-0.8-2.6-0.8c-0.7,0-1.3,0.1-1.8,0.4c-0.5,0.3-0.9,0.6-1.2,1.1h-0.1l-0.2-1.3h-1.2v9.5h1.4v-5c0-1.2,0.2-2.1,0.7-2.7
		c0.5-0.5,1.2-0.8,2.2-0.8c0.8,0,1.3,0.2,1.7,0.6c0.4,0.4,0.5,1,0.5,1.7v6.2H1467.7z M1455.1,520.7c0.4,0.5,0.6,1.2,0.6,2.1h-5
		c0.1-0.9,0.3-1.6,0.8-2.1c0.5-0.5,1.1-0.7,1.8-0.7C1454.1,519.9,1454.7,520.2,1455.1,520.7 M1455.4,528.5c0.5-0.1,0.9-0.3,1.4-0.5
		v-1.3c-1,0.4-2,0.6-3,0.6c-1,0-1.7-0.3-2.3-0.9c-0.5-0.6-0.8-1.4-0.8-2.6h6.6V523c0-1.3-0.3-2.3-1-3.1c-0.7-0.8-1.6-1.2-2.8-1.2
		c-1.3,0-2.3,0.5-3.1,1.4c-0.8,0.9-1.1,2.1-1.1,3.7c0,1.5,0.4,2.7,1.2,3.6c0.8,0.9,1.9,1.3,3.3,1.3
		C1454.4,528.6,1455,528.6,1455.4,528.5 M1446.8,524.3c-0.4-0.4-1.2-0.8-2.3-1.2c-0.8-0.3-1.4-0.5-1.7-0.7c-0.3-0.2-0.5-0.3-0.6-0.5
		c-0.1-0.2-0.2-0.4-0.2-0.7c0-0.4,0.2-0.7,0.5-0.9c0.3-0.2,0.9-0.3,1.5-0.3c0.8,0,1.6,0.2,2.6,0.6l0.5-1.2c-1-0.4-2-0.6-3-0.6
		c-1.1,0-2,0.2-2.6,0.7c-0.6,0.4-0.9,1.1-0.9,1.8c0,0.4,0.1,0.8,0.3,1.1c0.2,0.3,0.5,0.6,0.8,0.8c0.4,0.2,1,0.5,1.9,0.9
		c0.9,0.4,1.6,0.7,1.9,0.9c0.3,0.3,0.5,0.6,0.5,1c0,0.5-0.2,0.9-0.6,1.1c-0.4,0.2-1,0.4-1.7,0.4c-0.5,0-1-0.1-1.5-0.2
		c-0.5-0.1-1-0.3-1.5-0.5v1.3c0.7,0.4,1.7,0.6,3,0.6c1.2,0,2.1-0.2,2.8-0.7c0.7-0.5,1-1.2,1-2.1
		C1447.4,525.2,1447.2,524.7,1446.8,524.3 M1438.3,524.3c-0.4-0.4-1.2-0.8-2.3-1.2c-0.8-0.3-1.4-0.5-1.7-0.7
		c-0.3-0.2-0.5-0.3-0.6-0.5c-0.1-0.2-0.2-0.4-0.2-0.7c0-0.4,0.2-0.7,0.5-0.9c0.3-0.2,0.9-0.3,1.6-0.3c0.8,0,1.6,0.2,2.6,0.6l0.5-1.2
		c-1-0.4-2-0.6-3-0.6c-1.1,0-2,0.2-2.6,0.7c-0.6,0.4-0.9,1.1-0.9,1.8c0,0.4,0.1,0.8,0.3,1.1c0.2,0.3,0.5,0.6,0.8,0.8
		c0.4,0.2,1,0.5,1.9,0.9c0.9,0.4,1.6,0.7,1.9,0.9c0.3,0.3,0.5,0.6,0.5,1c0,0.5-0.2,0.9-0.6,1.1c-0.4,0.2-1,0.4-1.7,0.4
		c-0.5,0-1-0.1-1.5-0.2c-0.5-0.1-1-0.3-1.5-0.5v1.3c0.7,0.4,1.7,0.6,3,0.6c1.2,0,2.1-0.2,2.8-0.7c0.7-0.5,1-1.2,1-2.1
		C1438.9,525.2,1438.7,524.7,1438.3,524.3 M1428.1,520.7c0.4,0.5,0.6,1.2,0.6,2.1h-5c0.1-0.9,0.3-1.6,0.8-2.1
		c0.5-0.5,1.1-0.7,1.8-0.7C1427.1,519.9,1427.7,520.2,1428.1,520.7 M1428.4,528.5c0.5-0.1,0.9-0.3,1.4-0.5v-1.3c-1,0.4-2,0.6-3,0.6
		c-1,0-1.7-0.3-2.3-0.9c-0.5-0.6-0.8-1.4-0.8-2.6h6.6V523c0-1.3-0.3-2.3-1-3.1c-0.7-0.8-1.6-1.2-2.8-1.2c-1.3,0-2.3,0.5-3.1,1.4
		c-0.8,0.9-1.1,2.1-1.1,3.7c0,1.5,0.4,2.7,1.2,3.6c0.8,0.9,1.9,1.3,3.3,1.3C1427.4,528.6,1427.9,528.6,1428.4,528.5 M1413.7,528.4
		l4.4-11.3h0.1c-0.1,1.1-0.1,2.1-0.1,3.1v8.2h1.5v-12.7h-2.2l-4.1,10.5h-0.1l-4-10.5h-2.2v12.7h1.4v-8.1c0-1.2,0-2.3-0.1-3.2h0.1
		l4.3,11.3H1413.7z M1397.5,526.4c-0.1,0.5-0.2,1.2-0.4,2.1c-0.2,0.9-0.4,1.6-0.5,2.2h1.1c0.3-0.7,0.6-1.4,0.9-2.1
		c0.3-0.8,0.5-1.4,0.7-2l-0.1-0.2H1397.5z M1394.5,514.9h-1.4v13.6h1.4V514.9z M1388.7,517c0.2,0.2,0.4,0.2,0.6,0.2
		c0.2,0,0.4-0.1,0.6-0.2c0.2-0.2,0.3-0.4,0.3-0.7c0-0.3-0.1-0.6-0.3-0.7c-0.2-0.2-0.4-0.2-0.6-0.2c-0.2,0-0.4,0.1-0.6,0.2
		c-0.2,0.2-0.2,0.4-0.2,0.7C1388.5,516.6,1388.5,516.9,1388.7,517 M1390,518.9h-1.4v9.5h1.4V518.9z M1379.9,527
		c-0.3-0.3-0.5-0.7-0.5-1.2c0-0.7,0.3-1.2,0.8-1.5c0.5-0.3,1.3-0.5,2.5-0.5l1.4-0.1v0.9c0,0.9-0.3,1.6-0.8,2.1
		c-0.5,0.5-1.2,0.7-2.1,0.7C1380.7,527.4,1380.3,527.3,1379.9,527 M1385.6,528.4v-6.5c0-1.1-0.3-1.9-0.8-2.4
		c-0.5-0.5-1.4-0.8-2.5-0.8c-0.6,0-1.1,0.1-1.7,0.2s-1.1,0.3-1.5,0.6l0.4,1.1c1-0.5,1.9-0.7,2.7-0.7c0.7,0,1.2,0.2,1.5,0.5
		c0.3,0.4,0.5,0.9,0.5,1.7v0.6l-1.6,0.1c-3.1,0.1-4.6,1.1-4.6,3c0,0.9,0.3,1.6,0.8,2.1c0.5,0.5,1.3,0.7,2.2,0.7
		c0.7,0,1.3-0.1,1.8-0.3c0.5-0.2,0.9-0.6,1.4-1.2h0.1l0.3,1.4H1385.6z M1375.7,528.4v-6.2c0-1.2-0.3-2.1-0.8-2.7
		c-0.5-0.6-1.3-0.8-2.4-0.8c-0.7,0-1.3,0.1-1.8,0.4s-1,0.7-1.2,1.2h-0.1c-0.5-1.1-1.4-1.6-2.9-1.6c-0.6,0-1.2,0.1-1.7,0.4
		c-0.5,0.3-0.9,0.6-1.2,1.1h-0.1l-0.2-1.3h-1.2v9.5h1.4v-5c0-1.2,0.2-2.1,0.6-2.7c0.4-0.5,1.1-0.8,2-0.8c0.7,0,1.2,0.2,1.5,0.6
		c0.3,0.4,0.5,1,0.5,1.7v6.2h1.4v-5.3c0-1.1,0.2-1.9,0.6-2.4c0.4-0.5,1.1-0.8,2-0.8c0.7,0,1.2,0.2,1.5,0.6c0.3,0.4,0.5,1,0.5,1.7
		v6.2H1375.7z M1359.5,527.1h-5.6v-4.7h5.3v-1.3h-5.3V517h5.6v-1.3h-7.1v12.7h7.1V527.1z"/>
	<path class="st3" d="M220.2,303.5c0-8.4,6.8-15.2,15.2-15.2c8.4,0,15.2,6.8,15.2,15.2c0,8.4-6.8,15.2-15.2,15.2
		C227.1,318.7,220.2,311.9,220.2,303.5"/>
	<path class="st4" d="M220.2,303.5c0-8.4,6.8-15.2,15.2-15.2c8.4,0,15.2,6.8,15.2,15.2c0,8.4-6.8,15.2-15.2,15.2
		C227.1,318.7,220.2,311.9,220.2,303.5z"/>
	<path class="st5" d="M229.7,303.5c0-3.2,2.6-5.8,5.8-5.8c3.2,0,5.8,2.6,5.8,5.8c0,3.2-2.6,5.8-5.8,5.8
		C232.3,309.3,229.7,306.7,229.7,303.5"/>
	<path class="st3" d="M220.2,224.8c0-8.4,6.8-15.2,15.2-15.2c8.4,0,15.2,6.8,15.2,15.2c0,8.4-6.8,15.2-15.2,15.2
		C227.1,240.1,220.2,233.2,220.2,224.8"/>
	<path class="st4" d="M220.2,224.8c0-8.4,6.8-15.2,15.2-15.2c8.4,0,15.2,6.8,15.2,15.2c0,8.4-6.8,15.2-15.2,15.2
		C227.1,240.1,220.2,233.2,220.2,224.8z"/>
	<path class="st2" d="M229.7,224.8c0-3.2,2.6-5.8,5.8-5.8c3.2,0,5.8,2.6,5.8,5.8c0,3.2-2.6,5.8-5.8,5.8
		C232.3,230.6,229.7,228,229.7,224.8"/>
	<path class="st3" d="M220.2,145.6c0-8.4,6.8-15.2,15.2-15.2c8.4,0,15.2,6.8,15.2,15.2c0,8.4-6.8,15.2-15.2,15.2
		C227.1,160.9,220.2,154.1,220.2,145.6"/>
	<path class="st4" d="M220.2,145.6c0-8.4,6.8-15.2,15.2-15.2c8.4,0,15.2,6.8,15.2,15.2c0,8.4-6.8,15.2-15.2,15.2
		C227.1,160.9,220.2,154.1,220.2,145.6z"/>
	<path class="st6" d="M229.7,145.6c0-3.2,2.6-5.8,5.8-5.8c3.2,0,5.8,2.6,5.8,5.8c0,3.2-2.6,5.8-5.8,5.8
		C232.3,151.4,229.7,148.8,229.7,145.6"/>
	<path class="st3" d="M220.2,384.1c0-8.4,6.8-15.2,15.2-15.2c8.4,0,15.2,6.8,15.2,15.2c0,8.4-6.8,15.2-15.2,15.2
		C227.1,399.3,220.2,392.5,220.2,384.1"/>
	<path class="st4" d="M220.2,384.1c0-8.4,6.8-15.2,15.2-15.2c8.4,0,15.2,6.8,15.2,15.2c0,8.4-6.8,15.2-15.2,15.2
		C227.1,399.3,220.2,392.5,220.2,384.1z"/>
	<path class="st7" d="M229.7,384.1c0-3.2,2.6-5.8,5.8-5.8c3.2,0,5.8,2.6,5.8,5.8c0,3.2-2.6,5.8-5.8,5.8
		C232.3,389.8,229.7,387.3,229.7,384.1"/>
	<path class="st7" d="M161.5,385.6c0-3.2,2.6-5.8,5.8-5.8c3.2,0,5.8,2.6,5.8,5.8c0,3.2-2.6,5.8-5.8,5.8
		C164.1,391.4,161.5,388.8,161.5,385.6"/>
	<path class="st5" d="M161.5,305.5c0-3.2,2.6-5.8,5.8-5.8c3.2,0,5.8,2.6,5.8,5.8c0,3.2-2.6,5.8-5.8,5.8
		C164.1,311.3,161.5,308.7,161.5,305.5"/>
	<path class="st7" d="M85.8,358.9c0-3.2,2.6-5.8,5.8-5.8c3.2,0,5.8,2.6,5.8,5.8c0,3.2-2.6,5.8-5.8,5.8
		C88.3,364.6,85.8,362.1,85.8,358.9"/>
	<path class="st7" d="M85.8,407.5c0-3.2,2.6-5.8,5.8-5.8c3.2,0,5.8,2.6,5.8,5.8c0,3.2-2.6,5.8-5.8,5.8
		C88.3,413.2,85.8,410.6,85.8,407.5"/>
	<path class="st2" d="M84.9,224.8c0-3.2,2.6-5.8,5.8-5.8c3.2,0,5.8,2.6,5.8,5.8c0,3.2-2.6,5.8-5.8,5.8
		C87.4,230.6,84.9,228,84.9,224.8"/>
	<path class="st2" d="M124.3,246.6c0-3.2,2.6-5.8,5.8-5.8c3.2,0,5.8,2.6,5.8,5.8c0,3.2-2.6,5.8-5.8,5.8
		C126.8,252.3,124.3,249.8,124.3,246.6"/>
	<path class="st2" d="M124.3,202.5c0-3.2,2.6-5.8,5.8-5.8c3.2,0,5.8,2.6,5.8,5.8c0,3.2-2.6,5.8-5.8,5.8
		C126.8,208.3,124.3,205.7,124.3,202.5"/>
	<path class="st6" d="M162,163.1c0-3.2,2.6-5.8,5.8-5.8c3.2,0,5.8,2.6,5.8,5.8c0,3.2-2.6,5.8-5.8,5.8
		C164.5,168.9,162,166.3,162,163.1"/>
	<path class="st6" d="M161.5,119.6c0-3.2,2.6-5.8,5.8-5.8c3.2,0,5.8,2.6,5.8,5.8c0,3.2-2.6,5.8-5.8,5.8
		C164.1,125.3,161.5,122.7,161.5,119.6"/>
</g>
<rect x="1387.2" y="88.9" class="st8" width="79" height="4.5"/>
<rect x="1405.1" y="52.3" class="st1" width="42.2" height="32.3"/>
<rect x="1405.1" y="52.3" class="st9" width="42.2" height="32.3"/>
<rect x="1408.7" y="56.5" class="st10" width="8.7" height="3"/>
<rect x="1408.7" y="63.4" class="st11" width="8.7" height="3"/>
<polyline class="st12" points="1443.3,56.5 1420.6,56.5 1420.6,59.9 1443.3,59.9 "/>
<polyline class="st12" points="1443.3,66.7 1420.6,66.7 1420.6,70.1 1443.3,70.1 "/>
<polyline class="st12" points="1443.3,61.6 1420.6,61.6 1420.6,65 1443.3,65 "/>
<rect x="1413.4" y="76.9" class="st11" width="5.9" height="8.2"/>
<rect x="1424.4" y="73.4" class="st11" width="5.9" height="11.8"/>
<rect x="1435.4" y="79.2" class="st11" width="5.9" height="6"/>
<g>
	<defs>
		<rect id="SVGID_5_" x="20.3" y="12.3" width="1528.7" height="555.4"/>
	</defs>
	<clipPath id="SVGID_6_">
		<use xlink:href="#SVGID_5_"  style="overflow:visible;"/>
	</clipPath>
	<path class="st13" d="M1456.2,95.8c0,0.7-0.6,1.4-1.4,1.4h-63.5c-0.7,0-1.4-0.6-1.4-1.4V48.1c0-0.7,0.6-1.4,1.4-1.4h63.5
		c0.7,0,1.4,0.6,1.4,1.4V95.8z M1468.4,97.5V46.8c0-2.2-1.8-4-4-4h-75c-2.2,0-4,1.8-4,4v50.8c0,2.2,1.8,4,4,4h75
		C1466.6,101.6,1468.4,99.7,1468.4,97.5"/>
	<path class="st13" d="M1459.1,235.5c-0.4-0.4-1.2-0.8-2.3-1.2c-0.8-0.3-1.4-0.5-1.7-0.7c-0.3-0.2-0.5-0.3-0.6-0.5
		c-0.1-0.2-0.2-0.4-0.2-0.7c0-0.4,0.2-0.7,0.5-0.9c0.3-0.2,0.9-0.3,1.6-0.3c0.8,0,1.6,0.2,2.6,0.6l0.5-1.2c-1-0.4-2-0.6-3-0.6
		c-1.1,0-2,0.2-2.6,0.7c-0.6,0.4-0.9,1.1-0.9,1.8c0,0.4,0.1,0.8,0.3,1.1c0.2,0.3,0.5,0.6,0.8,0.8c0.4,0.2,1,0.5,1.9,0.9
		c0.9,0.4,1.6,0.7,1.9,0.9c0.3,0.3,0.5,0.6,0.5,1c0,0.5-0.2,0.9-0.6,1.1c-0.4,0.2-1,0.4-1.7,0.4c-0.5,0-1-0.1-1.5-0.2
		c-0.5-0.1-1-0.3-1.5-0.5v1.3c0.7,0.4,1.7,0.6,3,0.6c1.2,0,2.1-0.2,2.8-0.7c0.7-0.5,1-1.2,1-2.1
		C1459.7,236.5,1459.5,236,1459.1,235.5 M1449.1,228.3c0.2,0.2,0.4,0.2,0.6,0.2c0.2,0,0.4-0.1,0.6-0.2c0.2-0.2,0.3-0.4,0.3-0.7
		c0-0.3-0.1-0.6-0.3-0.7c-0.2-0.2-0.4-0.2-0.6-0.2c-0.2,0-0.4,0.1-0.6,0.2c-0.2,0.2-0.2,0.4-0.2,0.7
		C1448.9,227.9,1449,228.2,1449.1,228.3 M1450.5,230.2h-1.4v9.5h1.4V230.2z M1446.1,235.5c-0.4-0.4-1.2-0.8-2.3-1.2
		c-0.8-0.3-1.4-0.5-1.7-0.7c-0.3-0.2-0.5-0.3-0.6-0.5c-0.1-0.2-0.2-0.4-0.2-0.7c0-0.4,0.2-0.7,0.5-0.9c0.3-0.2,0.9-0.3,1.6-0.3
		c0.8,0,1.6,0.2,2.6,0.6l0.5-1.2c-1-0.4-2-0.6-3-0.6c-1.1,0-2,0.2-2.6,0.7c-0.6,0.4-0.9,1.1-0.9,1.8c0,0.4,0.1,0.8,0.3,1.1
		c0.2,0.3,0.5,0.6,0.8,0.8c0.4,0.2,1,0.5,1.9,0.9c0.9,0.4,1.6,0.7,1.9,0.9c0.3,0.3,0.5,0.6,0.5,1c0,0.5-0.2,0.9-0.6,1.1
		c-0.4,0.2-1,0.4-1.7,0.4c-0.5,0-1-0.1-1.5-0.2c-0.5-0.1-1-0.3-1.5-0.5v1.3c0.7,0.4,1.7,0.6,3,0.6c1.2,0,2.1-0.2,2.8-0.7
		c0.7-0.5,1-1.2,1-2.1C1446.7,236.5,1446.5,236,1446.1,235.5 M1433.9,239.8l-0.5,1.4c-0.4,1.1-1.1,1.7-2.1,1.7c-0.4,0-0.8,0-1.1-0.1
		v1.2c0.4,0.1,0.9,0.1,1.3,0.1c0.8,0,1.5-0.2,2-0.7c0.5-0.4,1-1.2,1.4-2.3l4.1-10.9h-1.6c-1.3,3.7-2.1,5.9-2.4,6.6
		c-0.2,0.7-0.4,1.2-0.5,1.5h-0.1c-0.1-0.6-0.4-1.4-0.9-2.7l-2.1-5.4h-1.5L1433.9,239.8z M1428.5,226.2h-1.4v13.6h1.4V226.2z
		 M1418.4,238.3c-0.3-0.3-0.5-0.7-0.5-1.2c0-0.7,0.3-1.2,0.8-1.5c0.5-0.3,1.3-0.5,2.5-0.5l1.4-0.1v0.9c0,0.9-0.3,1.6-0.8,2.1
		c-0.5,0.5-1.2,0.7-2.1,0.7C1419.1,238.7,1418.7,238.6,1418.4,238.3 M1424,239.7v-6.5c0-1.1-0.3-1.9-0.8-2.4
		c-0.5-0.5-1.4-0.8-2.5-0.8c-0.6,0-1.1,0.1-1.7,0.2c-0.6,0.1-1.1,0.3-1.5,0.6l0.4,1.1c1-0.5,1.9-0.7,2.7-0.7c0.7,0,1.2,0.2,1.5,0.5
		c0.3,0.4,0.5,0.9,0.5,1.7v0.6l-1.6,0.1c-3.1,0.1-4.6,1.1-4.6,3c0,0.9,0.3,1.6,0.8,2.1c0.5,0.5,1.3,0.7,2.2,0.7
		c0.7,0,1.3-0.1,1.8-0.3c0.5-0.2,0.9-0.6,1.4-1.2h0.1l0.3,1.4H1424z M1414.1,239.7v-6.2c0-1.2-0.3-2.1-0.9-2.7
		c-0.6-0.6-1.4-0.8-2.6-0.8c-0.7,0-1.3,0.1-1.8,0.4c-0.5,0.3-0.9,0.6-1.2,1.1h-0.1l-0.2-1.3h-1.2v9.5h1.4v-5c0-1.2,0.2-2.1,0.7-2.7
		c0.5-0.5,1.2-0.8,2.2-0.8c0.8,0,1.3,0.2,1.7,0.6c0.4,0.4,0.5,1,0.5,1.7v6.2H1414.1z M1396.9,234.3l1.5-3.9c0.2-0.7,0.4-1.3,0.5-1.8
		c0.2,0.7,0.4,1.3,0.6,1.8l1.5,3.9H1396.9z M1404.6,239.7l-5-12.8h-1.2l-5,12.8h1.5l1.6-4h5.1l1.6,4H1404.6z"/>
	<path class="st13" d="M1493,120.9c-0.4-0.4-1.2-0.8-2.3-1.2c-0.8-0.3-1.4-0.5-1.7-0.7c-0.3-0.2-0.5-0.3-0.6-0.5
		c-0.1-0.2-0.2-0.4-0.2-0.7c0-0.4,0.2-0.7,0.5-0.9c0.3-0.2,0.9-0.3,1.6-0.3c0.8,0,1.6,0.2,2.6,0.6l0.5-1.2c-1-0.4-2-0.6-3-0.6
		c-1.1,0-2,0.2-2.6,0.7c-0.6,0.4-0.9,1.1-0.9,1.8c0,0.4,0.1,0.8,0.3,1.1c0.2,0.3,0.5,0.6,0.8,0.8c0.4,0.2,1,0.5,1.9,0.9
		c0.9,0.4,1.6,0.7,1.9,0.9c0.3,0.3,0.5,0.6,0.5,1c0,0.5-0.2,0.9-0.6,1.1c-0.4,0.2-1,0.4-1.7,0.4c-0.5,0-1-0.1-1.5-0.2
		c-0.5-0.1-1-0.3-1.5-0.5v1.3c0.7,0.4,1.7,0.6,3,0.6c1.2,0,2.1-0.2,2.8-0.7c0.7-0.5,1-1.2,1-2.1
		C1493.6,121.8,1493.4,121.3,1493,120.9 M1483.1,123.6c-0.3-0.3-0.4-0.7-0.4-1.3v-5.6h2.8v-1.1h-2.8v-2.2h-0.8l-0.6,2l-1.4,0.6v0.7
		h1.4v5.7c0,1.9,0.9,2.9,2.8,2.9c0.2,0,0.5,0,0.8-0.1c0.3,0,0.5-0.1,0.7-0.2v-1.1c-0.1,0-0.3,0.1-0.6,0.1s-0.5,0.1-0.7,0.1
		C1483.7,124,1483.4,123.9,1483.1,123.6 M1476.6,115.8c-0.5,0.3-0.9,0.8-1.3,1.4h-0.1l-0.2-1.8h-1.2v9.5h1.4v-5.1
		c0-0.9,0.3-1.7,0.8-2.3c0.5-0.6,1.2-0.9,2-0.9c0.3,0,0.6,0,1,0.1l0.2-1.3c-0.3-0.1-0.7-0.1-1.1-0.1
		C1477.6,115.3,1477.1,115.5,1476.6,115.8 M1469.2,117.3c0.4,0.5,0.6,1.2,0.6,2.1h-5c0.1-0.9,0.3-1.6,0.8-2.1
		c0.5-0.5,1.1-0.7,1.8-0.7C1468.2,116.5,1468.8,116.8,1469.2,117.3 M1469.5,125.1c0.5-0.1,0.9-0.3,1.4-0.5v-1.3c-1,0.4-2,0.6-3,0.6
		c-1,0-1.7-0.3-2.3-0.9c-0.5-0.6-0.8-1.4-0.8-2.6h6.6v-0.9c0-1.3-0.3-2.3-1-3.1c-0.7-0.8-1.6-1.2-2.8-1.2c-1.3,0-2.3,0.5-3.1,1.4
		c-0.8,0.9-1.1,2.1-1.1,3.7c0,1.5,0.4,2.7,1.2,3.6c0.8,0.9,1.9,1.3,3.3,1.3C1468.5,125.2,1469.1,125.2,1469.5,125.1 M1460.8,111.5
		h-1.4v13.6h1.4V111.5z M1450.1,119.7l1.5-3.9c0.2-0.7,0.4-1.3,0.5-1.8c0.2,0.7,0.4,1.3,0.6,1.8l1.5,3.9H1450.1z M1457.8,125.1
		l-5-12.8h-1.2l-5,12.8h1.5l1.6-4h5.1l1.6,4H1457.8z M1430.9,124.3c0.7,0.6,1.7,0.9,2.9,0.9c0.9,0,1.7-0.1,2.4-0.4
		c0.7-0.3,1.4-0.7,2.1-1.3l1.6,1.6h2l-2.6-2.5c0.8-0.9,1.4-2.1,1.8-3.8h-1.5c-0.1,0.6-0.3,1.1-0.5,1.6c-0.2,0.5-0.5,0.9-0.8,1.3
		l-3.5-3.4c0.9-0.5,1.6-1.1,2-1.6c0.4-0.5,0.6-1.1,0.6-1.7c0-0.9-0.3-1.5-0.8-2c-0.5-0.5-1.3-0.7-2.2-0.7c-1,0-1.8,0.2-2.4,0.7
		c-0.6,0.5-0.9,1.2-0.9,2c0,0.3,0.1,0.6,0.2,1c0.1,0.3,0.2,0.6,0.4,0.9s0.5,0.7,1,1.3c-1,0.6-1.8,1.2-2.2,1.8
		c-0.4,0.6-0.6,1.2-0.6,2C1429.8,122.8,1430.2,123.7,1430.9,124.3 M1432,123.3c-0.5-0.4-0.7-0.9-0.7-1.6c0-0.4,0.1-0.7,0.2-1
		c0.1-0.3,0.3-0.6,0.6-0.8c0.3-0.3,0.7-0.6,1.4-1l3.8,3.7c-0.9,0.9-2.1,1.3-3.5,1.3C1433.1,123.9,1432.5,123.7,1432,123.3
		 M1433,113.7c0.3-0.3,0.7-0.4,1.3-0.4c0.5,0,0.9,0.1,1.2,0.4c0.3,0.3,0.4,0.6,0.4,1.1c0,0.5-0.1,0.9-0.4,1.3
		c-0.3,0.4-0.8,0.8-1.6,1.2c-0.5-0.5-0.9-0.9-1.1-1.3c-0.2-0.4-0.3-0.7-0.3-1.1C1432.5,114.4,1432.6,114,1433,113.7 M1422.8,120.9
		c-0.4-0.4-1.2-0.8-2.3-1.2c-0.8-0.3-1.4-0.5-1.7-0.7c-0.3-0.2-0.5-0.3-0.6-0.5c-0.1-0.2-0.2-0.4-0.2-0.7c0-0.4,0.2-0.7,0.5-0.9
		c0.3-0.2,0.9-0.3,1.6-0.3c0.8,0,1.6,0.2,2.6,0.6l0.5-1.2c-1-0.4-2-0.6-3-0.6c-1.1,0-2,0.2-2.6,0.7c-0.6,0.4-0.9,1.1-0.9,1.8
		c0,0.4,0.1,0.8,0.3,1.1c0.2,0.3,0.5,0.6,0.8,0.8c0.4,0.2,1,0.5,1.9,0.9c0.9,0.4,1.6,0.7,1.9,0.9c0.3,0.3,0.5,0.6,0.5,1
		c0,0.5-0.2,0.9-0.6,1.1c-0.4,0.2-1,0.4-1.7,0.4c-0.5,0-1-0.1-1.5-0.2c-0.5-0.1-1-0.3-1.5-0.5v1.3c0.7,0.4,1.7,0.6,3,0.6
		c1.2,0,2.1-0.2,2.8-0.7c0.7-0.5,1-1.2,1-2.1C1423.4,121.8,1423.2,121.3,1422.8,120.9 M1412.9,123.6c-0.3-0.3-0.4-0.7-0.4-1.3v-5.6
		h2.8v-1.1h-2.8v-2.2h-0.8l-0.6,2l-1.4,0.6v0.7h1.4v5.7c0,1.9,0.9,2.9,2.8,2.9c0.2,0,0.5,0,0.8-0.1c0.3,0,0.5-0.1,0.7-0.2v-1.1
		c-0.1,0-0.3,0.1-0.6,0.1c-0.2,0-0.5,0.1-0.7,0.1C1413.6,124,1413.2,123.9,1412.9,123.6 M1406.4,115.8c-0.5,0.3-0.9,0.8-1.3,1.4
		h-0.1l-0.2-1.8h-1.2v9.5h1.4v-5.1c0-0.9,0.3-1.7,0.8-2.3c0.5-0.6,1.2-0.9,2-0.9c0.3,0,0.6,0,1,0.1l0.2-1.3
		c-0.3-0.1-0.7-0.1-1.1-0.1C1407.4,115.3,1406.9,115.5,1406.4,115.8 M1394.6,117.5c0.5-0.6,1.2-0.9,2.1-0.9c1,0,1.7,0.3,2.2,0.9
		c0.5,0.6,0.7,1.6,0.7,2.8c0,1.2-0.2,2.2-0.7,2.8c-0.5,0.6-1.2,1-2.2,1c-0.9,0-1.7-0.3-2.2-1c-0.5-0.6-0.7-1.6-0.7-2.8
		C1393.9,119,1394.1,118.1,1394.6,117.5 M1400,116.7c-0.8-0.9-1.8-1.3-3.2-1.3c-1.4,0-2.5,0.4-3.2,1.3c-0.8,0.9-1.2,2.1-1.2,3.6
		c0,1,0.2,1.9,0.5,2.6c0.4,0.7,0.9,1.3,1.5,1.7c0.7,0.4,1.4,0.6,2.3,0.6c1.4,0,2.5-0.4,3.2-1.3c0.8-0.9,1.2-2.1,1.2-3.6
		C1401.1,118.8,1400.8,117.6,1400,116.7 M1388.2,117.5c0.5,0.6,0.7,1.5,0.7,2.7c0,1.2-0.2,2.1-0.7,2.8c-0.5,0.7-1.1,1-1.9,1
		c-1,0-1.7-0.3-2.2-0.9c-0.4-0.6-0.7-1.5-0.7-2.9v-0.3c0-1.2,0.2-2,0.7-2.6c0.4-0.5,1.1-0.8,2.1-0.8
		C1387.1,116.6,1387.7,116.9,1388.2,117.5 M1389.3,123.9c0.7-0.9,1-2.1,1-3.7c0-1.6-0.3-2.8-1-3.6c-0.7-0.9-1.7-1.3-2.9-1.3
		c-0.6,0-1.2,0.1-1.7,0.3c-0.5,0.2-0.9,0.6-1.3,1.1h-0.1l-0.2-1.3h-1.2v13.8h1.4v-3.9c0-0.5,0-1-0.1-1.6h0.1
		c0.3,0.5,0.8,0.8,1.3,1.1c0.5,0.2,1.1,0.3,1.7,0.3C1387.7,125.2,1388.6,124.8,1389.3,123.9 M1377.4,117.3c0.4,0.5,0.6,1.2,0.6,2.1
		h-5c0.1-0.9,0.4-1.6,0.8-2.1c0.5-0.5,1.1-0.7,1.8-0.7C1376.4,116.5,1376.9,116.8,1377.4,117.3 M1377.7,125.1
		c0.5-0.1,0.9-0.3,1.4-0.5v-1.3c-1,0.4-2,0.6-3,0.6c-1,0-1.7-0.3-2.3-0.9c-0.5-0.6-0.8-1.4-0.8-2.6h6.6v-0.9c0-1.3-0.3-2.3-1-3.1
		c-0.7-0.8-1.6-1.2-2.8-1.2c-1.3,0-2.3,0.5-3.1,1.4c-0.8,0.9-1.1,2.1-1.1,3.7c0,1.5,0.4,2.7,1.2,3.6c0.8,0.9,1.9,1.3,3.3,1.3
		C1376.6,125.2,1377.2,125.2,1377.7,125.1 M1362.6,113.6h1.9c1.1,0,1.9,0.2,2.4,0.6c0.5,0.4,0.7,1,0.7,1.8c0,0.8-0.2,1.5-0.7,1.9
		c-0.5,0.4-1.3,0.6-2.3,0.6h-2V113.6z M1365.3,119.8l3.1,5.3h1.8l-3.5-5.7c1.7-0.6,2.6-1.7,2.6-3.4c0-1.2-0.4-2.1-1.1-2.7
		c-0.7-0.6-1.9-0.9-3.5-0.9h-3.5v12.7h1.5v-5.3H1365.3z"/>
	<path class="st14" d="M1431.2,390.6c0.8-1,1.3-2.2,1.3-3.6c0-3.1-2.5-5.6-5.6-5.6c-3.1,0-5.6,2.5-5.6,5.6c0,1.7,0.7,3.2,1.9,4.2"/>
</g>
<rect x="1413.1" y="406.3" class="st8" width="28.5" height="4.2"/>
<g>
	<defs>
		<rect id="SVGID_7_" x="20.3" y="12.3" width="1528.7" height="555.4"/>
	</defs>
	<clipPath id="SVGID_8_">
		<use xlink:href="#SVGID_7_"  style="overflow:visible;"/>
	</clipPath>
	<path class="st15" d="M1440.6,413.6c0,0.7-0.6,1.3-1.3,1.3h-24.9c-0.7,0-1.3-0.6-1.3-1.3v-37.9c0-0.7,0.6-1.3,1.3-1.3h24.9
		c0.7,0,1.3,0.6,1.3,1.3V413.6z M1443.7,422.3v-47.4c0-2.1-1.7-3.8-3.8-3.8h-26c-2.1,0-3.8,1.7-3.8,3.8v47.4c0,2.1,1.7,3.8,3.8,3.8
		h26C1442,426.1,1443.7,424.4,1443.7,422.3"/>
	<path class="st16" d="M1431.2,390.6c0.8-1,1.3-2.2,1.3-3.6c0-3.1-2.5-5.6-5.6-5.6c-1.3,0-2.5,0.4-3.4,1.2"/>
	<path class="st17" d="M1431.2,390.6c0.8-1,1.3-2.2,1.3-3.6c0-3.1-2.5-5.6-5.6-5.6c-1.3,0-2.5,0.4-3.4,1.2"/>
</g>
<rect x="1418.4" y="397.9" class="st8" width="18.2" height="4.1"/>
<rect x="1428.5" y="397.9" class="st12" width="8.2" height="4.1"/>
<g>
	<defs>
		<rect id="SVGID_9_" x="20.3" y="12.3" width="1528.7" height="555.4"/>
	</defs>
	<clipPath id="SVGID_10_">
		<use xlink:href="#SVGID_9_"  style="overflow:visible;"/>
	</clipPath>
	<path class="st18" d="M1414.5,218.9c0-0.6,0.4-1,1-1.1l2.1-0.3l2.1-8.1h15.7l2.1,8.1l2.1,0.3c0.5,0.1,1,0.5,1,1.1H1414.5z"/>
	<path class="st19" d="M1388,202.6v-45.6c0-1,0.8-1.8,1.8-1.8h74.4c1,0,1.8,0.8,1.8,1.8v45.6H1388z"/>
	<path class="st18" d="M1464.1,209.7h-74.4c-1,0-1.8-0.8-1.8-1.8v-5.3h77.9v5.3C1465.8,208.9,1465.1,209.7,1464.1,209.7"/>
</g>
<rect x="1390.4" y="158.4" class="st1" width="73" height="41.2"/>
<rect x="1409.6" y="177.8" class="st20" width="6.6" height="12"/>
<rect x="1419" y="180.6" class="st11" width="6.7" height="9.2"/>
<rect x="1437.9" y="180.6" class="st11" width="6.7" height="9.2"/>
<rect x="1428.6" y="174" class="st10" width="6.4" height="16"/>
<polyline class="st21" points="1403.9,177.5 1410.6,167.8 1417.3,173.4 1425.1,168.5 1431.8,169.9 1439.7,162.2 1444.1,168.5 
	1448.6,166.4 "/>
<rect x="1390.4" y="193.2" class="st8" width="73.1" height="3.3"/>
<rect x="1393.8" y="307.8" class="st8" width="65.1" height="3.1"/>
<g>
	<defs>
		<rect id="SVGID_11_" x="20.3" y="12.3" width="1528.7" height="555.4"/>
	</defs>
	<clipPath id="SVGID_12_">
		<use xlink:href="#SVGID_11_"  style="overflow:visible;"/>
	</clipPath>
	<path class="st22" d="M1420.7,289.1c2.2,0,3.9-1.7,3.9-3.9c0-2.2-1.7-3.9-3.9-3.9c-2.2,0-3.9,1.7-3.9,3.9
		C1416.9,287.4,1418.6,289.1,1420.7,289.1"/>
	<path class="st23" d="M1420.7,289.1c2.2,0,3.9-1.7,3.9-3.9c0-2.2-1.7-3.9-3.9-3.9c-2.2,0-3.9,1.7-3.9,3.9
		C1416.9,287.4,1418.6,289.1,1420.7,289.1z"/>
	<path class="st23" d="M1420.5,300.2c2.1,0,3.8-1.7,3.8-3.8c0-2.1-1.7-3.8-3.8-3.8c-2.1,0-3.8,1.7-3.8,3.8
		C1416.6,298.5,1418.4,300.2,1420.5,300.2z"/>
	<path class="st24" d="M1420.5,298.3c1,0,1.9-0.8,1.9-1.9c0-1-0.8-1.9-1.9-1.9c-1,0-1.9,0.8-1.9,1.9
		C1418.6,297.4,1419.4,298.3,1420.5,298.3"/>
	<path class="st25" d="M1430.8,280.3c-1.7,0-3.1,1.4-3.1,3.1v3c0,1.7,1.4,3.1,3.1,3.1h3c1.7,0,3.1-1.4,3.1-3.1v-3
		c0-1.7-1.4-3.1-3.1-3.1H1430.8z"/>
	<path class="st22" d="M1432.1,293c-1.7,0-3.1,1.4-3.1,3.1v0.9c0,1.7,1.4,3.1,3.1,3.1h0.9c1.7,0,3.1-1.4,3.1-3.1v-0.9
		c0-1.7-1.4-3.1-3.1-3.1H1432.1z"/>
	<path class="st26" d="M1432.1,293c-1.7,0-3.1,1.4-3.1,3.1v0.9c0,1.7,1.4,3.1,3.1,3.1h0.9c1.7,0,3.1-1.4,3.1-3.1v-0.9
		c0-1.7-1.4-3.1-3.1-3.1H1432.1z"/>
</g>
<polyline class="st27" points="1430.1,284.7 1431.7,286.2 1434.3,282.7 "/>
<g>
	<defs>
		<rect id="SVGID_13_" x="20.3" y="12.3" width="1528.7" height="555.4"/>
	</defs>
	<clipPath id="SVGID_14_">
		<use xlink:href="#SVGID_13_"  style="overflow:visible;"/>
	</clipPath>
	<path class="st28" d="M1458.8,312.7c0,0.5-0.4,0.9-0.9,0.9H1395c-0.5,0-0.9-0.4-0.9-0.9v-42.1c0-0.5,0.4-0.9,0.9-0.9h62.9
		c0.5,0,0.9,0.4,0.9,0.9V312.7z M1461.7,314.2v-44.7c0-1.5-1.2-2.7-2.7-2.7h-65.3c-1.5,0-2.7,1.2-2.7,2.7v44.7
		c0,1.5,1.2,2.7,2.7,2.7h65.3C1460.5,316.9,1461.7,315.7,1461.7,314.2"/>
	<path class="st29" d="M1389.3,318.6c-1.1,0-2,0.9-2,2v0.5c0,1.1,0.9,2,2,2h75.3c1.1,0,2-0.9,2-2v-0.5c0-1.1-0.9-2-2-2H1389.3z"/>
</g>
<path class="st30" d="M266.9,171.3l2.2-4.6 M269.2,172.4l2.2-4.6 M271.6,173.5l2.2-4.6 M273.9,174.6l2.2-4.6 M276.3,175.7l2.2-4.6
	 M278.6,176.8l2.2-4.6 M281,177.9l2.2-4.6 M283.3,179l2.2-4.6 M285.7,180.1l2.2-4.6 M288,181.2l2.2-4.6 M290.4,182.3l2.2-4.6
	 M292.7,183.4l2.2-4.6 M295.1,184.5l2.2-4.6 M297.4,185.6l2.2-4.6 M299.8,186.6l2.2-4.6 M302.1,187.7l2.2-4.6 M304.5,188.8l2.2-4.6
	 M306.8,189.9l2.2-4.6 M309.1,191l2.2-4.6 M311.5,192.1l2.2-4.6 M313.8,193.2l2.2-4.6 M316.2,194.3l2.2-4.6 M318.5,195.4l2.2-4.6
	 M320.9,196.5l2.2-4.6 M323.2,197.6l2.2-4.6 M325.6,198.7l2.2-4.6 M327.9,199.8l2.2-4.6 M330.3,200.9l2.2-4.6 M332.6,202l2.2-4.6
	 M335,203l2.2-4.6 M337.3,204.1l2.2-4.6 M339.7,205.2l2.2-4.6 M342,206.3l2.2-4.6 M344.4,207.4l2.2-4.6 M346.7,208.5l2.2-4.6
	 M349.1,209.6l2.2-4.6 M351.4,210.7l2.2-4.6 M353.7,211.8l2.2-4.6 M356.1,212.9l2.2-4.6 M358.4,214l2.2-4.6 M360.8,215.1l2.2-4.6
	 M363.1,216.2l2.2-4.6 M365.5,217.3l2.2-4.6 M367.8,218.4l2.2-4.6"/>
<line class="st31" x1="967.9" y1="248" x2="1326" y2="197"/>
<line class="st31" x1="967.9" y1="265.8" x2="1327.2" y2="295.1"/>
<path class="st30" d="M269.2,236.2l-0.2,5.1 M271.8,236.4l-0.2,5.1 M274.3,236.5l-0.2,5.1 M276.9,236.6l-0.2,5.1 M279.5,236.7
	l-0.2,5.1 M282,236.8l-0.2,5.1 M284.6,236.9l-0.2,5.1 M287.1,237.1l-0.2,5.1 M289.7,237.2l-0.2,5.1 M292.2,237.3l-0.2,5.1
	 M294.8,237.4l-0.2,5.1 M297.4,237.5l-0.2,5.1 M299.9,237.6l-0.2,5.1 M302.5,237.8l-0.2,5.1 M305,237.9l-0.2,5.1 M307.6,238
	l-0.2,5.1 M310.1,238.1l-0.2,5.1 M312.7,238.2l-0.2,5.1 M315.3,238.3l-0.2,5.1 M317.8,238.5l-0.2,5.1 M320.4,238.6l-0.2,5.1
	 M322.9,238.7l-0.2,5.1 M325.5,238.8l-0.2,5.1 M328.1,238.9l-0.2,5.1 M330.6,239l-0.2,5.1 M333.2,239.2l-0.2,5.1 M335.7,239.3
	l-0.2,5.1 M338.3,239.4l-0.2,5.1 M340.8,239.5l-0.2,5.1 M343.4,239.6l-0.2,5.1 M346,239.7l-0.2,5.1 M348.5,239.9l-0.2,5.1
	 M351.1,240l-0.2,5.1 M353.6,240.1l-0.2,5.1 M356.2,240.2l-0.2,5.1 M358.8,240.3l-0.2,5.1 M361.3,240.5l-0.2,5.1 M363.9,240.6
	l-0.2,5.1 M366.4,240.7l-0.2,5.1 M369,240.8l-0.2,5.1"/>
<path class="st30" d="M461.5,199.5v5.1 M464.1,199.5v5.1 M466.7,199.5v5.1 M469.3,199.5v5.1 M471.9,199.5v5.1 M474.5,199.5v5.1
	 M477,199.5v5.1 M479.6,199.5v5.1 M482.2,199.5v5.1 M484.8,199.5v5.1 M487.4,199.5v5.1 M490,199.5v5.1 M492.5,199.5v5.1
	 M495.1,199.5v5.1 M497.7,199.5v5.1 M500.3,199.5v5.1 M502.9,199.5v5.1 M505.5,199.5v5.1 M508,199.5v5.1 M510.6,199.5v5.1
	 M513.2,199.5v5.1 M515.8,199.5v5.1 M518.4,199.5v5.1 M521,199.5v5.1 M523.5,199.5v5.1 M526.1,199.5v5.1 M528.7,199.5v5.1
	 M531.3,199.5v5.1 M533.9,199.5v5.1 M536.5,199.5v5.1 M539,199.5v5.1 M541.6,199.5v5.1 M544.2,199.5v5.1 M546.8,199.5v5.1
	 M549.4,199.5v5.1 M552,199.5v5.1 M554.5,199.5v5.1 M557.1,199.5v5.1 M559.7,199.5v5.1 M562.3,199.5v5.1 M564.9,199.5v5.1
	 M567.5,199.5v5.1 M570,199.5v5.1 M572.6,199.5v5.1 M575.2,199.5v5.1 M577.8,199.5v5.1"/>
<path class="st30" d="M461.5,330.7v5.1 M464.1,330.7v5.1 M466.7,330.7v5.1 M469.3,330.7v5.1 M471.9,330.7v5.1 M474.5,330.7v5.1
	 M477,330.7v5.1 M479.6,330.7v5.1 M482.2,330.7v5.1 M484.8,330.7v5.1 M487.4,330.7v5.1 M490,330.7v5.1 M492.5,330.7v5.1
	 M495.1,330.7v5.1 M497.7,330.7v5.1 M500.3,330.7v5.1 M502.9,330.7v5.1 M505.5,330.7v5.1 M508,330.7v5.1 M510.6,330.7v5.1
	 M513.2,330.7v5.1 M515.8,330.7v5.1 M518.4,330.7v5.1 M521,330.7v5.1 M523.5,330.7v5.1 M526.1,330.7v5.1 M528.7,330.7v5.1
	 M531.3,330.7v5.1 M533.9,330.7v5.1 M536.5,330.7v5.1 M539,330.7v5.1 M541.6,330.7v5.1 M544.2,330.7v5.1 M546.8,330.7v5.1
	 M549.4,330.7v5.1 M552,330.7v5.1 M554.5,330.7v5.1 M557.1,330.7v5.1 M559.7,330.7v5.1 M562.3,330.7v5.1 M564.9,330.7v5.1
	 M567.5,330.7v5.1 M570,330.7v5.1 M572.6,330.7v5.1 M575.2,330.7v5.1 M577.8,330.7v5.1"/>
<path class="st30" d="M270.3,375.8l-2.6-4.4 M272.5,374.5l-2.6-4.4 M274.8,373.2l-2.6-4.4 M277,371.9l-2.6-4.4 M279.2,370.6
	l-2.6-4.4 M281.4,369.3l-2.6-4.4 M283.6,368l-2.6-4.4 M285.9,366.7l-2.6-4.4 M288.1,365.4l-2.6-4.4 M290.3,364.1l-2.6-4.4
	 M292.5,362.8l-2.6-4.4 M294.7,361.5l-2.6-4.4 M297,360.2l-2.6-4.4 M299.2,358.9l-2.6-4.4 M301.4,357.6l-2.6-4.4 M303.6,356.3
	l-2.6-4.4 M305.8,355l-2.6-4.4 M308.1,353.7l-2.6-4.4 M310.3,352.4l-2.6-4.4 M312.5,351l-2.6-4.4 M314.7,349.7l-2.6-4.4
	 M316.9,348.4l-2.6-4.4 M319.2,347.1l-2.6-4.4 M321.4,345.8l-2.6-4.4 M323.6,344.5l-2.6-4.4 M325.8,343.2l-2.6-4.4 M328,341.9
	l-2.6-4.4 M330.3,340.6l-2.6-4.4 M332.5,339.3l-2.6-4.4 M334.7,338l-2.6-4.4 M336.9,336.7l-2.6-4.4 M339.1,335.4l-2.6-4.4
	 M341.4,334.1l-2.6-4.4 M343.6,332.8l-2.6-4.4 M345.8,331.5l-2.6-4.4 M348,330.2l-2.6-4.4 M350.2,328.9l-2.6-4.4 M352.5,327.6
	l-2.6-4.4 M354.7,326.3l-2.6-4.4 M356.9,325l-2.6-4.4 M359.1,323.7l-2.6-4.4 M361.3,322.4l-2.6-4.4 M363.6,321.1l-2.6-4.4
	 M365.8,319.8l-2.6-4.4 M368,318.5l-2.6-4.4 M370.2,317.2l-2.6-4.4"/>
<line class="st31" x1="968" y1="232.7" x2="1325.6" y2="81.1"/>
<line class="st31" x1="967.9" y1="283.8" x2="1327" y2="397"/>
<line class="st31" x1="967.9" y1="302.7" x2="1327" y2="487.4"/>
<path class="st30" d="M368.5,284.3l0.8,5 M365.9,284.7l0.8,5 M363.3,285.1l0.8,5 M360.8,285.5l0.8,5 M358.2,285.9l0.8,5
	 M355.7,286.3l0.8,5 M353.1,286.7l0.8,5 M350.6,287.2l0.8,5 M348,287.6l0.8,5 M345.5,288l0.8,5 M342.9,288.4l0.8,5 M340.3,288.8
	l0.8,5 M337.8,289.2l0.8,5 M335.2,289.7l0.8,5 M332.7,290.1l0.8,5 M330.1,290.5l0.8,5 M327.6,290.9l0.8,5 M325,291.3l0.8,5
	 M322.4,291.7l0.8,5 M319.9,292.1l0.8,5 M317.3,292.6l0.8,5 M314.8,293l0.8,5 M312.2,293.4l0.8,5 M309.7,293.8l0.8,5 M307.1,294.2
	l0.8,5 M304.5,294.6l0.8,5 M302,295l0.8,5 M299.4,295.5l0.8,5 M296.9,295.9l0.8,5 M294.3,296.3l0.8,5 M291.8,296.7l0.8,5
	 M289.2,297.1l0.8,5 M286.6,297.5l0.8,5 M284.1,297.9l0.8,5 M281.5,298.4l0.8,5 M279,298.8l0.8,5 M276.4,299.2l0.8,5 M273.9,299.6
	l0.8,5 M271.3,300l0.8,5 M268.7,300.4l0.8,5 M266.2,300.8l0.8,5 M263.6,301.3l0.8,5"/>
<path class="st30" d="M208.7,302.8v5.1 M205.9,302.8v5.1 M203,302.8v5.1 M200.2,302.8v5.1 M197.4,302.8v5.1 M194.6,302.8v5.1
	 M191.8,302.8v5.1 M189,302.8v5.1 M186.2,302.8v5.1 M183.4,302.8v5.1"/>
<path class="st30" d="M209.7,130.6l-1.9,4.7 M207.2,129.6l-1.9,4.7 M204.7,128.6l-1.9,4.7 M202.2,127.6l-1.9,4.7 M199.7,126.6
	l-1.9,4.7 M197.2,125.5l-1.9,4.7 M194.7,124.5l-1.9,4.7 M192.3,123.5l-1.9,4.7 M189.8,122.5l-1.9,4.7"/>
<path class="st30" d="M209.7,154.5l-1.9-4.7 M207.2,155.5l-1.9-4.7 M204.7,156.6l-1.9-4.7 M202.2,157.6l-1.9-4.7 M199.7,158.6
	l-1.9-4.7 M197.2,159.6l-1.9-4.7 M194.7,160.6l-1.9-4.7 M192.3,161.6l-1.9-4.7 M189.8,162.6l-1.9-4.7"/>
<path class="st30" d="M218.2,382v5.1 M215.5,382v5.1 M212.8,382v5.1 M210.2,382v5.1 M207.5,382v5.1 M204.8,382v5.1 M202.1,382v5.1
	 M199.4,382v5.1 M196.7,382v5.1 M194,382v5.1 M191.4,382v5.1 M188.7,382v5.1 M186,382v5.1 M183.3,382v5.1 M180.6,382v5.1 M177.9,382
	v5.1 M175.3,382v5.1"/>
<path class="st30" d="M148,373.6l-1.7,4.8 M145.5,372.7l-1.7,4.8 M143,371.8l-1.7,4.8 M140.5,370.9l-1.7,4.8 M138.1,370l-1.7,4.8
	 M135.6,369.1l-1.7,4.8 M133.1,368.2l-1.7,4.8 M130.6,367.3l-1.7,4.8 M128.1,366.4l-1.7,4.8 M125.6,365.5l-1.7,4.8 M123.1,364.7
	l-1.7,4.8 M120.6,363.8l-1.7,4.8 M118.1,362.9l-1.7,4.8 M115.6,362l-1.7,4.8 M113.1,361.1l-1.7,4.8 M110.6,360.2l-1.7,4.8
	 M108.1,359.3l-1.7,4.8"/>
<path class="st30" d="M221.4,218.5l-1.3,4.9 M218.9,217.8l-1.3,4.9 M216.4,217.2l-1.3,4.9 M213.9,216.6l-1.3,4.9 M211.4,215.9
	l-1.3,4.9 M208.9,215.3l-1.3,4.9 M206.4,214.7l-1.3,4.9 M203.9,214l-1.3,4.9 M201.4,213.4l-1.3,4.9 M198.9,212.7l-1.3,4.9
	 M196.4,212.1l-1.3,4.9 M193.9,211.5l-1.3,4.9 M191.4,210.8l-1.3,4.9 M188.9,210.2l-1.3,4.9 M186.4,209.6l-1.3,4.9 M183.9,208.9
	l-1.3,4.9 M181.4,208.3l-1.3,4.9 M178.9,207.6l-1.3,4.9 M176.4,207l-1.3,4.9 M173.9,206.4l-1.3,4.9 M171.4,205.7l-1.3,4.9
	 M168.9,205.1l-1.3,4.9 M166.4,204.5l-1.3,4.9 M163.9,203.8l-1.3,4.9 M161.4,203.2l-1.3,4.9 M158.9,202.6l-1.3,4.9 M156.5,201.9
	l-1.3,4.9 M154,201.3l-1.3,4.9 M151.5,200.6l-1.3,4.9 M149,200l-1.3,4.9 M146.5,199.4l-1.3,4.9 M144,198.7l-1.3,4.9"/>
<path class="st30" d="M220.4,231.3l-1.3-4.9 M217.9,232l-1.3-4.9 M215.4,232.6l-1.3-4.9 M212.9,233.2l-1.3-4.9 M210.4,233.9
	l-1.3-4.9 M207.9,234.5l-1.3-4.9 M205.4,235.1l-1.3-4.9 M202.9,235.8l-1.3-4.9 M200.4,236.4l-1.3-4.9 M198,237l-1.3-4.9
	 M195.5,237.7l-1.3-4.9 M193,238.3l-1.3-4.9 M190.5,239l-1.3-4.9 M188,239.6l-1.3-4.9 M185.5,240.2l-1.3-4.9 M183,240.9l-1.3-4.9
	 M180.5,241.5l-1.3-4.9 M178,242.1l-1.3-4.9 M175.5,242.8l-1.3-4.9 M173,243.4l-1.3-4.9 M170.5,244.1l-1.3-4.9 M168,244.7l-1.3-4.9
	 M165.5,245.3l-1.3-4.9 M163,246l-1.3-4.9 M160.5,246.6l-1.3-4.9 M158,247.2l-1.3-4.9 M155.5,247.9l-1.3-4.9 M153,248.5l-1.3-4.9
	 M150.5,249.1l-1.3-4.9 M148,249.8l-1.3-4.9 M145.5,250.4l-1.3-4.9 M143,251.1l-1.3-4.9"/>
<path class="st30" d="M150.8,392.3l-1.7-4.8 M148.3,393.2l-1.7-4.8 M145.8,394.1l-1.7-4.8 M143.3,395l-1.7-4.8 M140.8,395.9
	l-1.7-4.8 M138.3,396.8l-1.7-4.8 M135.8,397.7l-1.7-4.8 M133.3,398.6l-1.7-4.8 M130.8,399.5l-1.7-4.8 M128.4,400.4l-1.7-4.8
	 M125.9,401.3l-1.7-4.8 M123.4,402.1l-1.7-4.8 M120.9,403l-1.7-4.8 M118.4,403.9l-1.7-4.8 M115.9,404.8l-1.7-4.8 M113.4,405.7
	l-1.7-4.8 M110.9,406.6l-1.7-4.8"/>
<path class="st30" d="M220.7,222.4v5.1 M218.1,222.4v5.1 M215.5,222.4v5.1 M212.9,222.4v5.1 M210.3,222.4v5.1 M207.7,222.4v5.1
	 M205.1,222.4v5.1 M202.5,222.4v5.1 M199.9,222.4v5.1 M197.3,222.4v5.1 M194.7,222.4v5.1 M192.1,222.4v5.1 M189.5,222.4v5.1
	 M186.9,222.4v5.1 M184.3,222.4v5.1 M181.7,222.4v5.1 M179.1,222.4v5.1 M176.5,222.4v5.1 M173.9,222.4v5.1 M171.3,222.4v5.1
	 M168.7,222.4v5.1 M166.1,222.4v5.1 M163.5,222.4v5.1 M160.9,222.4v5.1 M158.3,222.4v5.1 M155.7,222.4v5.1 M153.1,222.4v5.1
	 M150.5,222.4v5.1 M147.9,222.4v5.1 M145.3,222.4v5.1 M142.7,222.4v5.1 M140.1,222.4v5.1 M137.5,222.4v5.1 M134.9,222.4v5.1
	 M132.4,222.4v5.1 M129.8,222.4v5.1 M127.2,222.4v5.1 M124.6,222.4v5.1 M122,222.4v5.1 M119.4,222.4v5.1 M116.8,222.4v5.1
	 M114.2,222.4v5.1 M111.6,222.4v5.1 M109,222.4v5.1"/>
<line class="st31" x1="578.3" y1="188.7" x2="461.1" y2="188.7"/>
<line class="st31" x1="578.3" y1="319.9" x2="461.1" y2="319.9"/>
<line class="st31" x1="765.2" y1="192.6" x2="830.2" y2="255"/>
<g>
	<defs>
		<rect id="SVGID_15_" x="20.3" y="12.3" width="1528.7" height="555.4"/>
	</defs>
	<clipPath id="SVGID_16_">
		<use xlink:href="#SVGID_15_"  style="overflow:visible;"/>
	</clipPath>
	<path class="st32" d="M726.9,72.4v-6.2c0-1.2-0.3-2.1-0.8-2.7c-0.5-0.6-1.3-0.8-2.4-0.8c-0.7,0-1.3,0.1-1.8,0.4
		c-0.5,0.3-1,0.7-1.2,1.2h-0.1c-0.5-1.1-1.4-1.6-2.9-1.6c-0.6,0-1.2,0.1-1.7,0.4c-0.5,0.3-0.9,0.6-1.2,1.1h-0.1l-0.2-1.3h-1.2v9.5
		h1.4v-5c0-1.2,0.2-2.1,0.6-2.7c0.4-0.5,1.1-0.8,2-0.8c0.7,0,1.2,0.2,1.5,0.6c0.3,0.4,0.5,1,0.5,1.7v6.2h1.4v-5.3
		c0-1.1,0.2-1.9,0.6-2.4c0.4-0.5,1.1-0.8,2-0.8c0.7,0,1.2,0.2,1.5,0.6c0.3,0.4,0.5,1,0.5,1.7v6.2H726.9z M708.7,63.2
		c-0.5,0.3-0.9,0.8-1.3,1.4h-0.1l-0.2-1.8H706v9.5h1.4v-5.1c0-0.9,0.3-1.7,0.8-2.3c0.5-0.6,1.2-0.9,2-0.9c0.3,0,0.6,0,1,0.1l0.2-1.3
		c-0.3-0.1-0.7-0.1-1.1-0.1C709.8,62.7,709.2,62.9,708.7,63.2 M696.9,64.9c0.5-0.6,1.2-0.9,2.1-0.9c1,0,1.7,0.3,2.2,0.9
		c0.5,0.6,0.7,1.6,0.7,2.8c0,1.2-0.2,2.2-0.7,2.8c-0.5,0.6-1.2,1-2.2,1s-1.7-0.3-2.2-1c-0.5-0.6-0.7-1.6-0.7-2.8
		C696.2,66.4,696.4,65.5,696.9,64.9 M702.3,64.1c-0.8-0.9-1.8-1.3-3.2-1.3c-1.4,0-2.5,0.4-3.2,1.3c-0.8,0.9-1.2,2.1-1.2,3.6
		c0,1,0.2,1.9,0.5,2.6c0.4,0.7,0.9,1.3,1.5,1.7c0.7,0.4,1.4,0.6,2.3,0.6c1.4,0,2.5-0.4,3.2-1.3c0.8-0.9,1.2-2.1,1.2-3.6
		C703.5,66.1,703.1,64.9,702.3,64.1 M693.5,62.9h-2.4v-0.6c0-0.8,0.1-1.4,0.4-1.7c0.3-0.4,0.7-0.5,1.2-0.5c0.4,0,0.9,0.1,1.4,0.3
		l0.4-1.2c-0.7-0.2-1.3-0.3-1.8-0.3c-2,0-3.1,1.2-3.1,3.5v0.5l-1.7,0.5V64h1.7v8.4h1.4V64h2.4V62.9z M684.9,71
		c-0.3-0.3-0.4-0.7-0.4-1.3V64h2.8v-1.1h-2.8v-2.2h-0.8l-0.6,2l-1.4,0.6V64h1.4v5.7c0,1.9,0.9,2.9,2.8,2.9c0.2,0,0.5,0,0.8-0.1
		c0.3,0,0.5-0.1,0.7-0.2v-1.1c-0.1,0-0.3,0.1-0.6,0.1c-0.2,0-0.5,0.1-0.7,0.1C685.5,71.4,685.1,71.3,684.9,71 M674.3,71
		c-0.3-0.3-0.5-0.7-0.5-1.2c0-0.7,0.3-1.2,0.8-1.5c0.5-0.3,1.3-0.5,2.5-0.5l1.4-0.1v0.9c0,0.9-0.3,1.6-0.8,2.1
		c-0.5,0.5-1.2,0.7-2.1,0.7C675,71.4,674.6,71.3,674.3,71 M679.9,72.4v-6.5c0-1.1-0.3-1.9-0.8-2.4c-0.5-0.5-1.4-0.8-2.5-0.8
		c-0.6,0-1.1,0.1-1.7,0.2c-0.6,0.1-1.1,0.3-1.5,0.6l0.4,1.1c1-0.5,1.9-0.7,2.7-0.7c0.7,0,1.2,0.2,1.5,0.5c0.3,0.4,0.5,0.9,0.5,1.7
		v0.6l-1.6,0.1c-3.1,0.1-4.6,1.1-4.6,3c0,0.9,0.3,1.6,0.8,2.1c0.5,0.5,1.3,0.7,2.2,0.7c0.7,0,1.3-0.1,1.8-0.3
		c0.5-0.2,0.9-0.6,1.4-1.2h0.1l0.3,1.4H679.9z M669.9,58.9h-1.4v13.6h1.4V58.9z M663.7,64.9c0.5,0.6,0.7,1.5,0.7,2.7
		c0,1.2-0.2,2.1-0.7,2.8c-0.5,0.7-1.1,1-1.9,1c-1,0-1.7-0.3-2.2-0.9S659,69,659,67.7v-0.3c0-1.2,0.2-2,0.7-2.6
		c0.4-0.5,1.1-0.8,2.1-0.8C662.6,63.9,663.3,64.3,663.7,64.9 M664.9,71.3c0.7-0.9,1-2.1,1-3.7c0-1.6-0.3-2.8-1-3.6
		c-0.7-0.9-1.7-1.3-2.9-1.3c-0.6,0-1.2,0.1-1.7,0.3c-0.5,0.2-0.9,0.6-1.3,1.1h-0.1l-0.2-1.3h-1.2v13.8h1.4v-3.9c0-0.5,0-1-0.1-1.6
		h0.1c0.3,0.5,0.8,0.8,1.3,1.1c0.5,0.2,1.1,0.3,1.7,0.3C663.2,72.6,664.2,72.2,664.9,71.3 M647.2,61h4v-1.3h-9.5V61h4v11.4h1.5V61z
		 M634,64.9c0.5-0.6,1.2-0.9,2.1-0.9c1,0,1.7,0.3,2.2,0.9c0.5,0.6,0.7,1.6,0.7,2.8c0,1.2-0.2,2.2-0.7,2.8c-0.5,0.6-1.2,1-2.2,1
		c-0.9,0-1.7-0.3-2.2-1c-0.5-0.6-0.7-1.6-0.7-2.8C633.2,66.4,633.5,65.5,634,64.9 M639.3,64.1c-0.8-0.9-1.8-1.3-3.2-1.3
		c-1.4,0-2.5,0.4-3.2,1.3c-0.8,0.9-1.2,2.1-1.2,3.6c0,1,0.2,1.9,0.5,2.6c0.4,0.7,0.9,1.3,1.5,1.7c0.7,0.4,1.4,0.6,2.3,0.6
		c1.4,0,2.5-0.4,3.2-1.3c0.8-0.9,1.2-2.1,1.2-3.6C640.5,66.1,640.1,64.9,639.3,64.1 M629,59.7h-1.5v12.7h1.5V59.7z"/>
	<path class="st32" d="M945.3,97.9v-6.2c0-1.2-0.3-2.1-0.8-2.7c-0.5-0.6-1.3-0.8-2.4-0.8c-0.7,0-1.3,0.1-1.8,0.4
		c-0.5,0.3-1,0.7-1.2,1.2h-0.1c-0.5-1.1-1.4-1.6-2.9-1.6c-0.6,0-1.2,0.1-1.7,0.4c-0.5,0.3-0.9,0.6-1.2,1.1h-0.1l-0.2-1.3h-1.2v9.5
		h1.4v-5c0-1.2,0.2-2.1,0.6-2.7c0.4-0.5,1.1-0.8,2-0.8c0.7,0,1.2,0.2,1.5,0.6c0.3,0.4,0.5,1,0.5,1.7v6.2h1.4v-5.3
		c0-1.1,0.2-1.9,0.6-2.4c0.4-0.5,1.1-0.8,2-0.8c0.7,0,1.2,0.2,1.5,0.6c0.3,0.4,0.5,1,0.5,1.7v6.2H945.3z M927.1,88.7
		c-0.5,0.3-0.9,0.8-1.3,1.4h-0.1l-0.2-1.8h-1.2v9.5h1.4v-5.1c0-0.9,0.3-1.7,0.8-2.3c0.5-0.6,1.2-0.9,2-0.9c0.3,0,0.7,0,1,0.1
		l0.2-1.3c-0.3-0.1-0.7-0.1-1.1-0.1C928.2,88.2,927.6,88.4,927.1,88.7 M915.3,90.4c0.5-0.6,1.2-0.9,2.1-0.9c1,0,1.7,0.3,2.2,0.9
		c0.5,0.6,0.7,1.6,0.7,2.8c0,1.2-0.2,2.2-0.7,2.8c-0.5,0.6-1.2,1-2.2,1c-0.9,0-1.7-0.3-2.2-1c-0.5-0.6-0.7-1.6-0.7-2.8
		C914.6,91.9,914.9,91,915.3,90.4 M920.7,89.5c-0.8-0.9-1.8-1.3-3.2-1.3c-1.4,0-2.5,0.4-3.2,1.3c-0.8,0.9-1.2,2.1-1.2,3.6
		c0,1,0.2,1.9,0.5,2.6c0.4,0.7,0.9,1.3,1.5,1.7c0.7,0.4,1.4,0.6,2.3,0.6c1.4,0,2.5-0.4,3.2-1.3c0.8-0.9,1.2-2.1,1.2-3.6
		C921.9,91.6,921.5,90.4,920.7,89.5 M911.9,88.4h-2.4v-0.6c0-0.8,0.1-1.4,0.4-1.7c0.3-0.4,0.7-0.5,1.2-0.5c0.4,0,0.9,0.1,1.4,0.3
		l0.4-1.2c-0.7-0.2-1.3-0.3-1.8-0.3c-2,0-3.1,1.2-3.1,3.5v0.5l-1.7,0.5v0.7h1.7v8.4h1.4v-8.4h2.4V88.4z M903.3,96.4
		c-0.3-0.3-0.4-0.7-0.4-1.3v-5.6h2.8v-1.1h-2.8v-2.2H902l-0.6,2l-1.4,0.6v0.7h1.4v5.7c0,1.9,0.9,2.9,2.8,2.9c0.2,0,0.5,0,0.8-0.1
		c0.3,0,0.5-0.1,0.7-0.2v-1.1c-0.1,0-0.3,0.1-0.6,0.1c-0.2,0-0.5,0.1-0.7,0.1C903.9,96.9,903.5,96.7,903.3,96.4 M892.7,96.5
		c-0.3-0.3-0.5-0.7-0.5-1.2c0-0.7,0.3-1.2,0.8-1.5c0.5-0.3,1.3-0.5,2.5-0.5l1.4-0.1v0.9c0,0.9-0.3,1.6-0.8,2.1
		c-0.5,0.5-1.2,0.7-2.1,0.7C893.4,96.9,893,96.8,892.7,96.5 M898.3,97.9v-6.5c0-1.1-0.3-1.9-0.8-2.4c-0.5-0.5-1.4-0.8-2.5-0.8
		c-0.6,0-1.1,0.1-1.7,0.2c-0.6,0.1-1.1,0.3-1.5,0.6l0.4,1.1c1-0.5,1.9-0.7,2.7-0.7c0.7,0,1.2,0.2,1.5,0.5c0.3,0.4,0.5,0.9,0.5,1.7
		v0.6l-1.6,0.1c-3.1,0.1-4.6,1.1-4.6,3c0,0.9,0.3,1.6,0.8,2.1c0.5,0.5,1.3,0.7,2.2,0.7c0.7,0,1.3-0.1,1.8-0.3
		c0.5-0.2,0.9-0.6,1.4-1.2h0.1l0.3,1.4H898.3z M888.3,84.4h-1.4v13.6h1.4V84.4z M882.2,90.4c0.5,0.6,0.7,1.5,0.7,2.7
		c0,1.2-0.2,2.1-0.7,2.8c-0.5,0.7-1.1,1-1.9,1c-1,0-1.7-0.3-2.2-0.9c-0.4-0.6-0.7-1.5-0.7-2.9v-0.3c0-1.2,0.2-2,0.7-2.6
		c0.4-0.5,1.1-0.8,2.1-0.8C881,89.4,881.7,89.7,882.2,90.4 M883.3,96.8c0.7-0.9,1-2.1,1-3.7c0-1.6-0.3-2.8-1-3.6s-1.7-1.3-2.9-1.3
		c-0.6,0-1.2,0.1-1.7,0.3c-0.5,0.2-0.9,0.6-1.3,1.1h-0.1l-0.2-1.3h-1.2v13.8h1.4v-3.9c0-0.5,0-1-0.1-1.6h0.1
		c0.3,0.5,0.8,0.8,1.3,1.1c0.5,0.2,1.1,0.3,1.7,0.3C881.6,98.1,882.6,97.7,883.3,96.8 M862.7,96.5c-0.3-0.3-0.5-0.7-0.5-1.2
		c0-0.7,0.3-1.2,0.8-1.5c0.5-0.3,1.3-0.5,2.5-0.5l1.4-0.1v0.9c0,0.9-0.3,1.6-0.8,2.1c-0.5,0.5-1.2,0.7-2.1,0.7
		C863.4,96.9,863,96.8,862.7,96.5 M868.3,97.9v-6.5c0-1.1-0.3-1.9-0.8-2.4c-0.5-0.5-1.4-0.8-2.5-0.8c-0.6,0-1.1,0.1-1.7,0.2
		c-0.6,0.1-1.1,0.3-1.5,0.6l0.4,1.1c1-0.5,1.9-0.7,2.7-0.7c0.7,0,1.2,0.2,1.5,0.5c0.3,0.4,0.5,0.9,0.5,1.7v0.6l-1.6,0.1
		c-3.1,0.1-4.6,1.1-4.6,3c0,0.9,0.3,1.6,0.8,2.1c0.5,0.5,1.3,0.7,2.2,0.7c0.7,0,1.3-0.1,1.8-0.3c0.5-0.2,0.9-0.6,1.4-1.2h0.1
		l0.3,1.4H868.3z M857.1,96.4c-0.3-0.3-0.4-0.7-0.4-1.3v-5.6h2.8v-1.1h-2.8v-2.2h-0.8l-0.6,2l-1.4,0.6v0.7h1.4v5.7
		c0,1.9,0.9,2.9,2.8,2.9c0.2,0,0.5,0,0.8-0.1c0.3,0,0.5-0.1,0.7-0.2v-1.1c-0.1,0-0.3,0.1-0.6,0.1c-0.2,0-0.5,0.1-0.7,0.1
		C857.7,96.9,857.3,96.7,857.1,96.4 M846.5,96.5c-0.3-0.3-0.5-0.7-0.5-1.2c0-0.7,0.3-1.2,0.8-1.5c0.5-0.3,1.3-0.5,2.5-0.5l1.4-0.1
		v0.9c0,0.9-0.3,1.6-0.8,2.1c-0.5,0.5-1.2,0.7-2.1,0.7C847.2,96.9,846.8,96.8,846.5,96.5 M852.1,97.9v-6.5c0-1.1-0.3-1.9-0.8-2.4
		c-0.5-0.5-1.4-0.8-2.5-0.8c-0.6,0-1.1,0.1-1.7,0.2c-0.6,0.1-1.1,0.3-1.5,0.6l0.4,1.1c1-0.5,1.9-0.7,2.7-0.7c0.7,0,1.2,0.2,1.5,0.5
		c0.3,0.4,0.5,0.9,0.5,1.7v0.6l-1.6,0.1c-3.1,0.1-4.6,1.1-4.6,3c0,0.9,0.3,1.6,0.8,2.1c0.5,0.5,1.3,0.7,2.2,0.7
		c0.7,0,1.3-0.1,1.8-0.3c0.5-0.2,0.9-0.6,1.4-1.2h0.1l0.3,1.4H852.1z M835.9,95.9c-0.4-0.6-0.7-1.5-0.7-2.8c0-1.2,0.2-2.1,0.7-2.8
		c0.4-0.7,1.1-1,1.9-1c1,0,1.7,0.3,2.2,0.9c0.4,0.6,0.7,1.5,0.7,2.9v0.3c0,1.2-0.2,2.1-0.7,2.6c-0.4,0.5-1.2,0.8-2.1,0.8
		C837,96.9,836.3,96.6,835.9,95.9 M840.9,97.9h1.2V84.4h-1.4v3.9l0,0.7l0.1,0.7h-0.1c-0.7-0.9-1.7-1.4-3-1.4c-1.2,0-2.2,0.4-2.9,1.3
		c-0.7,0.9-1,2.1-1,3.7c0,1.6,0.3,2.8,1,3.6c0.7,0.9,1.7,1.3,2.9,1.3c1.3,0,2.3-0.5,3-1.5h0.1L840.9,97.9z"/>
	<path class="st32" d="M917.1,72.4v-6.2c0-1.2-0.3-2.1-0.8-2.7c-0.5-0.6-1.3-0.8-2.4-0.8c-0.7,0-1.3,0.1-1.8,0.4
		c-0.5,0.3-1,0.7-1.2,1.2h-0.1c-0.5-1.1-1.4-1.6-2.9-1.6c-0.6,0-1.2,0.1-1.7,0.4c-0.5,0.3-0.9,0.6-1.2,1.1h-0.1l-0.2-1.3h-1.2v9.5
		h1.4v-5c0-1.2,0.2-2.1,0.6-2.7c0.4-0.5,1.1-0.8,2-0.8c0.7,0,1.2,0.2,1.5,0.6c0.3,0.4,0.5,1,0.5,1.7v6.2h1.4v-5.3
		c0-1.1,0.2-1.9,0.6-2.4c0.4-0.5,1.1-0.8,2-0.8c0.7,0,1.2,0.2,1.5,0.6c0.3,0.4,0.5,1,0.5,1.7v6.2H917.1z M898.9,64.7
		c0.4,0.5,0.6,1.2,0.6,2.1h-5c0.1-0.9,0.3-1.6,0.8-2.1c0.5-0.5,1.1-0.7,1.8-0.7C897.9,63.9,898.5,64.2,898.9,64.7 M899.2,72.5
		c0.5-0.1,0.9-0.3,1.4-0.5v-1.3c-1,0.4-2,0.6-3,0.6c-1,0-1.7-0.3-2.3-0.9c-0.5-0.6-0.8-1.4-0.8-2.6h6.6V67c0-1.3-0.3-2.3-1-3.1
		c-0.7-0.8-1.6-1.2-2.8-1.2c-1.3,0-2.3,0.5-3.1,1.4c-0.8,0.9-1.1,2.1-1.1,3.7c0,1.5,0.4,2.7,1.2,3.6c0.8,0.9,1.9,1.3,3.3,1.3
		C898.2,72.6,898.8,72.6,899.2,72.5 M891.3,71.1h-6.9l6.8-10.2v-1.2h-8.4V61h6.5l-6.8,10.2v1.2h8.8V71.1z M878.7,64.7
		c0.4,0.5,0.6,1.2,0.6,2.1h-5c0.1-0.9,0.4-1.6,0.8-2.1c0.5-0.5,1.1-0.7,1.8-0.7C877.7,63.9,878.3,64.2,878.7,64.7 M879,72.5
		c0.5-0.1,0.9-0.3,1.4-0.5v-1.3c-1,0.4-2,0.6-3,0.6c-1,0-1.7-0.3-2.3-0.9c-0.5-0.6-0.8-1.4-0.8-2.6h6.6V67c0-1.3-0.3-2.3-1-3.1
		c-0.7-0.8-1.6-1.2-2.8-1.2c-1.3,0-2.3,0.5-3.1,1.4c-0.8,0.9-1.1,2.1-1.1,3.7c0,1.5,0.4,2.7,1.2,3.6c0.8,0.9,1.9,1.3,3.3,1.3
		C878,72.6,878.6,72.6,879,72.5 M864.1,70.5c-0.4-0.6-0.7-1.5-0.7-2.8c0-1.2,0.2-2.1,0.7-2.8c0.4-0.7,1.1-1,1.9-1
		c1,0,1.7,0.3,2.2,0.9c0.4,0.6,0.7,1.5,0.7,2.9V68c0,1.2-0.2,2.1-0.7,2.6c-0.4,0.5-1.2,0.8-2.1,0.8
		C865.2,71.4,864.5,71.1,864.1,70.5 M869.1,72.4h1.2V58.9h-1.4v3.9l0,0.7l0.1,0.7h-0.1c-0.7-0.9-1.7-1.4-3-1.4
		c-1.2,0-2.2,0.4-2.9,1.3c-0.7,0.9-1,2.1-1,3.7c0,1.6,0.3,2.8,1,3.6c0.7,0.9,1.7,1.3,2.9,1.3c1.3,0,2.3-0.5,3-1.5h0.1L869.1,72.4z"
		/>
	<path class="st33" d="M924.6,245.9c0-2.6-5.8-4.7-12.9-4.7c-7.1,0-12.9,2.1-12.9,4.7v3.9c0,2.6,5.8,4.7,12.9,4.7c0.5,0,1,0,1.4,0
		c0.2-3.4,5.5-5.3,11.5-5.8V245.9z"/>
	<path class="st33" d="M898.8,252.4l0,0.3v6c0,2.6,5.8,4.7,12.9,4.7c0.5,0,1,0,1.4,0v-6.7c-0.5,0-0.9,0-1.4,0
		C904.9,256.7,899.3,254.8,898.8,252.4"/>
	<path class="st33" d="M898.8,261.5l0,0.3v6c0,2.6,5.8,4.7,12.9,4.7c0.5,0,1,0,1.4,0v-6.7c-0.5,0-0.9,0-1.4,0
		C904.9,265.8,899.3,263.9,898.8,261.5"/>
	<path class="st33" d="M927.8,250.3c-7.1,0-12.9,2.1-12.9,4.7v3.9c0,2.6,5.8,4.7,12.9,4.7c7.1,0,12.9-2.1,12.9-4.7V255
		C940.7,252.4,935,250.3,927.8,250.3"/>
	<path class="st34" d="M927.8,265.9c-6.8,0-12.4-1.9-12.9-4.4l0,0.3v6c0,2.6,5.8,4.7,12.9,4.7c7.1,0,12.9-2.1,12.9-4.7v-6
		c0-0.1,0-0.2,0-0.3C940.2,263.9,934.6,265.9,927.8,265.9"/>
	<path class="st33" d="M927.8,275c-6.8,0-12.4-1.9-12.9-4.4l0,0.3v6c0,2.6,5.8,4.7,12.9,4.7c7.1,0,12.9-2.1,12.9-4.7v-6
		c0-0.1,0-0.2,0-0.3C940.2,273,934.6,275,927.8,275"/>
</g>
<rect x="854.9" y="254.6" class="st12" width="39.2" height="8.7"/>
<rect x="854.9" y="265.5" class="st12" width="39.2" height="8.7"/>
<rect x="854.9" y="276.4" class="st12" width="39.2" height="8.7"/>
<g>
	<defs>
		<rect id="SVGID_17_" x="20.3" y="12.3" width="1528.7" height="555.4"/>
	</defs>
	<clipPath id="SVGID_18_">
		<use xlink:href="#SVGID_17_"  style="overflow:visible;"/>
	</clipPath>
	<path class="st35" d="M858.7,259c0-1.6,1.3-2.9,2.9-2.9s2.9,1.3,2.9,2.9c0,1.6-1.3,2.9-2.9,2.9S858.7,260.6,858.7,259"/>
	<path class="st36" d="M858.7,269.8c0-1.6,1.3-2.9,2.9-2.9s2.9,1.3,2.9,2.9c0,1.6-1.3,2.9-2.9,2.9S858.7,271.4,858.7,269.8"/>
	<path class="st35" d="M858.7,280.5c0-1.6,1.3-2.9,2.9-2.9s2.9,1.3,2.9,2.9c0,1.6-1.3,2.9-2.9,2.9S858.7,282.1,858.7,280.5"/>
	<path class="st36" d="M741.3,208.6h3v-1.9h-8.2v1.9h3v9h2.3V208.6z M726.2,211.1c-0.3-0.7-0.8-1.2-1.4-1.5
		c-0.6-0.3-1.3-0.5-2.1-0.5c-1.3,0-2.3,0.4-3,1.1c-0.7,0.8-1.1,1.8-1.1,3.2c0,0.9,0.2,1.6,0.5,2.3c0.3,0.7,0.8,1.2,1.4,1.5
		c0.6,0.4,1.3,0.5,2.1,0.5c1.3,0,2.3-0.4,3-1.2c0.7-0.8,1.1-1.8,1.1-3.2C726.7,212.5,726.5,211.8,726.2,211.1 M721.3,211.5
		c0.3-0.4,0.7-0.6,1.3-0.6c0.6,0,1.1,0.2,1.3,0.6c0.3,0.4,0.4,1,0.4,1.9c0,0.8-0.1,1.5-0.4,1.9c-0.3,0.4-0.7,0.6-1.3,0.6
		c-0.6,0-1.1-0.2-1.3-0.6s-0.4-1-0.4-1.9C720.9,212.6,721,212,721.3,211.5 M708.1,206.7h-2.3v10.9h2.3V206.7z M689.7,213.4
		c0-0.9,0.1-1.5,0.4-1.9c0.3-0.4,0.7-0.6,1.3-0.6c0.4,0,0.8,0.2,1,0.5c0.2,0.3,0.3,0.8,0.3,1.4v4.9h2.3v-5.4c0-1.1-0.2-1.8-0.7-2.3
		c-0.5-0.5-1.2-0.7-2.1-0.7c-0.5,0-1,0.1-1.5,0.3c-0.4,0.2-0.8,0.5-1,0.9h-0.2c-0.4-0.8-1.3-1.2-2.5-1.2c-0.5,0-1,0.1-1.5,0.3
		c-0.4,0.2-0.7,0.5-1,0.9h-0.1l-0.3-1.1h-1.7v8.3h2.3v-3.9c0-1,0.1-1.7,0.4-2.1c0.3-0.4,0.7-0.6,1.3-0.6c0.4,0,0.8,0.2,1,0.5
		c0.2,0.3,0.3,0.8,0.3,1.4v4.9h2.3V213.4z M670.2,217.6c0.5-0.1,0.9-0.2,1.3-0.4v-1.8c-0.5,0.2-1,0.4-1.4,0.5
		c-0.4,0.1-0.9,0.2-1.4,0.2c-0.6,0-1.1-0.2-1.5-0.5c-0.4-0.4-0.5-0.9-0.6-1.5h5.4v-1.1c0-1.2-0.3-2.1-1-2.8c-0.7-0.7-1.6-1-2.8-1
		c-1.2,0-2.2,0.4-2.9,1.1c-0.7,0.8-1,1.8-1,3.2c0,1.4,0.4,2.4,1.1,3.2c0.8,0.7,1.8,1.1,3.2,1.1C669.2,217.7,669.7,217.7,670.2,217.6
		 M669.4,211.2c0.3,0.3,0.4,0.7,0.4,1.3h-3.2c0-0.6,0.2-1,0.5-1.3c0.3-0.3,0.7-0.5,1.1-0.5C668.7,210.7,669.1,210.9,669.4,211.2
		 M654.8,215.7h-5.4l5.2-7.5v-1.5h-7.8v1.9h5.1l-5.2,7.5v1.5h8.1V215.7z M635.5,217.6c0.5-0.1,0.9-0.2,1.3-0.4v-1.8
		c-0.5,0.2-1,0.4-1.4,0.5c-0.4,0.1-0.9,0.2-1.4,0.2c-0.6,0-1.1-0.2-1.5-0.5c-0.4-0.4-0.5-0.9-0.6-1.5h5.4v-1.1c0-1.2-0.3-2.1-1-2.8
		c-0.7-0.7-1.6-1-2.8-1c-1.2,0-2.2,0.4-2.9,1.1c-0.7,0.8-1,1.8-1,3.2c0,1.4,0.4,2.4,1.1,3.2c0.8,0.7,1.8,1.1,3.2,1.1
		C634.5,217.7,635,217.7,635.5,217.6 M634.7,211.2c0.3,0.3,0.4,0.7,0.4,1.3h-3.2c0-0.6,0.2-1,0.5-1.3c0.3-0.3,0.7-0.5,1.1-0.5
		S634.4,210.9,634.7,211.2 M614.2,215.3c-0.3-0.4-0.4-1-0.4-1.8c0-0.8,0.1-1.4,0.4-1.9c0.3-0.4,0.7-0.6,1.2-0.6
		c0.6,0,1.1,0.2,1.3,0.6c0.3,0.4,0.4,1,0.4,1.9v0.2c0,0.8-0.2,1.4-0.4,1.7c-0.3,0.3-0.7,0.5-1.3,0.5
		C614.9,215.9,614.5,215.7,614.2,215.3 M617,216.5L617,216.5l0.5,1.1h1.7V206H617v2.7c0,0.5,0.1,1,0.2,1.7h-0.1
		c-0.6-0.8-1.4-1.2-2.4-1.2c-1,0-1.8,0.4-2.4,1.1c-0.6,0.8-0.9,1.8-0.9,3.2c0,1.3,0.3,2.4,0.8,3.2c0.6,0.8,1.3,1.1,2.3,1.1
		C615.7,217.7,616.5,217.3,617,216.5"/>
	<path class="st37" d="M682.8,167.8l-15.3,22.1h19.3c2.7-3.1,4.4-7.2,4.4-11.6c0-9.8-7.9-17.7-17.7-17.7c-5.1,0-9.7,2.2-12.9,5.6
		h22.3V167.8z"/>
	<path class="st38" d="M665.1,190.1l15.8-22.3h-21.7c-2.2,2.9-3.5,6.6-3.5,10.5c0,9.8,7.9,17.7,17.7,17.7c4.5,0,8.6-1.7,11.8-4.5
		h-20.1V190.1z"/>
	<path class="st39" d="M686.7,189.9h-19.3l15.3-22.1v-1.6h-22.3c-0.5,0.5-0.9,1-1.3,1.6h21.7l-15.8,22.3v1.4h20.1
		C685.7,191,686.3,190.5,686.7,189.9"/>
	<path class="st38" d="M627.2,172.9c-2.7-0.7-5-1.1-7-1.1c-5.4,0-8,2.7-8,8.2c0,6.4,2.7,9.5,8,9.5c2,0,4.3-0.3,7-0.8V172.9z
		 M629.4,190.2c-2.6,0.9-5.9,1.3-9.8,1.3c-6.5,0-9.7-3.8-9.7-11.3c0-7,3.5-10.5,10.4-10.5c1.9,0,4.2,0.3,7,1v-5.9h2.2V190.2z"/>
	<path class="st38" d="M635.7,179.2H650c0.3-5.1-1.9-7.6-6.6-7.6C638.5,171.6,635.9,174.1,635.7,179.2 M652.1,181.1h-16.4
		c0,5.7,3.4,8.6,10.1,8.6c1.9,0,3.9-0.2,5.8-0.6v1.9c-1.9,0.4-4.3,0.6-7,0.6c-7.4,0-11-3.7-11-11.2c0-7.1,3.5-10.7,10.5-10.7
		C650.4,169.7,653.1,173.5,652.1,181.1"/>
	<path class="st38" d="M696.4,179.2h14.3c0.3-5.1-1.9-7.6-6.7-7.6C699.2,171.6,696.7,174.1,696.4,179.2 M712.8,181.1h-16.4
		c0,5.7,3.4,8.6,10.1,8.6c1.9,0,3.9-0.2,5.8-0.6v1.9c-1.9,0.4-4.3,0.6-7,0.6c-7.4,0-11-3.7-11-11.2c0-7.1,3.5-10.7,10.5-10.7
		C711.1,169.7,713.8,173.5,712.8,181.1"/>
	<path class="st38" d="M717.5,191.6v-21.8h1.6l0.2,2.7c2.4-1.8,3.7-2.7,6.5-2.7c2.6,0,4.4,1,5.4,3c0,0,2.4-3,6-3
		c4.6,0,6.9,2.4,6.9,7.3v14.6h-2.2V177c0-3.5-1.8-5.4-5-5.3c-1.9,0.1-3.2,1.2-4.9,2.8v17h-2.2v-14.9c0-3.3-1.6-4.9-4.7-4.9
		c-2.1,0-3.2,0.9-5.4,2.8v17H717.5z"/>
	<path class="st40" d="M397.8,323.4c-9.1-9.1-9.1-23.8,0-32.9l-3.1-3.1c-10.8,10.8-10.8,28.3,0,39L397.8,323.4z"/>
	<path class="st40" d="M430.7,323.4l3.1,3.1c10.8-10.8,10.8-28.3,0-39l-3.1,3.1C439.7,299.6,439.7,314.3,430.7,323.4"/>
	<path class="st40" d="M401.9,319.3l3.1-3.1c-2.5-2.5-3.8-5.7-3.8-9.2c0-3.5,1.4-6.8,3.8-9.2l-3.1-3.1c-3.3,3.3-5.1,7.7-5.1,12.3
		C396.8,311.6,398.6,316,401.9,319.3"/>
	<path class="st40" d="M426.6,319.3c3.3-3.3,5.1-7.7,5.1-12.3c0-4.7-1.8-9-5.1-12.3l-3.1,3.1c2.5,2.5,3.8,5.7,3.8,9.2
		c0,3.5-1.4,6.8-3.8,9.2L426.6,319.3z"/>
	<path class="st39" d="M407.3,343.5l13.8,0l3,10.3h-19.7L407.3,343.5z M414.2,319.8l5.6,19.3l-11.2,0L414.2,319.8z M416.4,311.6
		c1.7-0.8,3-2.6,3-4.6c0-2.8-2.3-5.1-5.1-5.1c-2.8,0-5.1,2.3-5.1,5.1c0,2,1.2,3.8,3,4.6l-12.3,42.2h-8.5v4.4h45.9v-4.4h-8.5
		L416.4,311.6z"/>
	<path class="st35" d="M397.8,196c-9.1-9.1-9.1-23.8,0-32.9l-3.1-3.1c-10.8,10.8-10.8,28.3,0,39L397.8,196z"/>
	<path class="st35" d="M430.7,196l3.1,3.1c10.8-10.8,10.8-28.3,0-39l-3.1,3.1C439.7,172.2,439.7,186.9,430.7,196"/>
	<path class="st35" d="M401.9,191.9l3.1-3.1c-2.5-2.5-3.8-5.7-3.8-9.2c0-3.5,1.4-6.8,3.8-9.2l-3.1-3.1c-3.3,3.3-5.1,7.7-5.1,12.3
		C396.8,184.2,398.6,188.6,401.9,191.9"/>
	<path class="st35" d="M426.6,191.9c3.3-3.3,5.1-7.7,5.1-12.3c0-4.7-1.8-9-5.1-12.3l-3.1,3.1c2.5,2.5,3.8,5.7,3.8,9.2
		c0,3.5-1.4,6.8-3.8,9.2L426.6,191.9z"/>
	<path class="st39" d="M407.3,216.1l13.8,0l3,10.3h-19.7L407.3,216.1z M414.2,192.4l5.6,19.3l-11.2,0L414.2,192.4z M416.4,184.2
		c1.7-0.8,3-2.6,3-4.6c0-2.8-2.3-5.1-5.1-5.1c-2.8,0-5.1,2.3-5.1,5.1c0,2,1.2,3.8,3,4.6l-12.3,42.2h-8.5v4.4h45.9v-4.4h-8.5
		L416.4,184.2z"/>
</g>
<rect x="1408" y="475.4" class="st1" width="39.4" height="25.9"/>
<g>
	<defs>
		<rect id="SVGID_19_" x="20.3" y="12.3" width="1528.7" height="555.4"/>
	</defs>
	<clipPath id="SVGID_20_">
		<use xlink:href="#SVGID_19_"  style="overflow:visible;"/>
	</clipPath>
	<path class="st41" d="M1408,501.4v1.5h39.4c0.4,0,0.8-0.2,1.1-0.4c0.3-0.3,0.4-0.7,0.4-1.1v-25.9c0-0.4-0.2-0.8-0.4-1.1
		c-0.3-0.3-0.7-0.4-1.1-0.4H1408c-0.4,0-0.8,0.2-1.1,0.4c-0.3,0.3-0.4,0.7-0.4,1.1v25.9c0,0.4,0.2,0.8,0.4,1.1
		c0.3,0.3,0.7,0.4,1.1,0.4V501.4h1.5v-24.4h36.4v22.9H1408V501.4h1.5H1408z"/>
</g>
<polyline class="st8" points="1408,476.8 1427.6,489.2 1447.3,476.8 "/>
<g>
	<defs>
		<rect id="SVGID_21_" x="20.3" y="12.3" width="1528.7" height="555.4"/>
	</defs>
	<clipPath id="SVGID_22_">
		<use xlink:href="#SVGID_21_"  style="overflow:visible;"/>
	</clipPath>
	<path class="st42" d="M1407.2,478.1l19.6,12.4c0.5,0.3,1.1,0.3,1.6,0l19.6-12.4c0.7-0.4,0.9-1.4,0.5-2.1c-0.4-0.7-1.4-0.9-2.1-0.5
		l-18.8,11.9l-18.8-11.9c-0.7-0.4-1.6-0.2-2.1,0.5C1406.3,476.7,1406.5,477.7,1407.2,478.1"/>
	<path class="st42" d="M1233.3,534.3c0.8-0.2,1.5-0.4,2.1-0.7v-2.9c-0.8,0.4-1.6,0.7-2.3,0.8c-0.7,0.2-1.5,0.3-2.4,0.3
		c-1.1,0-1.9-0.3-2.5-0.9c-0.6-0.6-0.9-1.4-1-2.5h9v-1.8c0-2-0.5-3.5-1.6-4.6c-1.1-1.1-2.6-1.7-4.6-1.7c-2.1,0-3.7,0.6-4.8,1.9
		c-1.2,1.3-1.7,3.1-1.7,5.4c0,2.3,0.6,4,1.9,5.2c1.3,1.2,3,1.9,5.2,1.9C1231.6,534.5,1232.5,534.4,1233.3,534.3 M1231.9,523.6
		c0.5,0.5,0.7,1.2,0.7,2.2h-5.3c0.1-0.9,0.3-1.7,0.8-2.2c0.5-0.5,1.1-0.8,1.9-0.8C1230.8,522.8,1231.4,523.1,1231.9,523.6
		 M1220.9,528.4c-0.2-0.5-0.6-0.9-1.1-1.3c-0.5-0.4-1.3-0.8-2.4-1.2c-1.2-0.5-2-0.9-2.4-1.1c-0.4-0.2-0.5-0.5-0.5-0.9
		c0-0.6,0.6-0.9,1.7-0.9c0.6,0,1.2,0.1,1.9,0.3c0.6,0.2,1.3,0.4,2,0.7l1.1-2.7c-1.6-0.7-3.2-1.1-4.9-1.1c-1.8,0-3.1,0.3-4.1,1
		c-1,0.7-1.4,1.6-1.4,2.9c0,0.7,0.1,1.3,0.3,1.8c0.2,0.5,0.6,0.9,1.1,1.3c0.5,0.4,1.3,0.8,2.4,1.2c0.7,0.3,1.3,0.6,1.8,0.8
		c0.4,0.2,0.8,0.4,0.9,0.6c0.2,0.2,0.3,0.4,0.3,0.7c0,0.8-0.7,1.2-2.1,1.2c-0.7,0-1.4-0.1-2.3-0.3c-0.9-0.2-1.7-0.5-2.4-0.8v3.1
		c0.6,0.3,1.3,0.5,2,0.6s1.6,0.2,2.6,0.2c2,0,3.5-0.4,4.4-1.1c1-0.7,1.5-1.8,1.5-3.3C1221.2,529.5,1221.1,528.9,1220.9,528.4
		 M1207.6,520.4h-3.8v13.9h3.8V520.4z M1205.7,518.6c0.7,0,1.2-0.2,1.5-0.5c0.3-0.3,0.5-0.8,0.5-1.4c0-1.2-0.7-1.9-2.1-1.9
		c-1.4,0-2.1,0.6-2.1,1.9C1203.6,518,1204.3,518.6,1205.7,518.6 M1199.8,514.9h-3.8v19.4h3.8V514.9z M1188.3,529
		c0,0.8-0.3,1.5-0.8,2c-0.5,0.5-1.2,0.8-2.1,0.8c-1.2,0-1.8-0.5-1.8-1.6c0-0.7,0.3-1.3,0.8-1.7c0.5-0.4,1.4-0.6,2.5-0.6l1.5,0V529z
		 M1192.1,534.3V525c0-1.7-0.5-2.9-1.5-3.7c-1-0.8-2.4-1.2-4.3-1.2c-1.9,0-3.7,0.4-5.3,1.3l1.3,2.6c1.5-0.7,2.8-1,3.9-1
		c1.4,0,2.2,0.7,2.2,2.1v0.6l-2.4,0.1c-2.1,0.1-3.6,0.5-4.7,1.2c-1,0.7-1.5,1.8-1.5,3.3c0,1.4,0.4,2.5,1.2,3.3
		c0.8,0.8,1.8,1.1,3.2,1.1c1.1,0,2-0.2,2.6-0.5c0.7-0.3,1.3-0.9,2-1.7h0.1l0.7,1.9H1192.1z M1176.6,534.3v-13.9h-3.8v6.5
		c0,1.6-0.2,2.8-0.7,3.5c-0.5,0.7-1.2,1.1-2.3,1.1c-0.8,0-1.3-0.3-1.7-0.8c-0.4-0.5-0.5-1.3-0.5-2.3v-8.1h-3.8v9.1
		c0,1.6,0.4,2.9,1.2,3.8c0.8,0.9,2.1,1.3,3.7,1.3c1,0,1.8-0.2,2.6-0.5c0.7-0.4,1.3-0.9,1.7-1.5h0.2l0.5,1.8H1176.6z M1160.5,528.4
		c-0.2-0.5-0.6-0.9-1.1-1.3c-0.5-0.4-1.3-0.8-2.4-1.2c-1.2-0.5-2-0.9-2.4-1.1c-0.4-0.2-0.5-0.5-0.5-0.9c0-0.6,0.6-0.9,1.7-0.9
		c0.6,0,1.2,0.1,1.9,0.3c0.6,0.2,1.3,0.4,2,0.7l1.1-2.7c-1.6-0.7-3.2-1.1-4.9-1.1c-1.8,0-3.1,0.3-4.1,1c-1,0.7-1.4,1.6-1.4,2.9
		c0,0.7,0.1,1.3,0.3,1.8c0.2,0.5,0.6,0.9,1.1,1.3c0.5,0.4,1.3,0.8,2.4,1.2c0.7,0.3,1.3,0.6,1.8,0.8c0.4,0.2,0.8,0.4,0.9,0.6
		c0.2,0.2,0.3,0.4,0.3,0.7c0,0.8-0.7,1.2-2.1,1.2c-0.7,0-1.4-0.1-2.3-0.3c-0.9-0.2-1.7-0.5-2.4-0.8v3.1c0.6,0.3,1.3,0.5,2,0.6
		s1.6,0.2,2.6,0.2c2,0,3.5-0.4,4.4-1.1c1-0.7,1.5-1.8,1.5-3.3C1160.9,529.5,1160.8,528.9,1160.5,528.4 M1147.2,520.4h-3.8v13.9h3.8
		V520.4z M1145.3,518.6c0.7,0,1.2-0.2,1.5-0.5c0.3-0.3,0.5-0.8,0.5-1.4c0-1.2-0.7-1.9-2.1-1.9c-1.4,0-2.1,0.6-2.1,1.9
		C1143.3,518,1143.9,518.6,1145.3,518.6 M1136.1,534.3l5.3-13.9h-4l-2.7,7.9c-0.3,1.1-0.5,2.1-0.6,2.8h-0.1
		c-0.1-0.9-0.3-1.8-0.6-2.8l-2.7-7.9h-4l5.3,13.9H1136.1z M1118.4,531.3h-3.5c-0.3,2-0.7,4-1.3,6.2h2.7c1-2.3,1.8-4.3,2.2-6
		L1118.4,531.3z M1108.5,531.1c-0.3-0.3-0.5-0.7-0.5-1.2v-6.7h3.9v-2.8h-3.9v-3h-2.4l-1.1,2.9l-2.1,1.3v1.6h1.8v6.7
		c0,1.5,0.3,2.7,1,3.5c0.7,0.8,1.8,1.2,3.3,1.2c1.4,0,2.5-0.2,3.5-0.6v-2.8c-0.9,0.3-1.7,0.4-2.4,0.4
		C1109.2,531.5,1108.8,531.4,1108.5,531.1 M1097.7,520.8c-0.7,0.5-1.3,1.1-1.7,1.9h-0.2l-0.6-2.3h-2.9v13.9h3.8v-7.1
		c0-1.1,0.3-2,1-2.6c0.7-0.6,1.6-0.9,2.8-0.9c0.4,0,0.8,0,1.1,0.1l0.3-3.6c-0.3-0.1-0.8-0.1-1.3-0.1
		C1099.2,520.1,1098.4,520.3,1097.7,520.8 M1088.3,523.5c-0.5-1.1-1.3-1.9-2.4-2.5c-1-0.6-2.2-0.9-3.5-0.9c-2.1,0-3.8,0.6-5,1.9
		c-1.2,1.3-1.8,3-1.8,5.3c0,1.5,0.3,2.7,0.8,3.8c0.5,1.1,1.3,1.9,2.4,2.5c1,0.6,2.2,0.9,3.5,0.9c2.1,0,3.8-0.6,5-1.9
		c1.2-1.3,1.8-3,1.8-5.3C1089.1,525.8,1088.9,524.6,1088.3,523.5 M1080.2,524.2c0.4-0.7,1.2-1,2.2-1c1,0,1.8,0.3,2.2,1
		c0.4,0.7,0.7,1.7,0.7,3.1c0,1.4-0.2,2.4-0.7,3.1c-0.4,0.7-1.2,1.1-2.2,1.1c-1,0-1.8-0.4-2.2-1.1c-0.5-0.7-0.7-1.7-0.7-3.1
		C1079.5,525.9,1079.8,524.9,1080.2,524.2 M1068.9,524.2c0.4,0.7,0.6,1.7,0.6,3.1c0,2.8-0.8,4.2-2.6,4.2c-1,0-1.7-0.3-2.1-1
		c-0.4-0.6-0.7-1.7-0.7-3.2v-0.4c0-1.3,0.2-2.3,0.7-2.9c0.4-0.6,1.1-0.9,2.1-0.9C1067.8,523.1,1068.5,523.5,1068.9,524.2
		 M1070.9,533.7c0.8-0.6,1.4-1.4,1.9-2.5c0.4-1.1,0.7-2.4,0.7-3.9c0-2.3-0.5-4-1.4-5.3c-0.9-1.3-2.2-1.9-3.9-1.9
		c-1.7,0-3.1,0.7-3.9,2.1h-0.2l-0.5-1.8h-3.1v20h3.8v-5.6c0-0.2-0.1-0.9-0.2-2h0.2c0.9,1.2,2.2,1.8,3.8,1.8
		C1069.1,534.5,1070.1,534.2,1070.9,533.7 M1054.4,534.3c0.8-0.2,1.5-0.4,2.1-0.7v-2.9c-0.8,0.4-1.6,0.7-2.3,0.8
		c-0.7,0.2-1.5,0.3-2.4,0.3c-1.1,0-1.9-0.3-2.5-0.9c-0.6-0.6-0.9-1.4-1-2.5h9v-1.8c0-2-0.5-3.5-1.6-4.6c-1.1-1.1-2.6-1.7-4.6-1.7
		c-2.1,0-3.7,0.6-4.8,1.9c-1.2,1.3-1.7,3.1-1.7,5.4c0,2.3,0.6,4,1.9,5.2c1.3,1.2,3,1.9,5.2,1.9
		C1052.7,534.5,1053.6,534.4,1054.4,534.3 M1053,523.6c0.5,0.5,0.7,1.2,0.7,2.2h-5.3c0.1-0.9,0.3-1.7,0.8-2.2
		c0.5-0.5,1.1-0.8,1.9-0.8C1051.9,522.8,1052.5,523.1,1053,523.6 M1034.7,527.3l4.3,7h4.3c-0.8-1.2-2.6-3.8-5.3-7.9
		c1.1-0.5,1.9-1.1,2.5-2c0.6-0.8,0.9-1.8,0.9-2.9c0-1.8-0.6-3.2-1.8-4.1c-1.2-0.9-3-1.3-5.5-1.3h-5.3v18.2h3.9v-7H1034.7z
		 M1032.7,519.3h1.2c1.2,0,2.2,0.2,2.8,0.5c0.6,0.4,0.9,1,0.9,1.8c0,0.9-0.3,1.5-0.9,1.9c-0.6,0.4-1.5,0.6-2.7,0.6h-1.2V519.3z"/>
</g>
<line class="st31" x1="764.4" y1="339.6" x2="829.4" y2="277.2"/>
<g>
	<defs>
		<rect id="SVGID_23_" x="20.3" y="12.3" width="1528.7" height="555.4"/>
	</defs>
	<clipPath id="SVGID_24_">
		<use xlink:href="#SVGID_23_"  style="overflow:visible;"/>
	</clipPath>
	<path class="st43" d="M274.3,481.6c-0.4-0.4-1.2-0.8-2.3-1.2c-0.8-0.3-1.4-0.5-1.7-0.7c-0.3-0.2-0.5-0.3-0.6-0.5
		c-0.1-0.2-0.2-0.4-0.2-0.7c0-0.4,0.2-0.7,0.5-0.9c0.3-0.2,0.9-0.3,1.6-0.3c0.8,0,1.6,0.2,2.6,0.6l0.5-1.2c-1-0.4-2-0.6-3-0.6
		c-1.1,0-2,0.2-2.6,0.7c-0.6,0.4-0.9,1.1-0.9,1.8c0,0.4,0.1,0.8,0.3,1.1c0.2,0.3,0.5,0.6,0.8,0.8c0.4,0.2,1,0.5,1.9,0.9
		c0.9,0.4,1.6,0.7,1.9,0.9c0.3,0.3,0.5,0.6,0.5,1c0,0.5-0.2,0.9-0.6,1.1c-0.4,0.2-1,0.4-1.7,0.4c-0.5,0-1-0.1-1.5-0.2
		c-0.5-0.1-1-0.3-1.5-0.5v1.3c0.7,0.4,1.7,0.6,3,0.6c1.2,0,2.1-0.2,2.8-0.7c0.7-0.5,1-1.2,1-2.1C274.9,482.6,274.7,482,274.3,481.6
		 M264.1,478c0.4,0.5,0.6,1.2,0.6,2.1h-5c0.1-0.9,0.4-1.6,0.8-2.1c0.5-0.5,1.1-0.7,1.8-0.7C263.1,477.3,263.7,477.5,264.1,478
		 M264.4,485.8c0.5-0.1,0.9-0.3,1.5-0.5v-1.3c-1,0.4-2,0.6-3,0.6c-1,0-1.7-0.3-2.3-0.9c-0.5-0.6-0.8-1.4-0.8-2.6h6.6v-0.9
		c0-1.3-0.3-2.3-1-3.1c-0.7-0.8-1.6-1.2-2.8-1.2c-1.3,0-2.3,0.5-3.1,1.4c-0.8,0.9-1.1,2.1-1.1,3.7c0,1.5,0.4,2.7,1.2,3.6
		c0.8,0.9,1.9,1.3,3.3,1.3C263.4,486,263.9,485.9,264.4,485.8 M256.5,485.5v-1.3c-0.8,0.3-1.7,0.5-2.4,0.5c-0.9,0-1.6-0.3-2.1-0.9
		c-0.5-0.6-0.7-1.5-0.7-2.7c0-2.5,1-3.7,2.9-3.7c0.3,0,0.6,0,1,0.1c0.4,0.1,0.7,0.2,1,0.3l0.4-1.2c-0.3-0.1-0.6-0.2-1.1-0.3
		c-0.5-0.1-0.9-0.1-1.4-0.1c-1.4,0-2.5,0.4-3.3,1.3c-0.8,0.9-1.2,2.1-1.2,3.7c0,1.6,0.4,2.8,1.1,3.6c0.8,0.9,1.8,1.3,3.2,1.3
		C255,486,255.8,485.8,256.5,485.5 M245.8,474.4c0.2,0.2,0.4,0.2,0.6,0.2c0.2,0,0.4-0.1,0.6-0.2c0.2-0.2,0.3-0.4,0.3-0.7
		c0-0.3-0.1-0.6-0.3-0.7s-0.4-0.2-0.6-0.2c-0.2,0-0.4,0.1-0.6,0.2c-0.2,0.2-0.2,0.4-0.2,0.7C245.6,474,245.7,474.2,245.8,474.4
		 M247.2,476.2h-1.4v9.5h1.4V476.2z M240.6,485.8l3.6-9.5h-1.6c-1.2,3.3-1.9,5.4-2.3,6.3c-0.3,1-0.5,1.6-0.6,1.9h-0.1
		c-0.1-0.4-0.4-1.3-0.8-2.6l-2.1-5.7h-1.6l3.6,9.5H240.6z M232.2,478c0.4,0.5,0.6,1.2,0.6,2.1h-5c0.1-0.9,0.3-1.6,0.8-2.1
		c0.5-0.5,1.1-0.7,1.8-0.7C231.2,477.3,231.7,477.5,232.2,478 M232.5,485.8c0.5-0.1,0.9-0.3,1.4-0.5v-1.3c-1,0.4-2,0.6-3,0.6
		c-1,0-1.7-0.3-2.3-0.9c-0.5-0.6-0.8-1.4-0.8-2.6h6.6v-0.9c0-1.3-0.3-2.3-1-3.1c-0.7-0.8-1.6-1.2-2.8-1.2c-1.3,0-2.3,0.5-3.1,1.4
		c-0.8,0.9-1.1,2.1-1.1,3.7c0,1.5,0.4,2.7,1.2,3.6c0.8,0.9,1.9,1.3,3.3,1.3C231.5,486,232,485.9,232.5,485.8 M221.3,483.2
		c-0.9,0.9-2.2,1.3-4,1.3h-1.8v-10.2h2.2c1.6,0,2.9,0.4,3.7,1.3c0.8,0.8,1.2,2.1,1.2,3.8C222.6,481.1,222.1,482.3,221.3,483.2
		 M222.5,474.7c-1.1-1.1-2.6-1.6-4.6-1.6H214v12.7h3.5c2.1,0,3.8-0.6,4.9-1.7c1.1-1.1,1.7-2.7,1.7-4.8
		C224.2,477.3,223.6,475.8,222.5,474.7 M199.8,483.8c-0.4-0.6-0.7-1.5-0.7-2.8c0-1.2,0.2-2.1,0.7-2.8c0.5-0.7,1.1-1,1.9-1
		c1,0,1.7,0.3,2.2,0.9c0.4,0.6,0.7,1.5,0.7,2.9v0.3c0,1.2-0.2,2.1-0.7,2.6c-0.4,0.5-1.2,0.8-2.1,0.8
		C201,484.8,200.3,484.4,199.8,483.8 M204.9,485.8h1.2v-13.6h-1.4v3.9l0,0.7l0.1,0.7h-0.1c-0.7-0.9-1.7-1.4-3-1.4
		c-1.2,0-2.2,0.4-2.9,1.3c-0.7,0.9-1,2.1-1,3.7c0,1.6,0.3,2.8,1,3.6c0.7,0.9,1.7,1.3,2.9,1.3c1.3,0,2.3-0.5,3-1.5h0.1L204.9,485.8z
		 M195.1,472.2h-1.4v13.6h1.4V472.2z M189.1,478c0.4,0.5,0.6,1.2,0.6,2.1h-5c0.1-0.9,0.4-1.6,0.8-2.1c0.5-0.5,1.1-0.7,1.8-0.7
		C188.1,477.3,188.7,477.5,189.1,478 M189.4,485.8c0.5-0.1,0.9-0.3,1.4-0.5v-1.3c-1,0.4-2,0.6-3,0.6c-1,0-1.7-0.3-2.3-0.9
		c-0.5-0.6-0.8-1.4-0.8-2.6h6.6v-0.9c0-1.3-0.3-2.3-1-3.1c-0.7-0.8-1.6-1.2-2.8-1.2c-1.3,0-2.3,0.5-3.1,1.4
		c-0.8,0.9-1.1,2.1-1.1,3.7c0,1.5,0.4,2.7,1.2,3.6c0.8,0.9,1.9,1.3,3.3,1.3C188.4,486,188.9,485.9,189.4,485.8 M179.3,474.4
		c0.2,0.2,0.4,0.2,0.6,0.2c0.2,0,0.4-0.1,0.6-0.2c0.2-0.2,0.3-0.4,0.3-0.7c0-0.3-0.1-0.6-0.3-0.7c-0.2-0.2-0.4-0.2-0.6-0.2
		c-0.2,0-0.4,0.1-0.6,0.2s-0.2,0.4-0.2,0.7C179.1,474,179.1,474.2,179.3,474.4 M180.6,476.2h-1.4v9.5h1.4V476.2z M171.7,480.3h5.3
		V479h-5.3v-4.7h5.6v-1.3h-7.1v12.7h1.5V480.3z M160.8,476.6c-0.5,0.3-0.9,0.8-1.3,1.4h-0.1l-0.2-1.8h-1.2v9.5h1.4v-5.1
		c0-0.9,0.3-1.7,0.8-2.3c0.5-0.6,1.2-0.9,2-0.9c0.3,0,0.6,0,1,0.1l0.2-1.3c-0.3-0.1-0.7-0.1-1.1-0.1
		C161.8,476.1,161.3,476.2,160.8,476.6 M153.4,478c0.4,0.5,0.6,1.2,0.6,2.1h-5c0.1-0.9,0.3-1.6,0.8-2.1c0.5-0.5,1.1-0.7,1.8-0.7
		C152.5,477.3,153,477.5,153.4,478 M153.7,485.8c0.5-0.1,0.9-0.3,1.4-0.5v-1.3c-1,0.4-2,0.6-3,0.6c-1,0-1.7-0.3-2.3-0.9
		c-0.5-0.6-0.8-1.4-0.8-2.6h6.6v-0.9c0-1.3-0.3-2.3-1-3.1c-0.7-0.8-1.6-1.2-2.8-1.2c-1.3,0-2.3,0.5-3.1,1.4
		c-0.8,0.9-1.1,2.1-1.1,3.7c0,1.5,0.4,2.7,1.2,3.6c0.8,0.9,1.9,1.3,3.3,1.3C152.7,486,153.3,485.9,153.7,485.8 M145.1,485.8v-6.2
		c0-1.2-0.3-2.1-0.9-2.6c-0.6-0.6-1.5-0.8-2.6-0.8c-0.7,0-1.3,0.1-1.8,0.4c-0.5,0.3-0.9,0.6-1.2,1.1h-0.1c0-0.3,0.1-0.7,0.1-1.2
		v-4.1h-1.4v13.6h1.4v-5c0-1.2,0.2-2.1,0.7-2.7c0.5-0.5,1.2-0.8,2.2-0.8c0.8,0,1.3,0.2,1.7,0.6s0.5,1,0.5,1.7v6.2H145.1z
		 M132.8,484.3c-0.3-0.3-0.4-0.7-0.4-1.3v-5.6h2.8v-1.1h-2.8V474h-0.8l-0.6,2l-1.4,0.6v0.7h1.4v5.7c0,1.9,0.9,2.9,2.8,2.9
		c0.2,0,0.5,0,0.8-0.1c0.3,0,0.5-0.1,0.7-0.2v-1.1c-0.1,0-0.3,0.1-0.6,0.1c-0.2,0-0.5,0.1-0.7,0.1
		C133.4,484.8,133,484.6,132.8,484.3 M121.7,478.2c0.5-0.6,1.2-0.9,2.1-0.9c1,0,1.7,0.3,2.2,0.9c0.5,0.6,0.7,1.6,0.7,2.8
		c0,1.2-0.2,2.2-0.7,2.8c-0.5,0.6-1.2,1-2.2,1c-0.9,0-1.7-0.3-2.2-1c-0.5-0.6-0.7-1.6-0.7-2.8C121,479.8,121.3,478.9,121.7,478.2
		 M127.1,477.4c-0.8-0.9-1.8-1.3-3.2-1.3c-1.4,0-2.5,0.4-3.2,1.3c-0.8,0.9-1.2,2.1-1.2,3.6c0,1,0.2,1.9,0.5,2.6
		c0.4,0.7,0.9,1.3,1.5,1.7c0.7,0.4,1.4,0.6,2.3,0.6c1.4,0,2.5-0.4,3.2-1.3c0.8-0.9,1.2-2.1,1.2-3.6
		C128.3,479.5,127.9,478.3,127.1,477.4 M106.1,483.8c-0.4-0.6-0.7-1.5-0.7-2.8c0-1.2,0.2-2.1,0.7-2.8c0.4-0.7,1.1-1,1.9-1
		c1,0,1.7,0.3,2.2,0.9c0.4,0.6,0.7,1.5,0.7,2.9v0.3c0,1.2-0.2,2.1-0.7,2.6c-0.4,0.5-1.2,0.8-2.1,0.8
		C107.2,484.8,106.6,484.4,106.1,483.8 M111.2,485.8h1.2v-13.6h-1.4v3.9l0,0.7l0.1,0.7h-0.1c-0.7-0.9-1.7-1.4-3-1.4
		c-1.2,0-2.2,0.4-2.9,1.3c-0.7,0.9-1,2.1-1,3.7c0,1.6,0.3,2.8,1,3.6c0.7,0.9,1.7,1.3,2.9,1.3c1.3,0,2.3-0.5,3-1.5h0.1L111.2,485.8z
		 M101.5,485.8v-6.2c0-1.2-0.3-2.1-0.9-2.7c-0.6-0.6-1.4-0.8-2.6-0.8c-0.7,0-1.3,0.1-1.8,0.4c-0.5,0.3-1,0.6-1.2,1.1h-0.1l-0.2-1.3
		h-1.2v9.5H95v-5c0-1.2,0.2-2.1,0.7-2.7c0.5-0.5,1.2-0.8,2.2-0.8c0.8,0,1.3,0.2,1.7,0.6s0.5,1,0.5,1.7v6.2H101.5z M84.9,484.4
		c-0.3-0.3-0.5-0.7-0.5-1.2c0-0.7,0.3-1.2,0.8-1.5c0.5-0.3,1.3-0.5,2.5-0.5l1.4-0.1v0.9c0,0.9-0.3,1.6-0.8,2.1
		c-0.5,0.5-1.2,0.7-2.1,0.7C85.7,484.8,85.2,484.6,84.9,484.4 M90.6,485.8v-6.5c0-1.1-0.3-1.9-0.8-2.4c-0.5-0.5-1.4-0.8-2.5-0.8
		c-0.6,0-1.1,0.1-1.7,0.2c-0.6,0.1-1.1,0.3-1.5,0.6l0.4,1.1c1-0.5,1.9-0.7,2.7-0.7c0.7,0,1.2,0.2,1.5,0.5c0.3,0.4,0.5,0.9,0.5,1.7
		v0.6l-1.6,0.1c-3.1,0.1-4.6,1.1-4.6,3c0,0.9,0.3,1.6,0.8,2.1c0.5,0.5,1.3,0.7,2.2,0.7c0.7,0,1.3-0.1,1.8-0.3
		c0.5-0.2,0.9-0.6,1.4-1.2h0.1l0.3,1.4H90.6z"/>
	<path class="st43" d="M274.8,456.1c-0.4-0.4-1.2-0.8-2.3-1.2c-0.8-0.3-1.4-0.5-1.7-0.7c-0.3-0.2-0.5-0.3-0.6-0.5
		c-0.1-0.2-0.2-0.4-0.2-0.7c0-0.4,0.2-0.7,0.5-0.9c0.3-0.2,0.9-0.3,1.5-0.3c0.8,0,1.6,0.2,2.6,0.6l0.5-1.2c-1-0.4-2-0.6-3-0.6
		c-1.1,0-2,0.2-2.6,0.7c-0.6,0.4-0.9,1.1-0.9,1.8c0,0.4,0.1,0.8,0.3,1.1c0.2,0.3,0.5,0.6,0.8,0.8c0.4,0.2,1,0.5,1.9,0.9
		c0.9,0.4,1.6,0.7,1.9,0.9c0.3,0.3,0.5,0.6,0.5,1c0,0.5-0.2,0.9-0.6,1.1c-0.4,0.2-1,0.4-1.7,0.4c-0.5,0-1-0.1-1.5-0.2
		c-0.5-0.1-1-0.3-1.5-0.5v1.3c0.7,0.4,1.7,0.6,3,0.6c1.2,0,2.1-0.2,2.8-0.7c0.7-0.5,1-1.2,1-2.1
		C275.4,457.1,275.2,456.6,274.8,456.1 M264.7,451.1c-0.5,0.3-0.9,0.8-1.3,1.4h-0.1l-0.2-1.8H262v9.5h1.4v-5.1
		c0-0.9,0.3-1.7,0.8-2.3c0.5-0.6,1.2-0.9,2-0.9c0.3,0,0.6,0,1,0.1l0.2-1.3c-0.3-0.1-0.7-0.1-1.1-0.1
		C265.7,450.6,265.2,450.8,264.7,451.1 M252.9,452.8c0.5-0.6,1.2-0.9,2.1-0.9c1,0,1.7,0.3,2.2,0.9c0.5,0.6,0.7,1.6,0.7,2.8
		c0,1.2-0.2,2.2-0.7,2.8c-0.5,0.6-1.2,1-2.2,1c-0.9,0-1.7-0.3-2.2-1c-0.5-0.6-0.7-1.6-0.7-2.8C252.2,454.3,252.4,453.4,252.9,452.8
		 M258.2,451.9c-0.8-0.9-1.8-1.3-3.2-1.3c-1.4,0-2.5,0.4-3.2,1.3c-0.8,0.9-1.2,2.1-1.2,3.6c0,1,0.2,1.9,0.5,2.6
		c0.4,0.7,0.9,1.3,1.5,1.7c0.7,0.4,1.4,0.6,2.3,0.6c1.4,0,2.5-0.4,3.2-1.3c0.8-0.9,1.2-2.1,1.2-3.6C259.4,454,259,452.8,258.2,451.9
		 M246.9,458.8c-0.3-0.3-0.4-0.7-0.4-1.3v-5.6h2.8v-1.1h-2.8v-2.2h-0.8l-0.6,2l-1.4,0.6v0.7h1.4v5.7c0,1.9,0.9,2.9,2.8,2.9
		c0.2,0,0.5,0,0.8-0.1c0.3,0,0.5-0.1,0.7-0.2v-1.1c-0.1,0-0.3,0.1-0.6,0.1c-0.2,0-0.5,0.1-0.7,0.1
		C247.5,459.3,247.1,459.1,246.9,458.8 M242.6,460v-1.3c-0.8,0.3-1.7,0.5-2.4,0.5c-0.9,0-1.6-0.3-2.1-0.9c-0.5-0.6-0.7-1.5-0.7-2.7
		c0-2.5,1-3.7,2.9-3.7c0.3,0,0.6,0,1,0.1c0.4,0.1,0.7,0.2,1,0.3l0.4-1.2c-0.3-0.1-0.6-0.2-1.1-0.3c-0.5-0.1-0.9-0.1-1.4-0.1
		c-1.4,0-2.5,0.4-3.3,1.3c-0.8,0.9-1.2,2.1-1.2,3.7c0,1.6,0.4,2.8,1.1,3.6c0.8,0.9,1.8,1.3,3.2,1.3C241.2,460.5,242,460.3,242.6,460
		 M227.2,454.9l1.5-3.9c0.2-0.7,0.4-1.3,0.5-1.8c0.2,0.7,0.4,1.3,0.6,1.8l1.5,3.9H227.2z M234.9,460.3l-5-12.8h-1.2l-5,12.8h1.5
		l1.6-4h5.1l1.6,4H234.9z M216,458.2c-0.1,0.5-0.2,1.2-0.4,2.1c-0.2,0.9-0.4,1.6-0.5,2.2h1.1c0.3-0.7,0.6-1.4,0.9-2.1
		c0.3-0.8,0.5-1.4,0.7-2l-0.1-0.2H216z M213.2,456.1c-0.4-0.4-1.2-0.8-2.3-1.2c-0.8-0.3-1.4-0.5-1.7-0.7c-0.3-0.2-0.5-0.3-0.6-0.5
		c-0.1-0.2-0.2-0.4-0.2-0.7c0-0.4,0.2-0.7,0.5-0.9c0.3-0.2,0.9-0.3,1.6-0.3c0.8,0,1.6,0.2,2.6,0.6l0.5-1.2c-1-0.4-2-0.6-3-0.6
		c-1.1,0-2,0.2-2.6,0.7c-0.6,0.4-0.9,1.1-0.9,1.8c0,0.4,0.1,0.8,0.3,1.1c0.2,0.3,0.5,0.6,0.8,0.8c0.4,0.2,1,0.5,1.9,0.9
		c0.9,0.4,1.6,0.7,1.9,0.9c0.3,0.3,0.5,0.6,0.5,1c0,0.5-0.2,0.9-0.6,1.1c-0.4,0.2-1,0.4-1.7,0.4c-0.5,0-1-0.1-1.5-0.2
		c-0.5-0.1-1-0.3-1.5-0.5v1.3c0.7,0.4,1.7,0.6,3,0.6c1.2,0,2.1-0.2,2.8-0.7c0.7-0.5,1-1.2,1-2.1
		C213.8,457.1,213.6,456.6,213.2,456.1 M203,451.1c-0.5,0.3-0.9,0.8-1.3,1.4h-0.1l-0.2-1.8h-1.2v9.5h1.4v-5.1c0-0.9,0.3-1.7,0.8-2.3
		c0.5-0.6,1.2-0.9,2-0.9c0.3,0,0.7,0,1,0.1l0.2-1.3c-0.3-0.1-0.7-0.1-1.1-0.1C204.1,450.6,203.5,450.8,203,451.1 M191.2,452.8
		c0.5-0.6,1.2-0.9,2.1-0.9c1,0,1.7,0.3,2.2,0.9c0.5,0.6,0.7,1.6,0.7,2.8c0,1.2-0.2,2.2-0.7,2.8c-0.5,0.6-1.2,1-2.2,1
		c-0.9,0-1.7-0.3-2.2-1c-0.5-0.6-0.7-1.6-0.7-2.8C190.5,454.3,190.8,453.4,191.2,452.8 M196.6,451.9c-0.8-0.9-1.8-1.3-3.2-1.3
		c-1.4,0-2.5,0.4-3.2,1.3c-0.8,0.9-1.2,2.1-1.2,3.6c0,1,0.2,1.9,0.5,2.6c0.4,0.7,0.9,1.3,1.5,1.7c0.7,0.4,1.4,0.6,2.3,0.6
		c1.4,0,2.5-0.4,3.2-1.3c0.8-0.9,1.2-2.1,1.2-3.6C197.8,454,197.4,452.8,196.6,451.9 M186.6,456.1c-0.4-0.4-1.2-0.8-2.3-1.2
		c-0.8-0.3-1.4-0.5-1.7-0.7c-0.3-0.2-0.5-0.3-0.6-0.5c-0.1-0.2-0.2-0.4-0.2-0.7c0-0.4,0.2-0.7,0.5-0.9c0.3-0.2,0.9-0.3,1.6-0.3
		c0.8,0,1.6,0.2,2.6,0.6l0.5-1.2c-1-0.4-2-0.6-3-0.6c-1.1,0-2,0.2-2.6,0.7s-0.9,1.1-0.9,1.8c0,0.4,0.1,0.8,0.3,1.1
		c0.2,0.3,0.5,0.6,0.8,0.8c0.4,0.2,1,0.5,1.9,0.9c0.9,0.4,1.6,0.7,1.9,0.9c0.3,0.3,0.5,0.6,0.5,1c0,0.5-0.2,0.9-0.6,1.1
		c-0.4,0.2-1,0.4-1.7,0.4c-0.5,0-1-0.1-1.5-0.2c-0.5-0.1-1-0.3-1.5-0.5v1.3c0.7,0.4,1.7,0.6,3,0.6c1.2,0,2.1-0.2,2.8-0.7
		c0.7-0.5,1-1.2,1-2.1C187.2,457.1,187,456.6,186.6,456.1 M178.1,460.3v-6.2c0-1.2-0.3-2.1-0.9-2.7c-0.6-0.6-1.4-0.8-2.6-0.8
		c-0.7,0-1.3,0.1-1.8,0.4c-0.5,0.3-0.9,0.6-1.2,1.1h-0.1l-0.2-1.3h-1.2v9.5h1.4v-5c0-1.2,0.2-2.1,0.7-2.7c0.5-0.5,1.2-0.8,2.2-0.8
		c0.8,0,1.3,0.2,1.7,0.6c0.4,0.4,0.5,1,0.5,1.7v6.2H178.1z M165.5,452.5c0.4,0.5,0.6,1.2,0.6,2.1h-5c0.1-0.9,0.4-1.6,0.8-2.1
		c0.5-0.5,1.1-0.7,1.8-0.7C164.5,451.8,165.1,452,165.5,452.5 M165.8,460.3c0.5-0.1,0.9-0.3,1.4-0.5v-1.3c-1,0.4-2,0.6-3,0.6
		c-1,0-1.7-0.3-2.3-0.9c-0.5-0.6-0.8-1.4-0.8-2.6h6.6v-0.9c0-1.3-0.3-2.3-1-3.1c-0.7-0.8-1.6-1.2-2.8-1.2c-1.3,0-2.3,0.5-3.1,1.4
		c-0.8,0.9-1.1,2.1-1.1,3.7c0,1.5,0.4,2.7,1.2,3.6c0.8,0.9,1.9,1.3,3.3,1.3C164.8,460.5,165.3,460.4,165.8,460.3 M157,454.8
		c-0.5-0.5-1.4-1.1-2.8-1.5c-0.8-0.3-1.4-0.5-1.8-0.8c-0.4-0.2-0.7-0.5-0.8-0.8c-0.2-0.3-0.2-0.6-0.2-1.1c0-0.6,0.2-1.1,0.7-1.4
		c0.4-0.3,1.1-0.5,1.8-0.5c1,0,2,0.2,3.1,0.7l0.5-1.3c-1.1-0.5-2.2-0.7-3.5-0.7c-1.2,0-2.2,0.3-2.9,0.9c-0.7,0.6-1.1,1.4-1.1,2.3
		c0,0.9,0.3,1.7,0.8,2.3c0.5,0.6,1.4,1.1,2.5,1.5c0.8,0.3,1.5,0.6,1.9,0.8c0.4,0.2,0.7,0.5,0.9,0.8c0.2,0.3,0.3,0.6,0.3,1.1
		c0,0.7-0.2,1.2-0.7,1.6c-0.5,0.4-1.2,0.6-2.2,0.6c-0.6,0-1.2-0.1-1.8-0.2c-0.6-0.1-1.2-0.3-1.7-0.5v1.4c0.8,0.4,2,0.6,3.5,0.6
		c1.4,0,2.5-0.3,3.3-0.9c0.8-0.6,1.2-1.5,1.2-2.6C157.7,456.1,157.5,455.3,157,454.8 M141.2,458.2c-0.1,0.5-0.2,1.2-0.4,2.1
		c-0.2,0.9-0.4,1.6-0.5,2.2h1.1c0.3-0.7,0.6-1.4,0.9-2.1c0.3-0.8,0.5-1.4,0.7-2l-0.1-0.2H141.2z M138.3,456.1
		c-0.4-0.4-1.2-0.8-2.3-1.2c-0.8-0.3-1.4-0.5-1.7-0.7c-0.3-0.2-0.5-0.3-0.6-0.5c-0.1-0.2-0.2-0.4-0.2-0.7c0-0.4,0.2-0.7,0.5-0.9
		c0.3-0.2,0.9-0.3,1.6-0.3c0.8,0,1.6,0.2,2.6,0.6l0.5-1.2c-1-0.4-2-0.6-3-0.6c-1.1,0-2,0.2-2.6,0.7c-0.6,0.4-0.9,1.1-0.9,1.8
		c0,0.4,0.1,0.8,0.3,1.1c0.2,0.3,0.5,0.6,0.8,0.8c0.4,0.2,1,0.5,1.9,0.9c0.9,0.4,1.6,0.7,1.9,0.9c0.3,0.3,0.5,0.6,0.5,1
		c0,0.5-0.2,0.9-0.6,1.1c-0.4,0.2-1,0.4-1.7,0.4c-0.5,0-1-0.1-1.5-0.2c-0.5-0.1-1-0.3-1.5-0.5v1.3c0.7,0.4,1.7,0.6,3,0.6
		c1.2,0,2.1-0.2,2.8-0.7c0.7-0.5,1-1.2,1-2.1C138.9,457.1,138.7,456.6,138.3,456.1 M128.2,451.1c-0.5,0.3-0.9,0.8-1.3,1.4h-0.1
		l-0.2-1.8h-1.2v9.5h1.4v-5.1c0-0.9,0.3-1.7,0.8-2.3c0.5-0.6,1.2-0.9,2-0.9c0.3,0,0.6,0,1,0.1l0.2-1.3c-0.3-0.1-0.7-0.1-1.1-0.1
		C129.3,450.6,128.7,450.8,128.2,451.1 M120.9,452.5c0.4,0.5,0.6,1.2,0.6,2.1h-5c0.1-0.9,0.4-1.6,0.8-2.1c0.5-0.5,1.1-0.7,1.8-0.7
		C119.9,451.8,120.5,452,120.9,452.5 M121.2,460.3c0.5-0.1,0.9-0.3,1.4-0.5v-1.3c-1,0.4-2,0.6-3,0.6c-1,0-1.7-0.3-2.3-0.9
		c-0.5-0.6-0.8-1.4-0.8-2.6h6.6v-0.9c0-1.3-0.3-2.3-1-3.1c-0.7-0.8-1.6-1.2-2.8-1.2c-1.3,0-2.3,0.5-3.1,1.4
		c-0.8,0.9-1.1,2.1-1.1,3.7c0,1.5,0.4,2.7,1.2,3.6c0.8,0.9,1.9,1.3,3.3,1.3C120.2,460.5,120.7,460.4,121.2,460.3 M111.2,458.8
		c-0.3-0.3-0.4-0.7-0.4-1.3v-5.6h2.8v-1.1h-2.8v-2.2h-0.8l-0.6,2l-1.4,0.6v0.7h1.4v5.7c0,1.9,0.9,2.9,2.8,2.9c0.2,0,0.5,0,0.8-0.1
		c0.3,0,0.5-0.1,0.7-0.2v-1.1c-0.1,0-0.3,0.1-0.6,0.1c-0.2,0-0.5,0.1-0.7,0.1C111.8,459.3,111.4,459.1,111.2,458.8 M104.6,452.5
		c0.4,0.5,0.6,1.2,0.6,2.1h-5c0.1-0.9,0.3-1.6,0.8-2.1c0.5-0.5,1.1-0.7,1.8-0.7C103.6,451.8,104.2,452,104.6,452.5 M104.9,460.3
		c0.5-0.1,0.9-0.3,1.4-0.5v-1.3c-1,0.4-2,0.6-3,0.6c-1,0-1.7-0.3-2.3-0.9c-0.5-0.6-0.8-1.4-0.8-2.6h6.6v-0.9c0-1.3-0.3-2.3-1-3.1
		c-0.7-0.8-1.6-1.2-2.8-1.2c-1.3,0-2.3,0.5-3.1,1.4c-0.8,0.9-1.1,2.1-1.1,3.7c0,1.5,0.4,2.7,1.2,3.6c0.8,0.9,1.9,1.3,3.3,1.3
		C103.9,460.5,104.4,460.4,104.9,460.3 M90.1,460.3l4.4-11.3h0.1c-0.1,1.1-0.1,2.1-0.1,3.1v8.2h1.5v-12.7h-2.2l-4.1,10.5h-0.1
		l-4-10.5h-2.2v12.7h1.4v-8.1c0-1.2,0-2.3-0.1-3.2h0.1l4.3,11.3H90.1z"/>
	<path class="st43" d="M500.9,456.1c-0.4-0.4-1.2-0.8-2.3-1.2c-0.8-0.3-1.4-0.5-1.7-0.7c-0.3-0.2-0.5-0.3-0.6-0.5
		c-0.1-0.2-0.2-0.4-0.2-0.7c0-0.4,0.2-0.7,0.5-0.9c0.3-0.2,0.9-0.3,1.6-0.3c0.8,0,1.6,0.2,2.6,0.6l0.5-1.2c-1-0.4-2-0.6-3-0.6
		c-1.1,0-2,0.2-2.6,0.7c-0.6,0.4-0.9,1.1-0.9,1.8c0,0.4,0.1,0.8,0.3,1.1c0.2,0.3,0.5,0.6,0.8,0.8c0.4,0.2,1,0.5,1.9,0.9
		c0.9,0.4,1.6,0.7,1.9,0.9c0.3,0.3,0.5,0.6,0.5,1c0,0.5-0.2,0.9-0.6,1.1c-0.4,0.2-1,0.4-1.7,0.4c-0.5,0-1-0.1-1.5-0.2
		c-0.5-0.1-1-0.3-1.5-0.5v1.3c0.7,0.4,1.7,0.6,3,0.6c1.2,0,2.1-0.2,2.8-0.7c0.7-0.5,1-1.2,1-2.1
		C501.5,457.1,501.3,456.6,500.9,456.1 M488.7,460.4l-0.5,1.4c-0.4,1.1-1.1,1.7-2.1,1.7c-0.4,0-0.8,0-1.1-0.1v1.2
		c0.4,0.1,0.9,0.1,1.3,0.1c0.8,0,1.5-0.2,2-0.7c0.5-0.4,1-1.2,1.4-2.3l4.1-10.9h-1.6c-1.3,3.7-2.1,5.9-2.4,6.6
		c-0.2,0.7-0.4,1.2-0.5,1.5h-0.1c-0.1-0.6-0.4-1.4-0.9-2.7l-2.1-5.4h-1.6L488.7,460.4z M477.7,458.9c-0.3-0.3-0.5-0.7-0.5-1.2
		c0-0.7,0.3-1.2,0.8-1.5c0.5-0.3,1.3-0.5,2.5-0.5l1.4-0.1v0.9c0,0.9-0.3,1.6-0.8,2.1c-0.5,0.5-1.2,0.7-2.1,0.7
		C478.4,459.3,478,459.2,477.7,458.9 M483.3,460.3v-6.5c0-1.1-0.3-1.9-0.8-2.4c-0.5-0.5-1.4-0.8-2.5-0.8c-0.6,0-1.1,0.1-1.7,0.2
		c-0.6,0.1-1.1,0.3-1.5,0.6l0.4,1.1c1-0.5,1.9-0.7,2.7-0.7c0.7,0,1.2,0.2,1.5,0.5c0.3,0.4,0.5,0.9,0.5,1.7v0.6l-1.6,0.1
		c-3.1,0.1-4.6,1.1-4.6,3c0,0.9,0.3,1.6,0.8,2.1c0.5,0.5,1.3,0.7,2.2,0.7c0.7,0,1.3-0.1,1.8-0.3c0.5-0.2,0.9-0.6,1.4-1.2h0.1
		l0.3,1.4H483.3z M472,460.3l2.6-9.5h-1.5c-1.1,4.2-1.7,6.6-1.8,7c-0.1,0.4-0.2,0.8-0.2,1h-0.1c-0.1-0.7-0.3-1.5-0.7-2.5l-1.7-5.5
		h-1.6l-1.8,5.5c-0.1,0.3-0.2,0.7-0.4,1.2c-0.1,0.5-0.2,1-0.3,1.3h-0.1c0-0.4-0.2-1.3-0.6-2.5c-0.3-1.3-0.8-3.1-1.4-5.5h-1.5
		l2.6,9.5h1.7l1.8-5.6c0.2-0.6,0.4-1.3,0.6-2.4h0.1c0.3,1.2,0.5,2,0.6,2.3l1.8,5.6H472z M457.9,452.5c0.4,0.5,0.6,1.2,0.6,2.1h-5
		c0.1-0.9,0.3-1.6,0.8-2.1c0.5-0.5,1.1-0.7,1.8-0.7C456.9,451.8,457.5,452,457.9,452.5 M458.2,460.3c0.5-0.1,0.9-0.3,1.4-0.5v-1.3
		c-1,0.4-2,0.6-3,0.6c-1,0-1.7-0.3-2.3-0.9c-0.5-0.6-0.8-1.4-0.8-2.6h6.6v-0.9c0-1.3-0.3-2.3-1-3.1c-0.7-0.8-1.6-1.2-2.8-1.2
		c-1.3,0-2.3,0.5-3.1,1.4c-0.8,0.9-1.1,2.1-1.1,3.7c0,1.5,0.4,2.7,1.2,3.6c0.8,0.9,1.9,1.3,3.3,1.3
		C457.2,460.5,457.8,460.4,458.2,460.3 M448.2,458.8c-0.3-0.3-0.4-0.7-0.4-1.3v-5.6h2.8v-1.1h-2.8v-2.2h-0.8l-0.6,2l-1.4,0.6v0.7
		h1.4v5.7c0,1.9,0.9,2.9,2.8,2.9c0.2,0,0.5,0,0.8-0.1c0.3,0,0.5-0.1,0.7-0.2v-1.1c-0.1,0-0.3,0.1-0.6,0.1c-0.2,0-0.5,0.1-0.7,0.1
		C448.8,459.3,448.5,459.1,448.2,458.8 M437.6,458.9c-0.3-0.3-0.5-0.7-0.5-1.2c0-0.7,0.3-1.2,0.8-1.5c0.5-0.3,1.3-0.5,2.5-0.5
		l1.4-0.1v0.9c0,0.9-0.3,1.6-0.8,2.1c-0.5,0.5-1.2,0.7-2.1,0.7C438.3,459.3,437.9,459.2,437.6,458.9 M443.3,460.3v-6.5
		c0-1.1-0.3-1.9-0.8-2.4c-0.5-0.5-1.4-0.8-2.5-0.8c-0.6,0-1.1,0.1-1.7,0.2c-0.6,0.1-1.1,0.3-1.5,0.6l0.4,1.1c1-0.5,1.9-0.7,2.7-0.7
		c0.7,0,1.2,0.2,1.5,0.5c0.3,0.4,0.5,0.9,0.5,1.7v0.6l-1.6,0.1c-3.1,0.1-4.6,1.1-4.6,3c0,0.9,0.3,1.6,0.8,2.1
		c0.5,0.5,1.3,0.7,2.2,0.7c0.7,0,1.3-0.1,1.8-0.3c0.5-0.2,0.9-0.6,1.4-1.2h0.1l0.3,1.4H443.3z M429.1,455h2.8v3.9
		c-0.8,0.2-1.7,0.3-2.6,0.3c-1.6,0-2.9-0.4-3.7-1.3c-0.8-0.9-1.3-2.2-1.3-3.9c0-1.6,0.4-2.9,1.3-3.8c0.9-0.9,2.1-1.4,3.6-1.4
		c1.1,0,2.2,0.2,3.3,0.7l0.6-1.3c-1.2-0.5-2.4-0.7-3.8-0.7c-1.3,0-2.5,0.3-3.5,0.8c-1,0.5-1.8,1.3-2.3,2.3c-0.5,1-0.8,2.2-0.8,3.5
		c0,2.1,0.5,3.7,1.6,4.8c1.1,1.1,2.6,1.7,4.5,1.7c0.9,0,1.7-0.1,2.4-0.2c0.7-0.1,1.4-0.3,2.1-0.5v-6.2h-4.3V455z M415.4,447.6H414
		v7.3c0,0.4,0,1,0,1.8c0,0.9,0.1,1.4,0.1,1.5h-0.1l-6.9-10.6h-1.7v12.7h1.4v-7.2c0-1,0-2.2-0.1-3.4h0.1l7,10.7h1.7V447.6z
		 M396,454.9l1.5-3.9c0.2-0.7,0.4-1.3,0.5-1.8c0.2,0.7,0.4,1.3,0.6,1.8l1.5,3.9H396z M403.7,460.3l-5-12.8h-1.2l-5,12.8h1.5l1.6-4
		h5.1l1.6,4H403.7z M392.2,447.6h-1.6l-2,7.8c-0.3,1.2-0.5,2.2-0.6,3c-0.2-1.1-0.4-2.1-0.7-3l-2.4-7.8h-1.6l-2.3,7.7
		c-0.3,1-0.5,2.1-0.7,3.1c-0.1-0.9-0.3-1.9-0.6-3l-2-7.9h-1.6l3.4,12.7h1.5l2.5-8.5c0.3-0.9,0.5-1.8,0.6-2.5c0,0.1,0.1,0.5,0.2,1
		c0.2,0.6,0.3,1,0.4,1.4l2.6,8.5h1.5L392.2,447.6z M368.8,458.9c-0.3-0.3-0.5-0.7-0.5-1.2c0-0.7,0.3-1.2,0.8-1.5
		c0.5-0.3,1.3-0.5,2.5-0.5l1.4-0.1v0.9c0,0.9-0.3,1.6-0.8,2.1c-0.5,0.5-1.2,0.7-2.1,0.7C369.6,459.3,369.1,459.2,368.8,458.9
		 M374.5,460.3v-6.5c0-1.1-0.3-1.9-0.8-2.4c-0.5-0.5-1.4-0.8-2.5-0.8c-0.6,0-1.1,0.1-1.7,0.2c-0.6,0.1-1.1,0.3-1.5,0.6l0.4,1.1
		c1-0.5,1.9-0.7,2.7-0.7c0.7,0,1.2,0.2,1.5,0.5c0.3,0.4,0.5,0.9,0.5,1.7v0.6l-1.6,0.1c-3.1,0.1-4.6,1.1-4.6,3c0,0.9,0.3,1.6,0.8,2.1
		c0.5,0.5,1.3,0.7,2.2,0.7c0.7,0,1.3-0.1,1.8-0.3c0.5-0.2,0.9-0.6,1.4-1.2h0.1l0.3,1.4H374.5z M358.2,448.9h1.9
		c1.1,0,1.9,0.2,2.4,0.6c0.5,0.4,0.7,1,0.7,1.8c0,0.8-0.2,1.5-0.7,1.9c-0.5,0.4-1.3,0.6-2.3,0.6h-2V448.9z M360.9,455l3.1,5.3h1.8
		l-3.5-5.7c1.7-0.6,2.6-1.7,2.6-3.4c0-1.2-0.4-2.1-1.1-2.7c-0.7-0.6-1.9-0.9-3.5-0.9h-3.5v12.7h1.5V455H360.9z M347.4,452.8
		c0.5-0.6,1.2-0.9,2.1-0.9c1,0,1.7,0.3,2.2,0.9c0.5,0.6,0.7,1.6,0.7,2.8c0,1.2-0.2,2.2-0.7,2.8c-0.5,0.6-1.2,1-2.2,1
		c-0.9,0-1.7-0.3-2.2-1c-0.5-0.6-0.7-1.6-0.7-2.8C346.7,454.3,346.9,453.4,347.4,452.8 M352.8,451.9c-0.8-0.9-1.8-1.3-3.2-1.3
		c-1.4,0-2.5,0.4-3.2,1.3c-0.8,0.9-1.2,2.1-1.2,3.6c0,1,0.2,1.9,0.5,2.6c0.4,0.7,0.9,1.3,1.5,1.7c0.7,0.4,1.4,0.6,2.3,0.6
		c1.4,0,2.5-0.4,3.2-1.3c0.8-0.9,1.2-2.1,1.2-3.6C354,454,353.6,452.8,352.8,451.9 M343.8,460.3V459h-5.6v-11.4h-1.5v12.7H343.8z"/>
	<path class="st44" d="M733.5,360.3l3.2-4.5h-3l-2.1,3.1c-0.4,0.6-0.7,1-0.8,1.3v-4.3H728v10h2.7v-3.3l0.8-0.5l2,3.8h3.1
		L733.5,360.3z M713,357.9h0.5c0.9,0,1.4,0.3,1.4,1c0,0.8-0.5,1.3-1.4,1.3H713V357.9z M713.7,362.2l2.1,3.6h3.1l-2.9-4.4
		c1.1-0.6,1.7-1.5,1.7-2.7c0-2-1.4-3-4.1-3h-3.3v10h2.7v-3.6H713.7z M695.3,357.9c0.7,0,1.2,0.2,1.5,0.7c0.3,0.5,0.5,1.2,0.5,2.2
		c0,1-0.2,1.7-0.5,2.2c-0.3,0.5-0.8,0.7-1.5,0.7c-1.3,0-2-1-2-2.9C693.3,358.8,694,357.9,695.3,357.9 M699,357
		c-0.8-0.9-2-1.3-3.6-1.3c-1.6,0-2.8,0.4-3.6,1.3c-0.8,0.9-1.2,2.2-1.2,3.8c0,1.7,0.4,3,1.3,3.8c0.8,0.9,2,1.3,3.6,1.3
		c1.6,0,2.8-0.4,3.6-1.3c0.8-0.9,1.2-2.2,1.2-3.8C700.2,359.1,699.8,357.8,699,357 M681.3,355.8h-2.6l-1.1,5
		c-0.3,1.2-0.4,2.1-0.5,2.6c0-0.4-0.2-1-0.3-1.8c-0.2-0.8-0.3-1.5-0.4-2.1l-0.9-3.8H673l-0.9,3.8c-0.1,0.5-0.3,1.2-0.4,2
		c-0.2,0.8-0.3,1.4-0.3,1.9c-0.1-0.7-0.3-1.5-0.5-2.6l-1.1-5h-2.6l2.5,10h3.2c0.6-2.6,0.9-4.1,1-4.5c0.1-0.4,0.2-0.8,0.2-1.2
		c0.1-0.4,0.1-0.8,0.2-1.1c0,0.4,0.1,0.8,0.2,1.4c0.1,0.5,0.2,0.9,0.2,1.1l1,4.4h3.2L681.3,355.8z M655.9,358h2.4v-2.2h-7.6v2.2h2.4
		v7.8h2.7V358z M641.4,363.6h-3.2v-1.9h3v-2.2h-3V358h3.2v-2.2h-5.9v10h5.9V363.6z M625.1,355.8h-2.4v4.5c0,0.6,0,1.4,0.1,2.4h0
		l-3.6-7h-3.5v10h2.4v-4.5c0-0.6,0-1.4-0.1-2.5h0.1l3.7,7h3.5V355.8z"/>
	<path class="st44" d="M735.8,343.7c-0.5-0.6-1.4-1.3-2.6-1.8c-1.3-0.6-2.1-1-2.4-1.2c-0.3-0.2-0.4-0.5-0.4-0.8
		c0-0.3,0.1-0.5,0.3-0.7c0.2-0.2,0.6-0.3,1.1-0.3c1,0,2.2,0.3,3.5,0.9l1.2-3c-1.6-0.7-3.1-1-4.6-1c-1.7,0-3,0.4-4,1.1
		c-1,0.8-1.5,1.8-1.5,3.1c0,0.7,0.1,1.3,0.3,1.9c0.2,0.5,0.6,1,1.1,1.4c0.5,0.4,1.2,0.8,2.1,1.3c1,0.5,1.7,0.8,1.9,0.9
		c0.2,0.2,0.4,0.3,0.5,0.5s0.2,0.3,0.2,0.5c0,0.3-0.1,0.6-0.4,0.8c-0.3,0.2-0.7,0.3-1.3,0.3c-0.7,0-1.4-0.1-2.2-0.3
		c-0.8-0.2-1.6-0.5-2.3-0.9v3.5c0.7,0.3,1.4,0.6,2,0.7c0.7,0.1,1.5,0.2,2.4,0.2c1.2,0,2.2-0.2,3-0.6c0.9-0.4,1.5-0.9,2-1.6
		c0.5-0.7,0.7-1.5,0.7-2.4C736.5,345.1,736.3,344.3,735.8,343.7 M717.8,345h2.6v2.3c-0.5,0.1-1,0.2-1.6,0.2c-1.1,0-1.9-0.4-2.5-1.1
		c-0.6-0.7-0.9-1.8-0.9-3.1c0-1.4,0.3-2.5,0.9-3.2s1.5-1.1,2.7-1.1c1.3,0,2.4,0.3,3.5,0.8l1.2-3.1c-0.6-0.3-1.3-0.5-2.1-0.7
		c-0.8-0.2-1.7-0.3-2.6-0.3c-2.4,0-4.3,0.7-5.6,2s-2,3.1-2,5.5c0,2.4,0.6,4.3,1.8,5.6c1.2,1.3,3,2,5.2,2c2,0,3.9-0.3,5.6-0.9V342
		h-6.3V345z M708.8,336h-3.5v6.6c0,0.9,0,2.1,0.1,3.5h-0.1l-5.3-10.1h-5.1v14.5h3.5V344c0-0.8-0.1-2.1-0.2-3.7h0.1l5.3,10.2h5.2V336
		z M691.8,336h-4v14.6h4V336z M684.7,336h-4v5.4h-4.6V336h-4v14.5h4v-5.9h4.6v5.9h4V336z M666.6,339.2h3.5V336h-11v3.2h3.6v11.3h3.9
		V339.2z M652.3,347.3h-4.7v-2.7h4.4v-3.2h-4.4v-2.3h4.7V336h-8.6v14.5h8.6V347.3z M640.6,336h-4v5.4H632V336h-4v14.5h4v-5.9h4.6
		v5.9h4V336z M622.5,339.2h3.5V336h-11v3.2h3.6v11.3h3.9V339.2z"/>
	<path class="st45" d="M628.1,328h86.6c0,0,11.7-2.5,11.6-10.2c-0.1-7.7-6.5-9.6-6.5-9.6s6.3-10.6-1.3-17.1
		c-8.9-7.6-17.8-2.5-17.8-2.5s-2.5-16.6-20.4-16.6c-15.3,0-20.4,14-20.4,14s-5.1-7.6-12.7-5.1c-7.6,2.5-8.9,9.4-8.9,9.4
		s-4,0.6-7.6,3.3c-5.1,3.8-3.8,7.6-3.8,7.6s-11.5,2.5-11.5,14S628.1,328,628.1,328"/>
	<path class="st45" d="M717.6,276c2-2.5,10.7,1.3,16.1,8.9c5.1,7.2,3.8,20.4,0,19.1c-5-1.7,1.9-8-4.1-16.6
		C723.6,278.9,714.2,280.2,717.6,276"/>
	<path class="st45" d="M715.8,284.9c0-3.8,7.6-2.3,11.1,3.8c3.7,6.6,2.9,12.7-0.8,12.7c-3.5,0,0.2-5-2.7-9.3
		C720.6,287.7,715.8,287.4,715.8,284.9"/>
</g>
</svg>
