<?xml version="1.0" encoding="UTF-8"?>
<svg width="54px" height="29px" viewBox="0 0 54 29" version="1.1" xmlns="http://www.w3.org/2000/svg" xmlns:xlink="http://www.w3.org/1999/xlink">
    <title>Group 14</title>
    <g id="Page-1" stroke="none" stroke-width="1" fill="none" fill-rule="evenodd">
        <g id="The_Things_Logos_presentation_light-Copy" transform="translate(-557.000000, -258.000000)">
            <g id="Group-13" transform="translate(536.000000, 258.955935)">
                <g id="Group-14" transform="translate(21.777398, 0.000000)">
                    <path d="M17.2462619,0.997449721 C17.2654482,1.05417929 17.281189,1.11203866 17.2933965,1.1707052 L17.446,1.90490587 L11.0277652,4.11969906 C9.86046138,4.52246467 9.17681389,5.73626524 9.42901592,6.94829172 L13.188,25.0159059 L7.288,27.0513954 L6.01955253,27.4897326 C5.25713775,27.7527957 4.42794566,27.3417793 4.16750028,26.5717019 C4.14831394,26.5149723 4.13257314,26.457113 4.12036561,26.3984464 L0.0313881086,6.74773691 C-0.120199575,6.01924044 0.289984113,5.29096862 0.987418736,5.0503263 L15.3942096,0.079418977 C15.5287534,0.0329960973 15.6653767,0.00756530805 15.800587,0.00139538688 L15.935197,0.00158163572 C16.5153447,0.0296542669 17.0470977,0.408567029 17.2462619,0.997449721 Z M17.648,2.87590587 L18.461,6.78239539 L21.382374,20.8214147 C21.5339617,21.5499112 21.123778,22.278183 20.4263434,22.5188253 L14.126,24.6919059 L10.3928374,6.74773691 C10.2412497,6.01924044 10.6514334,5.29096862 11.348868,5.0503263 L17.648,2.87590587 Z" id="Combined-Shape" fill="#0047FF"></path>
                    <path d="M27.6077109,0.997449721 C27.6268974,1.05417929 27.6426385,1.11203866 27.6548458,1.1707052 L27.8204493,1.96890587 L21.5904486,4.11969906 C20.4231448,4.52246467 19.7394973,5.73626524 19.9916993,6.94829172 L23.7374493,24.9509059 L16.4154493,27.4773954 L16.3810018,27.4897326 C15.618587,27.7527957 14.789395,27.3417793 14.5289496,26.5717019 C14.5097633,26.5149723 14.4940225,26.457113 14.4818149,26.3984464 L10.3928374,6.74773691 C10.2412497,6.01924044 10.6514334,5.29096862 11.348868,5.0503263 L25.7556589,0.079418977 C25.8902027,0.0329960973 26.026826,0.00756530805 26.1620363,0.00139538688 L26.2966463,0.00158163572 C26.8767939,0.0296542669 27.4085468,0.408567029 27.6077109,0.997449721 Z M28.0224493,2.94039539 L31.7014493,20.6203954 L31.7438232,20.8214147 C31.8954112,21.5499112 31.4852271,22.278183 30.7877929,22.5188253 L24.6754493,24.6269059 L20.9555208,6.74773691 C20.8039331,6.01924044 21.2141168,5.29096862 21.9115514,5.0503263 L28.0224493,2.94039539 Z" id="Combined-Shape" fill="#1E5DFF"></path>
                    <path d="M38.1703946,0.997449721 C38.1895809,1.05417929 38.2053217,1.11203866 38.2175292,1.1707052 L38.3701327,1.90490587 L31.9518979,4.11969906 C30.7845941,4.52246467 30.1009466,5.73626524 30.3531486,6.94829172 L34.1121327,25.0159059 L28.2121327,27.0513954 L26.9436852,27.4897326 C26.1812705,27.7527957 25.3520784,27.3417793 25.091633,26.5717019 C25.0724467,26.5149723 25.0567059,26.457113 25.0444983,26.3984464 L20.9555208,6.74773691 C20.8039331,6.01924044 21.2141168,5.29096862 21.9115514,5.0503263 L36.3183423,0.079418977 C36.4528861,0.0329960973 36.5895094,0.00756530805 36.7247198,0.00139538688 L36.8593297,0.00158163572 C37.4394774,0.0296542669 37.9712304,0.408567029 38.1703946,0.997449721 Z M38.5721327,2.87590587 L39.3851327,6.78239539 L42.3065067,20.8214147 C42.4580944,21.5499112 42.0479107,22.278183 41.3504761,22.5188253 L35.0501327,24.6919059 L31.3169701,6.74773691 C31.1653824,6.01924044 31.5755661,5.29096862 32.2730008,5.0503263 L38.5721327,2.87590587 Z" id="Combined-Shape" fill="#3D73FF"></path>
                    <path d="M48.5318436,0.997449721 C48.5510301,1.05417929 48.5667712,1.11203866 48.5789785,1.1707052 L52.6679559,20.8214147 C52.8195439,21.5499112 52.4093598,22.278183 51.7119256,22.5188253 L37.3051345,27.4897326 C36.5427197,27.7527957 35.7135277,27.3417793 35.4530823,26.5717019 C35.433896,26.5149723 35.4181552,26.457113 35.4059476,26.3984464 L31.3169701,6.74773691 C31.1653824,6.01924044 31.5755661,5.29096862 32.2730008,5.0503263 L46.6797916,0.079418977 C47.4422064,-0.183644008 48.2713982,0.227372355 48.5318436,0.997449721 Z" id="Combined-Shape" fill="#6C95FF"></path>
                </g>
            </g>
        </g>
    </g>
</svg>