<?xml version="1.0" encoding="UTF-8"?>
<svg width="972px" height="490px" viewBox="0 0 972 490" version="1.1" xmlns="http://www.w3.org/2000/svg" xmlns:xlink="http://www.w3.org/1999/xlink">
    <title>Combined Shape</title>
    <defs>
        <linearGradient x1="0%" y1="37.2933919%" x2="100%" y2="62.7066081%" id="linearGradient-1">
            <stop stop-color="#57D0FF" offset="0%"></stop>
            <stop stop-color="#2CB4FF" offset="100%"></stop>
        </linearGradient>
    </defs>
    <g id="Page-1" stroke="none" stroke-width="1" fill="none" fill-rule="evenodd">
        <g id="Artboard-Copy-25" transform="translate(-13702.000000, -11652.000000)" fill="url(#linearGradient-1)">
            <path d="M14213.1942,11652 C14303.7253,11652 14378.2732,11720.3815 14387.9323,11808.275 C14404.0048,11799.7369 14422.3503,11794.9002 14441.8263,11794.9002 C14478.789,11794.9002 14511.6798,11812.3215 14532.724,11839.3954 L14533.015,11839.3962 L14533.0175,11839.7746 C14547.9649,11859.1705 14556.8538,11883.4694 14556.8538,11909.8428 C14556.8538,11918.6056 14555.8725,11927.1395 14554.0137,11935.3405 C14601.6428,11945.0488 14637.4787,11987.1492 14637.4787,12037.6134 C14637.4787,12094.688 14591.6394,12141.0642 14534.7425,12141.986 L14533.015,12142 L13833.1457,12140.8805 C13827.879,12141.6184 13822.4978,12142 13817.0275,12142 C13753.4996,12142 13702,12090.5385 13702,12027.0575 C13702,11963.5764 13753.4996,11912.1149 13817.0275,11912.1149 C13817.1551,11912.1149 13817.2826,11912.1151 13817.4101,11912.1155 L13817.4064,11911.7665 C13817.4064,11825.6476 13887.2418,11755.8344 13973.3883,11755.8344 C13999.5535,11755.8344 14024.214,11762.2747 14045.87,11773.6563 C14068.6637,11703.0651 14134.9611,11652 14213.1942,11652 Z M14447.3276,11727.3889 C14460.0252,11728.3184 14472.5474,11730.4998 14484.741,11733.885 C14509.2429,11740.6871 14532.1555,11752.279 14552.1706,11767.9113 C14572.1856,11783.5436 14588.9799,11802.9639 14601.5097,11825.0847 C14607.7452,11836.0932 14612.892,11847.7117 14616.8659,11859.8033 C14619.9314,11869.1307 14614.8526,11879.1769 14605.5221,11882.2422 C14596.1916,11885.3075 14586.1426,11880.231 14583.0771,11870.9036 C14579.8377,11861.047 14575.6433,11851.5785 14570.5609,11842.6057 C14560.3388,11824.5592 14546.625,11808.701 14530.273,11795.9296 C14513.921,11783.1582 14495.2112,11773.6926 14475.222,11768.1433 C14465.7154,11765.5041 14455.9653,11763.7628 14446.0769,11762.9533 L14444.7276,11762.8487 C14434.9327,11762.1318 14427.5744,11753.6126 14428.2923,11743.8207 C14429.0103,11734.0287 14437.5326,11726.672 14447.3276,11727.3889 Z M14456.4027,11665.5612 C14472.6309,11666.749 14488.6345,11669.5369 14504.2182,11673.8632 C14535.5353,11682.5573 14564.8236,11697.3748 14590.4093,11717.358 C14615.995,11737.3411 14637.4625,11762.1654 14653.4774,11790.4389 C14661.4466,11804.5082 14668.0242,11819.3568 14673.1031,11834.8104 C14676.1687,11844.1378 14671.0898,11854.1841 14661.7593,11857.2493 C14652.5336,11860.2802 14642.6056,11855.3512 14639.4203,11846.2235 L14639.3143,11845.9107 C14634.9699,11832.692 14629.3447,11819.9935 14622.5286,11807.96 C14608.8214,11783.7606 14590.4344,11762.4986 14568.5118,11745.3763 C14546.5891,11728.2541 14521.5036,11715.5629 14494.6993,11708.1216 C14481.3703,11704.4213 14467.6841,11702.037 14453.8028,11701.0209 C14444.0079,11700.304 14436.6496,11691.7848 14437.3675,11681.9929 C14438.0855,11672.2009 14446.6078,11664.8442 14456.4027,11665.5612 Z" id="Combined-Shape"></path>
        </g>
    </g>
</svg>