<svg width="128" height="128" xmlns="http://www.w3.org/2000/svg" xmlns:xlink="http://www.w3.org/1999/xlink"><style>#dark{display:none}@media (prefers-color-scheme:dark){#dark{display:inline}#light{display:none}}</style><defs><linearGradient x1="0%" y1="36.611%" x2="100%" y2="63.389%" id="linearGradient-3"><stop stop-color="#001F76" offset="0%"/><stop stop-color="#003FEF" offset="100%"/></linearGradient><linearGradient x1="0%" y1="36.611%" x2="100%" y2="63.389%" id="linearGradient-4"><stop stop-color="#001F76" offset="0%"/><stop stop-color="#003FEF" offset="100%"/></linearGradient><linearGradient x1="19.616%" y1="0%" x2="80.384%" y2="100%" id="linearGradient-7"><stop stop-color="#001F76" offset="0%"/><stop stop-color="#003FEF" offset="100%"/></linearGradient><linearGradient x1="19.616%" y1="0%" x2="80.384%" y2="100%" id="linearGradient-8"><stop stop-color="#0030B5" offset="0%"/><stop stop-color="#04F" offset="100%"/></linearGradient><linearGradient x1="36.783%" y1="0%" x2="63.217%" y2="100%" id="linearGradient-9"><stop stop-color="#0034C5" offset="0%"/><stop stop-color="#0038D5" offset="100%"/></linearGradient><linearGradient x1="19.616%" y1="0%" x2="80.384%" y2="100%" id="linearGradient-10"><stop stop-color="#003DE6" offset="0%"/><stop stop-color="#1B58FF" offset="100%"/></linearGradient><linearGradient x1="36.783%" y1="0%" x2="63.217%" y2="100%" id="linearGradient-11"><stop stop-color="#0643EC" offset="0%"/><stop stop-color="#003FED" offset="100%"/></linearGradient><linearGradient x1="19.616%" y1="0%" x2="80.384%" y2="100%" id="linearGradient-12"><stop stop-color="#04F" offset="0%"/><stop stop-color="#4576FF" offset="100%"/></linearGradient><linearGradient x1="36.783%" y1="0%" x2="63.217%" y2="100%" id="linearGradient-13"><stop stop-color="#1654FF" offset="0%"/><stop stop-color="#1552F9" offset="100%"/></linearGradient><linearGradient x1="0%" y1="36.756%" x2="100%" y2="63.244%" id="linearGradient-14"><stop stop-color="#001F76" offset="0%"/><stop stop-color="#003FEF" offset="100%"/></linearGradient><linearGradient x1="0%" y1="36.756%" x2="100%" y2="63.244%" id="linearGradient-15"><stop stop-color="#001F76" offset="0%"/><stop stop-color="#003FEF" offset="100%"/></linearGradient><linearGradient x1="19.283%" y1="0%" x2="80.717%" y2="100%" id="linearGradient-18"><stop stop-color="#001F76" offset="0%"/><stop stop-color="#003FEF" offset="100%"/></linearGradient><linearGradient x1="19.283%" y1="0%" x2="80.717%" y2="100%" id="linearGradient-19"><stop stop-color="#0030B5" offset="0%"/><stop stop-color="#04F" offset="100%"/></linearGradient><linearGradient x1="36.638%" y1="0%" x2="63.362%" y2="100%" id="linearGradient-20"><stop stop-color="#0034C5" offset="0%"/><stop stop-color="#0038D5" offset="100%"/></linearGradient><linearGradient x1="19.283%" y1="0%" x2="80.717%" y2="100%" id="linearGradient-21"><stop stop-color="#003DE6" offset="0%"/><stop stop-color="#1B58FF" offset="100%"/></linearGradient><linearGradient x1="36.638%" y1="0%" x2="63.362%" y2="100%" id="linearGradient-22"><stop stop-color="#0643EC" offset="0%"/><stop stop-color="#003FED" offset="100%"/></linearGradient><linearGradient x1="19.283%" y1="0%" x2="80.717%" y2="100%" id="linearGradient-23"><stop stop-color="#04F" offset="0%"/><stop stop-color="#4576FF" offset="100%"/></linearGradient><linearGradient x1="36.638%" y1="0%" x2="63.362%" y2="100%" id="linearGradient-24"><stop stop-color="#1654FF" offset="0%"/><stop stop-color="#1552F9" offset="100%"/></linearGradient><path d="M104.49 13.306H32.133a1.943 1.943 0 00-1.948 1.938V31.73c0 1.07.872 1.938 1.948 1.938h76.659l2.09 9.897a3.053 3.053 0 01-2.011 3.52L78.558 57.39a3.073 3.073 0 01-3.996-2.263l-.747-3.537-17.057 5.8a3.073 3.073 0 01-3.996-2.263l-.747-3.537-17.057 5.8a3.073 3.073 0 01-3.996-2.263l-.747-3.537-17.057 5.8a3.073 3.073 0 01-3.996-2.263L.559 14.388A3.053 3.053 0 012.57 10.87L32.882.564a3.073 3.073 0 013.995 2.262l.747 3.537 17.058-5.8a3.073 3.073 0 013.996 2.263l.746 3.537 17.058-5.8a3.073 3.073 0 013.996 2.263l.747 3.537 17.057-5.8a3.073 3.073 0 013.996 2.263l2.213 10.48z" id="path-5"/><path d="M119.553 15.14h-82.79c-1.23 0-2.228.988-2.228 2.206v18.761c0 1.218.998 2.206 2.228 2.206h87.71l2.39 11.262a3.471 3.471 0 01-2.3 4.005L89.881 65.307c-1.836.62-3.832-.35-4.459-2.166a3.449 3.449 0 01-.113-.409l-.855-4.025-19.516 6.6c-1.835.62-3.831-.35-4.458-2.166a3.448 3.448 0 01-.114-.409l-.854-4.025-19.516 6.6c-1.836.62-3.832-.35-4.459-2.166a3.448 3.448 0 01-.113-.409l-.855-4.025-19.516 6.6c-1.835.62-3.831-.35-4.458-2.166a3.448 3.448 0 01-.114-.409L.64 16.373a3.471 3.471 0 012.302-4.004L37.62.64c1.836-.62 3.832.35 4.459 2.166.046.134.084.27.113.409l.855 4.025L62.564.64c1.835-.62 3.831.35 4.458 2.166.046.134.084.27.114.409l.854 4.025L87.506.64c1.836-.62 3.832.35 4.459 2.166.046.134.084.27.113.409l.855 4.025 19.516-6.6c1.835-.62 3.831.35 4.458 2.166.046.134.084.27.114.409l2.532 11.925z" id="path-16"/><circle id="path-1" cx="64" cy="64" r="64"/></defs><g id="favicon-copy-2" stroke="none" stroke-width="1" fill="none" fill-rule="evenodd"><g id="dark"><mask id="mask-2" fill="#fff"><use xlink:href="#path-1"/></mask><use id="Oval" fill="#FFF" xlink:href="#path-1"/><g id="Group-2" mask="url(#mask-2)"><g transform="translate(8 33)"><g id="Combined-Shape" stroke-width="1" fill="none" fill-rule="evenodd"><path d="M104.49 13.306H32.133a1.943 1.943 0 00-1.948 1.938V31.73c0 1.07.872 1.938 1.948 1.938h76.659l2.09 9.897a3.053 3.053 0 01-2.011 3.52L78.558 57.39a3.073 3.073 0 01-3.996-2.263l-.747-3.537-17.057 5.8a3.073 3.073 0 01-3.996-2.263l-.747-3.537-17.057 5.8a3.073 3.073 0 01-3.996-2.263l-.747-3.537-17.057 5.8a3.073 3.073 0 01-3.996-2.263L.559 14.388A3.053 3.053 0 012.57 10.87L32.882.564a3.073 3.073 0 013.995 2.262l.747 3.537 17.058-5.8a3.073 3.073 0 013.996 2.263l.746 3.537 17.058-5.8a3.073 3.073 0 013.996 2.263l.747 3.537 17.057-5.8a3.073 3.073 0 013.996 2.263l2.213 10.48z" id="path-2" fill="url(#linearGradient-4)" fill-rule="nonzero"/></g><g id="Group-4-Clipped" stroke-width="1" fill="none" fill-rule="evenodd"><mask id="mask-6" fill="#fff"><use xlink:href="#path-5"/></mask><g id="Group-4" mask="url(#mask-6)" fill-rule="nonzero"><g id="Group"><path d="M2.57 10.87L32.882.563a3.073 3.073 0 013.995 2.262l8.603 40.74a3.053 3.053 0 01-2.011 3.52L13.158 57.39a3.073 3.073 0 01-3.996-2.263L.559 14.388A3.053 3.053 0 012.57 10.87z" id="Rectangle-Copy-102" fill="url(#linearGradient-7)"/><path d="M24.37 10.87L54.682.563a3.073 3.073 0 013.996 2.262l8.603 40.74a3.053 3.053 0 01-2.012 3.52L34.958 57.39a3.073 3.073 0 01-3.996-2.263l-8.603-40.74a3.053 3.053 0 012.011-3.519z" id="Rectangle-Copy-103" fill="url(#linearGradient-8)"/><path d="M37.624 6.363l7.856 37.203a3.053 3.053 0 01-2.011 3.52L30.215 51.59l-7.856-37.203a3.053 3.053 0 012.011-3.519l13.254-4.506z" id="Combined-Shape" fill="url(#linearGradient-9)"/><path d="M46.17 10.87L76.482.563a3.073 3.073 0 013.996 2.262l8.603 40.74a3.053 3.053 0 01-2.012 3.52L56.758 57.39a3.073 3.073 0 01-3.996-2.263l-8.603-40.74a3.053 3.053 0 012.011-3.519z" id="Rectangle-Copy-104" fill="url(#linearGradient-10)"/><path d="M59.424 6.363l7.857 37.203a3.053 3.053 0 01-2.012 3.52L52.015 51.59 44.16 14.388a3.053 3.053 0 012.011-3.519l13.254-4.506z" id="Combined-Shape" fill="url(#linearGradient-11)"/><path d="M67.97 10.87L98.283.563a3.073 3.073 0 013.996 2.262l8.603 40.74a3.053 3.053 0 01-2.011 3.52L78.558 57.39a3.073 3.073 0 01-3.996-2.263l-8.603-40.74a3.053 3.053 0 012.012-3.519z" id="Rectangle-Copy-111" fill="url(#linearGradient-12)"/><path d="M81.225 6.363l7.856 37.203a3.053 3.053 0 01-2.012 3.52L73.815 51.59 65.96 14.388a3.053 3.053 0 012.012-3.519l13.254-4.506z" id="Combined-Shape" fill="url(#linearGradient-13)"/></g></g></g><path d="M40.653 19.14v1.544h-2.8v1.535h2.682v1.544h-2.682v1.553h2.8v1.544H36v-7.72h4.653zm3.498 2.929v4.79h-1.853V19.14h1.853l3.234 4.791h.02v-4.79h1.853v7.719h-1.854l-3.233-4.791h-.02zm5.884-1.385V19.14h5.718v1.544H53.82v6.176h-1.853v-6.176h-1.932zm11.621-1.544v1.544h-2.8v1.535h2.682v1.544h-2.682v1.553h2.8v1.544h-4.653v-7.72h4.653zm1.645 0h2.908c1.508 0 2.652.777 2.652 2.293 0 1.16-.67 1.937-1.666 2.236l2.8 3.19h-2.357l-2.484-3.05v3.05h-1.853V19.14zm1.853 3.425h.217c.7 0 1.538-.047 1.538-1.01 0-.964-.838-1.011-1.538-1.011h-.217v2.02zm5.785-3.425h2.967c1.588 0 2.78.777 2.78 2.377 0 1.59-1.192 2.48-2.78 2.48h-1.114v2.863H70.94v-7.72zm1.853 3.453h.523c.73 0 1.42-.234 1.42-1.02 0-.795-.69-1.03-1.42-1.03h-.523v2.05zm5.293-3.453h2.908c1.508 0 2.652.777 2.652 2.293 0 1.16-.67 1.937-1.666 2.236l2.8 3.19h-2.357l-2.484-3.05v3.05h-1.853V19.14zm1.853 3.425h.217c.7 0 1.538-.047 1.538-1.01 0-.964-.838-1.011-1.538-1.011h-.217v2.02zm7.638-3.425v7.72h-1.853v-7.72h1.853zM92.14 19c1.479 0 2.524.73 2.524.73l-.75 1.403s-.808-.533-1.646-.533c-.63 0-.966.271-.966.692 0 .43.77.74 1.696 1.114.907.365 1.902 1.095 1.902 2.105 0 1.843-1.478 2.489-3.066 2.489-1.902 0-3.056-1.02-3.056-1.02l.927-1.478s1.085.87 1.991.87c.405 0 1.174-.037 1.174-.758 0-.561-.868-.814-1.834-1.272-.976-.459-1.548-1.18-1.548-1.984 0-1.441 1.34-2.358 2.652-2.358zm8.861.14v1.544h-2.8v1.535h2.682v1.544H98.2v1.553h2.8v1.544h-4.653v-7.72H101z" id="ENTERPRISE" fill="#002488" fill-rule="nonzero"/></g></g></g><g id="light" transform="translate(0 29)"><g id="Combined-Shape" fill="url(#linearGradient-15)" fill-rule="nonzero"><path d="M119.553 15.14h-82.79c-1.23 0-2.228.988-2.228 2.206v18.761c0 1.218.998 2.206 2.228 2.206h87.71l2.39 11.262a3.471 3.471 0 01-2.3 4.005L89.881 65.307c-1.836.62-3.832-.35-4.459-2.166a3.449 3.449 0 01-.113-.409l-.855-4.025-19.516 6.6c-1.835.62-3.831-.35-4.458-2.166a3.448 3.448 0 01-.114-.409l-.854-4.025-19.516 6.6c-1.836.62-3.832-.35-4.459-2.166a3.448 3.448 0 01-.113-.409l-.855-4.025-19.516 6.6c-1.835.62-3.831-.35-4.458-2.166a3.448 3.448 0 01-.114-.409L.64 16.373a3.471 3.471 0 012.302-4.004L37.62.64c1.836-.62 3.832.35 4.459 2.166.046.134.084.27.113.409l.855 4.025L62.564.64c1.835-.62 3.831.35 4.458 2.166.046.134.084.27.114.409l.854 4.025L87.506.64c1.836-.62 3.832.35 4.459 2.166.046.134.084.27.113.409l.855 4.025 19.516-6.6c1.835-.62 3.831.35 4.458 2.166.046.134.084.27.114.409l2.532 11.925z" id="path-2"/></g><g id="Group-4-Clipped"><mask id="mask-17" fill="#fff"><use xlink:href="#path-16"/></mask><g id="Group-4" mask="url(#mask-17)" fill-rule="nonzero"><g id="Group"><path d="M2.94 12.369L37.622.64c1.836-.62 3.832.35 4.459 2.166.046.134.084.27.113.409l9.843 46.36a3.471 3.471 0 01-2.301 4.004l-34.68 11.727c-1.836.62-3.832-.35-4.46-2.166a3.448 3.448 0 01-.113-.409L.64 16.373a3.471 3.471 0 012.302-4.004z" id="Rectangle-Copy-102" fill="url(#linearGradient-18)"/><path d="M27.883 12.369L62.563.64c1.836-.62 3.832.35 4.46 2.166.045.134.083.27.113.409l9.843 46.36a3.471 3.471 0 01-2.302 4.004l-34.68 11.727c-1.836.62-3.832-.35-4.459-2.166a3.448 3.448 0 01-.113-.409l-9.843-46.359a3.471 3.471 0 012.301-4.004z" id="Rectangle-Copy-103" fill="url(#linearGradient-19)"/><path d="M43.048 7.24l8.988 42.335a3.471 3.471 0 01-2.301 4.005L34.57 58.707l-8.988-42.334a3.471 3.471 0 012.301-4.004L43.048 7.24z" id="Combined-Shape" fill="url(#linearGradient-20)"/><path d="M52.826 12.369L87.506.64c1.836-.62 3.832.35 4.459 2.166.046.134.084.27.113.409l9.843 46.36a3.471 3.471 0 01-2.301 4.004L64.94 65.307c-1.836.62-3.832-.35-4.46-2.166a3.448 3.448 0 01-.113-.409l-9.843-46.359a3.471 3.471 0 012.302-4.004z" id="Rectangle-Copy-104" fill="url(#linearGradient-21)"/><path d="M67.99 7.24l8.989 42.335a3.471 3.471 0 01-2.302 4.005l-15.164 5.127-8.989-42.334a3.471 3.471 0 012.302-4.004L67.99 7.24z" id="Combined-Shape" fill="url(#linearGradient-22)"/><path d="M77.768 12.369L112.448.64c1.836-.62 3.832.35 4.46 2.166.045.134.083.27.113.409l9.843 46.36a3.471 3.471 0 01-2.302 4.004l-34.68 11.727c-1.836.62-3.832-.35-4.459-2.166a3.449 3.449 0 01-.113-.409l-9.843-46.359a3.471 3.471 0 012.301-4.004z" id="Rectangle-Copy-111" fill="url(#linearGradient-23)"/><path d="M92.933 7.24l8.988 42.335a3.471 3.471 0 01-2.301 4.005l-15.165 5.127-8.988-42.334a3.471 3.471 0 012.301-4.004L92.933 7.24z" id="Combined-Shape" fill="url(#linearGradient-24)"/></g></g></g><path d="M46.297 22.158v1.737H43.11v1.726h3.053v1.737H43.11v1.747h3.187v1.737H41v-8.684h5.297zm3.983 3.295v5.39h-2.11v-8.685h2.11l3.681 5.39h.022v-5.39h2.11v8.684h-2.11l-3.68-5.39h-.023zm6.698-1.558v-1.737h6.51v1.737h-2.2v6.947h-2.11v-6.947h-2.2zm13.23-1.737v1.737h-3.187v1.726h3.053v1.737H67.02v1.747h3.187v1.737h-5.297v-8.684h5.297zm1.873 0h3.31c1.718 0 3.02.874 3.02 2.579 0 1.305-.764 2.179-1.897 2.516l3.187 3.59H77.02L74.19 27.41v3.431h-2.11v-8.684zm2.11 3.853h.247c.796 0 1.75-.053 1.75-1.137 0-1.085-.954-1.137-1.75-1.137h-.247v2.274zm6.586-3.853h3.378c1.807 0 3.165.874 3.165 2.674 0 1.79-1.358 2.79-3.165 2.79h-1.268v3.22h-2.11v-8.684zm2.11 3.884h.595c.83 0 1.616-.263 1.616-1.147 0-.895-.786-1.158-1.616-1.158h-.595v2.305zm6.025-3.884h3.31c1.718 0 3.02.874 3.02 2.579 0 1.305-.764 2.179-1.897 2.516l3.187 3.59H93.85l-2.828-3.432v3.431h-2.11v-8.684zm2.11 3.853h.247c.796 0 1.75-.053 1.75-1.137 0-1.085-.954-1.137-1.75-1.137h-.247v2.274zm8.696-3.853v8.684h-2.11v-8.684h2.11zm5.194-.158c1.684 0 2.873.821 2.873.821l-.853 1.579s-.92-.6-1.874-.6c-.718 0-1.1.305-1.1.779 0 .484.876.832 1.93 1.253 1.033.41 2.167 1.231 2.167 2.368 0 2.074-1.684 2.8-3.49 2.8-2.167 0-3.48-1.147-3.48-1.147l1.055-1.664s1.235.98 2.267.98c.46 0 1.336-.043 1.336-.853 0-.632-.988-.916-2.088-1.432-1.11-.516-1.762-1.326-1.762-2.231 0-1.621 1.527-2.653 3.02-2.653zm10.088.158v1.737h-3.187v1.726h3.052v1.737h-3.052v1.747H115v1.737h-5.297v-8.684H115z" id="ENTERPRISE" fill="#002488" fill-rule="nonzero"/></g></g></svg>
