<?xml version="1.0" encoding="UTF-8"?>
<svg width="261px" height="46px" viewBox="0 0 261 46" version="1.1" xmlns="http://www.w3.org/2000/svg" xmlns:xlink="http://www.w3.org/1999/xlink">
    <title>Group 9</title>
    <defs>
        <linearGradient x1="19.9786418%" y1="0%" x2="80.0213582%" y2="100%" id="linearGradient-1">
            <stop stop-color="#0036CC" offset="0%"></stop>
            <stop stop-color="#0044FF" offset="100%"></stop>
        </linearGradient>
        <linearGradient x1="19.9798106%" y1="0%" x2="80.0201894%" y2="100%" id="linearGradient-2">
            <stop stop-color="#0044FF" offset="0%"></stop>
            <stop stop-color="#1B57FF" offset="100%"></stop>
        </linearGradient>
        <linearGradient x1="19.9786418%" y1="0%" x2="80.0213582%" y2="100%" id="linearGradient-3">
            <stop stop-color="#4E7DFF" offset="0%"></stop>
            <stop stop-color="#4274FF" offset="100%"></stop>
        </linearGradient>
        <linearGradient x1="19.9798106%" y1="0%" x2="80.0201894%" y2="100%" id="linearGradient-4">
            <stop stop-color="#6C95FF" offset="0%"></stop>
            <stop stop-color="#8BABFF" offset="100%"></stop>
        </linearGradient>
    </defs>
    <g id="Page-1" stroke="none" stroke-width="1" fill="none" fill-rule="evenodd">
        <g id="Artboard-Copy-4" transform="translate(-4117.000000, -845.000000)">
            <g id="Group-9" transform="translate(4117.000000, 845.000000)">
                <path d="M113.75,26 C114.975,26 116.05,26.275 117.025,26.775 C118.881723,27.7386159 119.832539,29.0999474 119.960535,31.3159807 L119.960535,31.3159807 L119.961047,31.3278061 L119.961047,31.3278061 L119.961217,31.3396414 C119.961217,31.5662589 119.777508,31.7499687 119.55089,31.75 L119.55089,31.75 L115.701944,31.75 C115.476235,31.750028 115.280244,31.5946018 115.228822,31.3748285 L115.228822,31.3748285 L115.182886,31.1979254 C114.922073,30.2902073 114.407829,29.95 113.625,29.95 C112.75,29.95 112,30.575 112,31.4 C112,32.5 113,33 115.025,33.875 C119.1,35.625 120.125,37.1 120.125,39.525 C120.125,43.1 117.675,45.2 113.675,45.2 C109.65,45.2 107,43.1 107,39.125 L107,39.125 L107.008127,39.044386 C107.045425,38.8621128 107.2067,38.725 107.4,38.725 L107.4,38.725 L111.373895,38.725 C111.552017,38.7249912 111.700552,38.8612206 111.715918,39.0386783 L111.715918,39.0386783 L111.736693,39.2277797 C111.902438,40.466018 112.609623,41.25 113.65,41.25 C114.625,41.25 115.425,40.475 115.425,39.475 C115.425,38.2107143 113.918878,37.552551 112.433746,36.9652332 L112.063785,36.81957 C111.941199,36.771301 111.819643,36.7232143 111.7,36.675 C108.675,35.45 107.3,33.85 107.3,31.45 C107.3,28.3 110.35,26 113.75,26 Z M163.705,26 C166.255,26 168.305,26.7 170.155,28.275 C171.547735,29.4687726 172.497107,30.7892201 172.990516,32.2363425 L173.089262,32.5483791 L173.108668,32.6379955 L173.11518,32.7294573 C173.11518,33.0535599 172.876328,33.3218756 172.565047,33.3679961 L172.469656,33.375 L168.970042,33.375 C168.591612,33.375 168.2456,33.161383 168.076046,32.8230625 C168.046428,32.7639686 168.019292,32.7124831 167.994636,32.6686057 C167.0986,31.0739934 165.544175,30.15 163.855,30.15 C160.905,30.15 158.905,32.675 158.905,35.55 C158.905,38.55 160.955,41.05 163.88,41.05 C165.565909,41.05 167.029488,40.2011027 168.016308,38.5214816 C168.030823,38.496777 168.046528,38.4692385 168.063424,38.4388662 C168.220267,38.1569311 168.501956,37.9702142 168.817531,37.9321862 L168.937283,37.925 L172.551376,37.925 C172.610398,37.9250296 172.669027,37.9346354 172.724964,37.9534702 C172.978048,38.0386881 173.12713,38.2919324 173.089802,38.5471243 L173.066906,38.6425882 L172.970775,38.9152745 C171.542745,42.7898906 167.970985,45.2 163.93,45.2 C161.355,45.2 158.93,44.3 157.03,42.425 C155.03,40.475 154.18,38.125 154.18,35.325 C154.18,30.425 158.405,26 163.705,26 Z M132.95,26.35 C133.502285,26.35 133.95,26.7977153 133.95,27.35 L133.95,27.35 L133.95,29.5 C133.95,30.0522847 133.502285,30.5 132.95,30.5 L132.95,30.5 L130.325,30.5 L130.325,43.85 C130.325,44.4022847 129.877285,44.85 129.325,44.85 L129.325,44.85 L126.6,44.85 C126.047715,44.85 125.6,44.4022847 125.6,43.85 L125.6,43.85 L125.6,30.5 L122.95,30.5 C122.397715,30.5 121.95,30.0522847 121.95,29.5 L121.95,29.5 L121.95,27.35 C121.95,26.7977153 122.397715,26.35 122.95,26.35 L122.95,26.35 Z M145.246265,26.35 C145.65602,26.35 146.024314,26.5999736 146.175605,26.9807756 L146.175605,26.9807756 L152.731011,43.4807756 C152.777694,43.5982768 152.801671,43.723565 152.801671,43.85 C152.801671,44.4022847 152.353955,44.85 151.801671,44.85 L151.801671,44.85 L148.868633,44.85 C148.439234,44.85 148.057768,44.5758662 147.920839,44.1688839 L147.920839,44.1688839 L147.25,42.175 L140.825,42.175 L140.089668,44.192448 C139.945761,44.587271 139.570363,44.85 139.150132,44.85 L139.150132,44.85 L136.253887,44.85 C136.126276,44.85 135.999844,44.8255751 135.881415,44.7780436 C135.368871,44.5723332 135.120133,43.9900728 135.325843,43.4775284 L135.325843,43.4775284 L141.948141,26.9775284 C142.100288,26.5984412 142.467704,26.35 142.876184,26.35 L142.876184,26.35 Z M180.95,26.35 C181.502285,26.35 181.95,26.7977153 181.95,27.35 L181.95,27.35 L181.95,34.675 L181.980007,34.6698765 C181.999021,34.6631846 182.015554,34.6502186 182.02658,34.6326502 L182.02658,34.6326502 L186.931018,26.8184016 C187.113951,26.526934 187.433896,26.35 187.778015,26.35 L187.778015,26.35 L190.310694,26.35 C190.507479,26.35 190.69989,26.4080602 190.86383,26.5169092 C191.323934,26.8223978 191.449274,27.4430328 191.143785,27.9031362 L191.143785,27.9031362 L186.05,35.575 L191.466711,43.2746158 C191.585225,43.4430779 191.648828,43.6440267 191.648828,43.85 C191.648828,44.4022847 191.201112,44.85 190.648828,44.85 L190.648828,44.85 L187.601322,44.85 C187.258125,44.85 186.938904,44.6740062 186.755708,44.3837941 L186.755708,44.3837941 L182,36.85 L181.974764,36.8568265 C181.959949,36.8655048 181.95,36.8815905 181.95,36.9 L181.95,36.9 L181.95,43.85 C181.95,44.4022847 181.502285,44.85 180.95,44.85 L180.95,44.85 L178.225,44.85 C177.672715,44.85 177.225,44.4022847 177.225,43.85 L177.225,43.85 L177.225,27.35 C177.225,26.7977153 177.672715,26.35 178.225,26.35 L178.225,26.35 Z M144.025,32.1 L142.125,38.425 L146,38.425 L144.1,32.125 L144.025,32.1 Z M235.525,-5.68434189e-14 C239.346665,-5.68434189e-14 243.042644,2.36706762 244.446199,5.62475181 L244.547134,5.87072496 L244.565967,5.92954836 C244.576059,5.96942873 244.581192,6.01048316 244.581192,6.05177895 C244.581192,6.29639054 244.404928,6.49983349 244.172485,6.54198734 L244.08292,6.55 L240.020289,6.55 C239.689952,6.55 239.380929,6.38685919 239.194571,6.1141071 C239.150037,6.04891714 239.110424,5.99367058 239.075732,5.94836743 C238.194162,4.79716125 236.926513,4.15 235.4,4.15 C232.425,4.15 230.35,6.55 230.35,9.525 C230.35,12.6 232.3,15.075 235.425,15.075 C237.543519,15.075 239.152023,14.078155 239.781714,12.3077033 L239.85,12.1 L235.325,12.1 C234.812164,12.1 234.389493,11.7139598 234.331728,11.2166211 L234.325,11.1 L234.325,9.325 C234.325,8.81216416 234.71104,8.38949284 235.208379,8.33172773 L235.325,8.325 L244.325,8.325 C244.837836,8.325 245.260507,8.71104019 245.318272,9.20837887 L245.325,9.325 L245.325,9.375 C245.325,14.35 241.675,19.225 235.45,19.225 C229.975,19.225 225.625,14.95 225.625,9.525 C225.625,3.925 230.15,-5.68434189e-14 235.525,-5.68434189e-14 Z M254.475,-1.13686838e-13 C255.7,-1.13686838e-13 256.775,0.275 257.75,0.775 C259.52936,1.69846523 260.476731,2.98719363 260.665244,5.04339509 L260.685535,5.31598073 L260.686047,5.32780614 L260.686217,5.3396414 C260.686217,5.53793172 260.545565,5.70337082 260.358585,5.74165327 L260.27589,5.75 L256.426944,5.75 C256.229448,5.75002449 256.054706,5.63102939 255.979657,5.45404931 L255.953822,5.37482854 L255.907886,5.19792538 C255.647073,4.29020727 255.132829,3.95 254.35,3.95 C253.475,3.95 252.725,4.575 252.725,5.4 C252.725,6.5 253.725,7 255.75,7.875 C259.825,9.625 260.85,11.1 260.85,13.525 C260.85,17.1 258.4,19.2 254.4,19.2 C250.4625,19.2 247.840867,17.1903119 247.728744,13.3815785 L247.725,13.125 L247.733127,13.044386 C247.765097,12.8881518 247.888152,12.7650967 248.044386,12.7331266 L248.125,12.725 L252.098895,12.725 C252.251571,12.7249925 252.382509,12.8250783 252.426481,12.9654262 L252.440918,13.0386783 L252.461693,13.2277797 C252.627438,14.466018 253.334623,15.25 254.375,15.25 C255.35,15.25 256.15,14.475 256.15,13.475 C256.15,12.2107143 254.643878,11.552551 253.158746,10.9652332 L252.788785,10.81957 C252.666199,10.771301 252.544643,10.7232143 252.425,10.675 C249.4,9.45 248.025,7.85 248.025,5.45 C248.025,2.3 251.075,-1.13686838e-13 254.475,-1.13686838e-13 Z M209.966205,0.35 C210.270058,0.35 210.554876,0.487931249 210.743258,0.720541763 L210.817863,0.825902574 L217.725,12.05 L217.542386,1.36709152 L217.54224,1.35 C217.54224,0.837164161 217.92828,0.414492839 218.425619,0.356727731 L218.54224,0.35 L221.05,0.35 C221.562836,0.35 221.985507,0.73604019 222.043272,1.23337887 L222.05,1.35 L222.05,17.85 C222.05,18.3628358 221.66396,18.7855072 221.166621,18.8432723 L221.05,18.85 L218.502691,18.85 C218.201741,18.85 217.919271,18.7146725 217.730771,18.4857409 L217.655958,18.3820181 L210.85,7.55 L210.963816,17.8389387 L210.963877,17.85 C210.963877,18.3628358 210.577837,18.7855072 210.080498,18.8432723 L209.963877,18.85 L207.45,18.85 C206.937164,18.85 206.514493,18.4639598 206.456728,17.9666211 L206.45,17.85 L206.45,1.35 C206.45,0.837164161 206.83604,0.414492839 207.333379,0.356727731 L207.45,0.35 L209.966205,0.35 Z M118,0.35 C118.512836,0.35 118.935507,0.73604019 118.993272,1.23337887 L119,1.35 L119,3.5 C119,4.01283584 118.61396,4.43550716 118.116621,4.49327227 L118,4.5 L115.375,4.5 L115.375,17.85 C115.375,18.3628358 114.98896,18.7855072 114.491621,18.8432723 L114.375,18.85 L111.65,18.85 C111.137164,18.85 110.714493,18.4639598 110.656728,17.9666211 L110.65,17.85 L110.65,4.5 L108,4.5 C107.487164,4.5 107.064493,4.11395981 107.006728,3.61662113 L107,3.5 L107,1.35 C107,0.837164161 107.38604,0.414492839 107.883379,0.356727731 L108,0.35 L118,0.35 Z M125.625,0.35 C126.137836,0.35 126.560507,0.73604019 126.618272,1.23337887 L126.625,1.35 L126.625,7.3 L132.675,7.3 L132.675,1.35 C132.675,0.837164161 133.06104,0.414492839 133.558379,0.356727731 L133.675,0.35 L136.4,0.35 C136.912836,0.35 137.335507,0.73604019 137.393272,1.23337887 L137.4,1.35 L137.4,17.85 C137.4,18.3628358 137.01396,18.7855072 136.516621,18.8432723 L136.4,18.85 L133.675,18.85 C133.162164,18.85 132.739493,18.4639598 132.681728,17.9666211 L132.675,17.85 L132.675,11.45 L126.625,11.45 L126.625,17.85 C126.625,18.3628358 126.23896,18.7855072 125.741621,18.8432723 L125.625,18.85 L122.9,18.85 C122.387164,18.85 121.964493,18.4639598 121.906728,17.9666211 L121.9,17.85 L121.9,1.35 C121.9,0.837164161 122.28604,0.414492839 122.783379,0.356727731 L122.9,0.35 L125.625,0.35 Z M151.025,0.35 C151.537836,0.35 151.960507,0.73604019 152.018272,1.23337887 L152.025,1.35 L152.025,3.5 C152.025,4.01283584 151.63896,4.43550716 151.141621,4.49327227 L151.025,4.5 L146.275,4.5 L146.275,7.375 L150.85,7.375 C151.362836,7.375 151.785507,7.76104019 151.843272,8.25837887 L151.85,8.375 L151.85,10.525 C151.85,11.0378358 151.46396,11.4605072 150.966621,11.5182723 L150.85,11.525 L146.275,11.525 L146.275,14.7 L151.025,14.7 C151.537836,14.7 151.960507,15.0860402 152.018272,15.5833789 L152.025,15.7 L152.025,17.85 C152.025,18.3628358 151.63896,18.7855072 151.141621,18.8432723 L151.025,18.85 L142.75,18.85 C142.237164,18.85 141.814493,18.4639598 141.756728,17.9666211 L141.75,17.85 L141.75,1.35 C141.75,0.837164161 142.13604,0.414492839 142.633379,0.356727731 L142.75,0.35 L151.025,0.35 Z M173.625,0.35 C174.137836,0.35 174.560507,0.73604019 174.618272,1.23337887 L174.625,1.35 L174.625,3.5 C174.625,4.01283584 174.23896,4.43550716 173.741621,4.49327227 L173.625,4.5 L171,4.5 L171,17.85 C171,18.3628358 170.61396,18.7855072 170.116621,18.8432723 L170,18.85 L167.275,18.85 C166.762164,18.85 166.339493,18.4639598 166.281728,17.9666211 L166.275,17.85 L166.275,4.5 L163.625,4.5 C163.112164,4.5 162.689493,4.11395981 162.631728,3.61662113 L162.625,3.5 L162.625,1.35 C162.625,0.837164161 163.01104,0.414492839 163.508379,0.356727731 L163.625,0.35 L173.625,0.35 Z M181.25,0.35 C181.762836,0.35 182.185507,0.73604019 182.243272,1.23337887 L182.25,1.35 L182.25,7.3 L188.3,7.3 L188.3,1.35 C188.3,0.837164161 188.68604,0.414492839 189.183379,0.356727731 L189.3,0.35 L192.025,0.35 C192.537836,0.35 192.960507,0.73604019 193.018272,1.23337887 L193.025,1.35 L193.025,17.85 C193.025,18.3628358 192.63896,18.7855072 192.141621,18.8432723 L192.025,18.85 L189.3,18.85 C188.787164,18.85 188.364493,18.4639598 188.306728,17.9666211 L188.3,17.85 L188.3,11.45 L182.25,11.45 L182.25,17.85 C182.25,18.3628358 181.86396,18.7855072 181.366621,18.8432723 L181.25,18.85 L178.525,18.85 C178.012164,18.85 177.589493,18.4639598 177.531728,17.9666211 L177.525,17.85 L177.525,1.35 C177.525,0.837164161 177.91104,0.414492839 178.408379,0.356727731 L178.525,0.35 L181.25,0.35 Z M201.1,0.35 C201.612836,0.35 202.035507,0.73604019 202.093272,1.23337887 L202.1,1.35 L202.1,17.85 C202.1,18.3628358 201.71396,18.7855072 201.216621,18.8432723 L201.1,18.85 L198.375,18.85 C197.862164,18.85 197.439493,18.4639598 197.381728,17.9666211 L197.375,17.85 L197.375,1.35 C197.375,0.837164161 197.76104,0.414492839 198.258379,0.356727731 L198.375,0.35 L201.1,0.35 Z" id="Combined-Shape-Copy-9" fill="#000000" fill-rule="nonzero"></path>
                <g id="TTS_logo">
                    <path d="M27.9966951,1.51704314 C28.0259292,1.6034819 28.0499155,1.69164974 28.068519,1.78105389 L28.517,3.938 L18.2535087,7.47868037 C16.782928,7.98608841 15.919335,9.51915569 16.2382423,11.0517529 L22.356,40.457 L9.65392083,44.8400658 C9.4526914,44.9094979 9.24837322,44.9479797 9.04604268,44.9580138 L8.89474678,44.9602445 C7.99015928,44.9420943 7.15152067,44.3605462 6.84141641,43.443639 C6.81218223,43.3572002 6.7881959,43.2690324 6.76959236,43.1796282 L0.0478518618,10.8764497 C-0.183104748,9.76652395 0.44142958,8.65783833 1.50132367,8.29213328 L25.1841906,0.120616249 C25.38542,0.0511842094 25.5897382,0.0127023877 25.7920687,0.00266830281 L25.9433646,0.000437588468 C26.8479521,0.018587791 27.6865907,0.600135849 27.9966951,1.51704314 Z M28.693,4.786 L34.7902595,34.0842324 C35.0212161,35.1941581 34.3966818,36.3028438 33.3367877,36.6685488 L23.177,40.173 L17.08071,10.8764497 C16.8497534,9.76652395 17.4742878,8.65783833 18.5341819,8.29213328 L28.693,4.786 Z" id="frame_4" fill="url(#linearGradient-1)"></path>
                    <path d="M45.0295528,1.51704314 C45.058788,1.6034841 45.0827744,1.69165165 45.1013769,1.78105256 L45.5718582,4.044 L35.6171692,7.47868037 C34.1465885,7.98608841 33.2829955,9.51915569 33.6019029,11.0517529 L39.6978582,40.35 L26.686779,44.8400658 C25.5297097,45.2393001 24.2705189,44.6152427 23.8742746,43.443639 C23.8450404,43.3572002 23.8210541,43.2690324 23.8024505,43.1796282 L17.08071,10.8764497 C16.8497534,9.76652395 17.4742878,8.65783833 18.5341819,8.29213328 L42.2170487,0.120616251 C43.3741179,-0.278617963 44.6333084,0.345439334 45.0295528,1.51704314 Z M45.7488582,4.893 L51.8231175,34.0842323 C52.0540745,35.1941577 51.4295401,36.3028436 50.3696461,36.6685488 L40.5178582,40.067 L34.4443706,10.8764497 C34.213414,9.76652395 34.8379483,8.65783833 35.8978424,8.29213328 L45.7488582,4.893 Z" id="frame_3" fill="url(#linearGradient-2)"></path>
                    <path d="M62.3932138,1.51704314 C62.4224479,1.6034819 62.4464342,1.69164974 62.4650377,1.78105389 L62.9135187,3.938 L52.6500274,7.47868037 C51.1794467,7.98608841 50.3158537,9.51915569 50.634761,11.0517529 L56.7525187,40.457 L44.0504395,44.8400658 C43.8492101,44.9094979 43.6448919,44.9479797 43.4425614,44.9580138 L43.2912655,44.9602445 C42.386678,44.9420943 41.5480394,44.3605462 41.2379351,43.443639 C41.2087009,43.3572002 41.1847146,43.2690324 41.1661111,43.1796282 L34.4443706,10.8764497 C34.213414,9.76652395 34.8379483,8.65783833 35.8978424,8.29213328 L59.5807093,0.120616249 C59.7819387,0.0511842094 59.9862569,0.0127023877 60.1885874,0.00266830281 L60.3398833,0.000437588468 C61.2444709,0.018587791 62.0831094,0.600135849 62.3932138,1.51704314 Z M63.0895187,4.786 L69.1867782,34.0842324 C69.4177348,35.1941581 68.7932005,36.3028438 67.7333064,36.6685488 L57.5735187,40.173 L51.4772288,10.8764497 C51.2462721,9.76652395 51.8708065,8.65783833 52.9307006,8.29213328 L63.0895187,4.786 Z" id="frame_2" fill="url(#linearGradient-3)"></path>
                    <path d="M79.4260716,1.51704314 C79.4553067,1.6034841 79.4792931,1.69165165 79.4978956,1.78105256 L86.2196362,34.0842323 C86.4505932,35.1941577 85.8260588,36.3028436 84.7661649,36.6685488 L61.0832977,44.8400658 C59.9262284,45.2393001 58.6670376,44.6152427 58.2707933,43.443639 C58.2415591,43.3572002 58.2175728,43.2690324 58.1989693,43.1796282 L51.4772288,10.8764497 C51.2462721,9.76652395 51.8708065,8.65783833 52.9307006,8.29213328 L76.6135675,0.120616251 C77.7706366,-0.278617963 79.0298271,0.345439334 79.4260716,1.51704314 Z" id="frame_1" fill="url(#linearGradient-4)"></path>
                </g>
            </g>
        </g>
    </g>
</svg>